{"glyphs":{"0":{"ha":661,"x_min":47,"x_max":668,"o":"m 272 -21 q 108 60 169 -21 q 47 276 47 142 q 101 540 47 404 q 249 767 156 676 q 454 857 343 857 q 481 863 467 857 q 510 868 494 868 q 626 786 583 868 q 668 582 668 704 q 616 305 668 446 q 473 72 564 164 q 272 -21 382 -21 m 285 58 q 425 147 367 58 q 513 370 483 236 q 543 633 543 504 q 524 765 543 724 q 460 806 506 806 q 310 719 374 806 q 212 502 246 632 q 178 250 178 372 q 202 108 178 157 q 285 58 226 58 z "},"1":{"ha":661,"x_min":168,"x_max":567,"o":"m 563 850 q 436 398 479 564 q 376 126 393 232 q 368 51 368 76 q 378 6 368 26 q 338 -1 367 4 q 283 -7 310 -7 q 240 3 253 -7 q 228 36 228 13 q 239 111 228 58 q 308 401 268 256 q 415 751 347 546 q 337 689 376 718 q 231 621 297 660 q 197 643 221 621 q 168 676 172 665 q 435 833 285 743 l 475 858 q 553 865 538 865 q 563 850 567 865 z "},"2":{"ha":661,"x_min":21,"x_max":635,"o":"m 411 113 q 560 69 560 113 q 550 28 560 57 q 532 -11 540 -1 q 315 8 476 8 q 82 -4 203 8 l 49 -7 q 29 22 38 3 q 21 53 21 42 q 51 94 21 67 q 172 210 128 164 q 361 417 215 256 q 458 542 424 485 q 492 661 492 600 q 464 742 492 713 q 382 771 436 771 q 199 621 264 771 q 168 636 178 624 q 158 674 158 649 q 192 768 158 724 q 285 840 226 813 q 415 867 344 867 q 576 811 517 867 q 635 669 635 756 q 609 563 635 614 q 547 473 583 513 q 451 378 511 433 l 142 86 q 286 106 224 99 q 411 113 349 113 z "},"3":{"ha":661,"x_min":33,"x_max":628,"o":"m 436 453 q 553 397 504 442 q 601 263 601 351 q 552 110 601 175 q 422 9 503 44 q 249 -26 342 -26 q 92 11 151 -26 q 33 101 33 49 q 43 136 33 124 q 65 149 53 149 q 140 84 90 108 q 251 60 190 60 q 362 86 314 60 q 435 158 410 113 q 461 258 461 203 q 267 403 461 403 q 249 420 257 403 q 242 460 242 438 q 260 492 242 492 q 380 518 325 492 q 466 590 435 544 q 497 692 497 636 q 469 765 497 742 q 382 788 442 788 q 276 766 324 788 q 179 699 228 744 q 165 710 171 700 q 160 731 160 719 q 193 788 160 757 q 283 842 226 819 q 407 864 340 864 q 568 813 508 864 q 628 681 628 761 q 572 538 628 601 q 436 453 515 474 z "},"4":{"ha":661,"x_min":19,"x_max":650,"o":"m 624 326 q 644 323 638 326 q 650 307 650 319 q 644 271 650 304 q 626 217 636 226 q 503 238 588 233 l 501 226 q 476 0 475 69 q 411 -8 442 -8 q 353 -4 378 -8 q 329 10 328 0 q 353 139 344 88 q 371 240 364 206 l 163 235 q 33 231 78 231 q 26 272 32 242 q 19 315 21 301 q 35 326 24 319 q 58 343 47 333 q 260 545 101 381 q 476 779 418 710 l 497 807 q 531 844 521 838 q 578 862 544 851 q 621 872 613 872 q 628 860 631 872 l 611 779 q 518 324 553 510 l 624 326 m 140 308 q 385 318 222 314 q 453 632 414 471 q 295 467 382 557 q 140 308 208 376 z "},"5":{"ha":661,"x_min":40,"x_max":693,"o":"m 686 908 q 693 881 693 897 q 669 822 693 851 q 594 771 644 792 q 468 750 543 750 q 385 760 414 750 q 347 641 367 706 q 328 556 328 576 q 347 519 328 533 q 407 488 367 506 q 490 444 457 465 q 546 381 522 422 q 569 278 569 340 q 530 128 569 199 q 417 16 490 58 q 249 -26 344 -26 q 137 -8 185 -26 q 65 39 89 11 q 40 92 40 67 q 52 125 40 110 q 79 140 64 140 q 138 82 99 104 q 232 60 176 60 q 348 94 303 60 q 413 176 393 128 q 433 267 433 224 q 408 349 433 315 q 351 401 383 382 q 269 442 318 421 q 253 448 263 444 q 235 457 244 451 q 193 514 193 479 q 236 692 193 557 q 304 864 279 828 q 376 844 326 853 q 476 836 425 836 q 606 856 554 836 q 686 908 657 876 z "},"6":{"ha":661,"x_min":53,"x_max":661,"o":"m 531 869 q 624 849 588 869 q 661 792 661 828 q 650 753 661 771 q 624 728 639 735 q 510 783 582 783 q 221 426 322 783 q 371 476 283 476 q 533 417 472 476 q 593 264 593 357 q 553 124 593 189 q 447 22 514 60 q 299 -17 379 -17 q 118 62 183 -17 q 53 267 53 140 q 121 540 53 399 q 299 776 189 682 q 531 869 410 869 m 351 407 q 236 340 279 407 q 193 185 193 272 q 294 54 193 54 q 410 121 371 54 q 450 274 450 188 q 425 373 450 339 q 351 407 400 407 z "},"7":{"ha":661,"x_min":183,"x_max":707,"o":"m 642 867 q 682 854 658 867 q 707 829 706 842 q 693 800 706 818 q 665 771 681 782 q 588 632 617 690 q 442 317 560 574 l 375 171 q 356 117 364 146 q 349 65 349 88 q 386 -11 349 19 l 353 -18 q 233 -39 256 -39 q 197 -23 211 -39 q 183 15 183 -7 q 201 90 183 42 q 239 182 218 138 q 360 408 285 283 q 536 690 435 533 l 585 768 q 411 767 519 767 q 295 763 329 767 q 242 742 261 758 q 207 685 224 725 l 194 693 q 190 753 190 735 q 218 835 190 810 q 299 860 246 860 q 407 850 332 860 q 558 839 510 839 q 611 845 594 839 q 642 867 628 851 z "},"8":{"ha":661,"x_min":42,"x_max":635,"o":"m 449 463 q 542 354 510 406 q 575 238 575 303 q 531 108 575 165 q 417 21 488 51 q 269 -10 347 -10 q 105 40 168 -10 q 42 172 42 90 q 99 315 42 251 q 260 447 157 378 q 187 538 213 493 q 161 640 161 583 q 200 763 161 710 q 302 844 239 815 q 438 872 365 872 q 581 829 526 872 q 635 704 635 786 q 586 572 635 626 q 449 463 538 517 m 300 663 q 320 594 300 626 q 378 526 340 563 q 486 619 449 575 q 524 711 524 663 q 501 771 524 749 q 435 793 478 793 q 338 753 376 793 q 300 663 300 714 m 272 63 q 383 106 340 63 q 425 211 425 149 q 399 301 425 261 q 322 388 372 342 q 206 291 247 340 q 164 176 164 242 q 192 92 164 122 q 271 63 221 63 l 272 63 z "},"9":{"ha":661,"x_min":39,"x_max":653,"o":"m 418 869 q 591 799 529 869 q 653 596 653 728 q 585 311 653 454 q 403 76 517 168 q 158 -17 289 -17 q 69 3 99 -17 q 39 56 39 24 q 54 102 39 81 q 90 132 69 124 q 136 97 110 110 q 210 83 163 83 q 330 117 282 83 q 412 221 378 151 q 478 410 446 290 q 346 376 418 376 q 178 436 243 376 q 113 593 113 496 q 154 733 113 669 q 267 833 196 796 q 418 869 338 869 m 358 432 q 473 499 433 432 q 513 663 513 565 q 411 813 513 813 q 294 744 338 813 q 250 579 250 676 q 358 432 250 432 z "},"\u0000":{"ha":0,"x_min":0,"x_max":0,"o":""},"\r":{"ha":358,"x_min":0,"x_max":0,"o":""}," ":{"ha":358,"x_min":0,"x_max":0,"o":""},"A":{"ha":1139,"x_min":-71,"x_max":1139,"o":"m 1122 172 q 1139 140 1139 161 q 1108 69 1139 104 q 1028 13 1076 35 q 935 -8 981 -8 q 824 45 863 -8 q 777 138 786 99 q 753 281 768 178 q 738 319 749 310 q 694 328 726 328 l 460 326 q 254 63 346 142 q 60 -15 163 -15 q -37 10 -4 -15 q -71 75 -71 35 q -50 132 -71 107 q 8 167 -29 157 q 24 92 8 111 q 76 74 40 74 q 212 128 146 74 q 378 328 278 183 q 333 339 346 331 q 319 364 319 347 q 326 398 319 376 q 340 425 333 419 q 431 407 363 417 q 600 675 508 525 q 711 857 692 825 q 786 981 738 900 q 816 1017 803 1006 q 850 1028 829 1028 q 893 1021 868 1028 q 870 949 878 996 q 861 847 863 901 l 860 790 q 863 622 860 718 q 871 464 867 525 q 890 267 879 342 q 928 144 901 193 q 1004 94 956 94 q 1067 116 1036 94 q 1122 172 1097 138 m 646 393 q 743 396 685 393 l 742 614 q 751 807 742 731 q 597 557 624 603 l 504 400 q 646 393 583 393 z "},"Á":{"ha":1139,"x_min":-71,"x_max":1167,"o":"m 1122 172 q 1139 140 1139 161 q 1108 69 1139 104 q 1028 13 1076 35 q 935 -8 981 -8 q 824 45 863 -8 q 777 138 786 99 q 753 281 768 178 q 738 319 749 310 q 694 328 726 328 l 460 326 q 254 63 346 142 q 60 -15 163 -15 q -37 10 -4 -15 q -71 75 -71 35 q -50 132 -71 107 q 8 167 -29 157 q 24 92 8 111 q 76 74 40 74 q 212 128 146 74 q 378 328 278 183 q 333 339 346 331 q 319 364 319 347 q 326 398 319 376 q 340 425 333 419 q 431 407 363 417 q 600 675 508 525 q 711 857 692 825 q 786 981 738 900 q 816 1017 803 1006 q 850 1028 829 1028 q 893 1021 868 1028 q 870 949 878 996 q 861 847 863 901 l 860 790 q 863 622 860 718 q 871 464 867 525 q 890 267 879 342 q 928 144 901 193 q 1004 94 956 94 q 1067 116 1036 94 q 1122 172 1097 138 m 646 393 q 743 396 685 393 l 742 614 q 751 807 742 731 q 597 557 624 603 l 504 400 q 646 393 583 393 z "},"Ă":{"ha":1139,"x_min":-71,"x_max":1139,"o":"m 1122 172 q 1139 140 1139 161 q 1108 69 1139 104 q 1028 13 1076 35 q 935 -8 981 -8 q 824 45 863 -8 q 777 138 786 99 q 753 281 768 178 q 738 319 749 310 q 694 328 726 328 l 460 326 q 254 63 346 142 q 60 -15 163 -15 q -37 10 -4 -15 q -71 75 -71 35 q -50 132 -71 107 q 8 167 -29 157 q 24 92 8 111 q 76 74 40 74 q 212 128 146 74 q 378 328 278 183 q 333 339 346 331 q 319 364 319 347 q 326 398 319 376 q 340 425 333 419 q 431 407 363 417 q 600 675 508 525 q 711 857 692 825 q 786 981 738 900 q 816 1017 803 1006 q 850 1028 829 1028 q 893 1021 868 1028 q 870 949 878 996 q 861 847 863 901 l 860 790 q 863 622 860 718 q 871 464 867 525 q 890 267 879 342 q 928 144 901 193 q 1004 94 956 94 q 1067 116 1036 94 q 1122 172 1097 138 m 646 393 q 743 396 685 393 l 742 614 q 751 807 742 731 q 597 557 624 603 l 504 400 q 646 393 583 393 z "},"Ắ":{"ha":1139,"x_min":-71,"x_max":1218,"o":"m 1122 172 q 1139 140 1139 161 q 1108 69 1139 104 q 1028 13 1076 35 q 935 -8 981 -8 q 824 45 863 -8 q 777 138 786 99 q 753 281 768 178 q 738 319 749 310 q 694 328 726 328 l 460 326 q 254 63 346 142 q 60 -15 163 -15 q -37 10 -4 -15 q -71 75 -71 35 q -50 132 -71 107 q 8 167 -29 157 q 24 92 8 111 q 76 74 40 74 q 212 128 146 74 q 378 328 278 183 q 333 339 346 331 q 319 364 319 347 q 326 398 319 376 q 340 425 333 419 q 431 407 363 417 q 600 675 508 525 q 711 857 692 825 q 786 981 738 900 q 816 1017 803 1006 q 850 1028 829 1028 q 893 1021 868 1028 q 870 949 878 996 q 861 847 863 901 l 860 790 q 863 622 860 718 q 871 464 867 525 q 890 267 879 342 q 928 144 901 193 q 1004 94 956 94 q 1067 116 1036 94 q 1122 172 1097 138 m 646 393 q 743 396 685 393 l 742 614 q 751 807 742 731 q 597 557 624 603 l 504 400 q 646 393 583 393 z "},"Ặ":{"ha":1139,"x_min":-71,"x_max":1139,"o":"m 1122 172 q 1139 140 1139 161 q 1108 69 1139 104 q 1028 13 1076 35 q 935 -8 981 -8 q 824 45 863 -8 q 777 138 786 99 q 753 281 768 178 q 738 319 749 310 q 694 328 726 328 l 460 326 q 254 63 346 142 q 60 -15 163 -15 q -37 10 -4 -15 q -71 75 -71 35 q -50 132 -71 107 q 8 167 -29 157 q 24 92 8 111 q 76 74 40 74 q 212 128 146 74 q 378 328 278 183 q 333 339 346 331 q 319 364 319 347 q 326 398 319 376 q 340 425 333 419 q 431 407 363 417 q 600 675 508 525 q 711 857 692 825 q 786 981 738 900 q 816 1017 803 1006 q 850 1028 829 1028 q 893 1021 868 1028 q 870 949 878 996 q 861 847 863 901 l 860 790 q 863 622 860 718 q 871 464 867 525 q 890 267 879 342 q 928 144 901 193 q 1004 94 956 94 q 1067 116 1036 94 q 1122 172 1097 138 m 646 393 q 743 396 685 393 l 742 614 q 751 807 742 731 q 597 557 624 603 l 504 400 q 646 393 583 393 z "},"Ằ":{"ha":1139,"x_min":-71,"x_max":1139,"o":"m 1122 172 q 1139 140 1139 161 q 1108 69 1139 104 q 1028 13 1076 35 q 935 -8 981 -8 q 824 45 863 -8 q 777 138 786 99 q 753 281 768 178 q 738 319 749 310 q 694 328 726 328 l 460 326 q 254 63 346 142 q 60 -15 163 -15 q -37 10 -4 -15 q -71 75 -71 35 q -50 132 -71 107 q 8 167 -29 157 q 24 92 8 111 q 76 74 40 74 q 212 128 146 74 q 378 328 278 183 q 333 339 346 331 q 319 364 319 347 q 326 398 319 376 q 340 425 333 419 q 431 407 363 417 q 600 675 508 525 q 711 857 692 825 q 786 981 738 900 q 816 1017 803 1006 q 850 1028 829 1028 q 893 1021 868 1028 q 870 949 878 996 q 861 847 863 901 l 860 790 q 863 622 860 718 q 871 464 867 525 q 890 267 879 342 q 928 144 901 193 q 1004 94 956 94 q 1067 116 1036 94 q 1122 172 1097 138 m 646 393 q 743 396 685 393 l 742 614 q 751 807 742 731 q 597 557 624 603 l 504 400 q 646 393 583 393 z "},"Ẳ":{"ha":1139,"x_min":-71,"x_max":1139,"o":"m 1122 172 q 1139 140 1139 161 q 1108 69 1139 104 q 1028 13 1076 35 q 935 -8 981 -8 q 824 45 863 -8 q 777 138 786 99 q 753 281 768 178 q 738 319 749 310 q 694 328 726 328 l 460 326 q 254 63 346 142 q 60 -15 163 -15 q -37 10 -4 -15 q -71 75 -71 35 q -50 132 -71 107 q 8 167 -29 157 q 24 92 8 111 q 76 74 40 74 q 212 128 146 74 q 378 328 278 183 q 333 339 346 331 q 319 364 319 347 q 326 398 319 376 q 340 425 333 419 q 431 407 363 417 q 600 675 508 525 q 711 857 692 825 q 786 981 738 900 q 816 1017 803 1006 q 850 1028 829 1028 q 893 1021 868 1028 q 870 949 878 996 q 861 847 863 901 l 860 790 q 863 622 860 718 q 871 464 867 525 q 890 267 879 342 q 928 144 901 193 q 1004 94 956 94 q 1067 116 1036 94 q 1122 172 1097 138 m 646 393 q 743 396 685 393 l 742 614 q 751 807 742 731 q 597 557 624 603 l 504 400 q 646 393 583 393 z "},"Ẵ":{"ha":1139,"x_min":-71,"x_max":1143,"o":"m 1122 172 q 1139 140 1139 161 q 1108 69 1139 104 q 1028 13 1076 35 q 935 -8 981 -8 q 824 45 863 -8 q 777 138 786 99 q 753 281 768 178 q 738 319 749 310 q 694 328 726 328 l 460 326 q 254 63 346 142 q 60 -15 163 -15 q -37 10 -4 -15 q -71 75 -71 35 q -50 132 -71 107 q 8 167 -29 157 q 24 92 8 111 q 76 74 40 74 q 212 128 146 74 q 378 328 278 183 q 333 339 346 331 q 319 364 319 347 q 326 398 319 376 q 340 425 333 419 q 431 407 363 417 q 600 675 508 525 q 711 857 692 825 q 786 981 738 900 q 816 1017 803 1006 q 850 1028 829 1028 q 893 1021 868 1028 q 870 949 878 996 q 861 847 863 901 l 860 790 q 863 622 860 718 q 871 464 867 525 q 890 267 879 342 q 928 144 901 193 q 1004 94 956 94 q 1067 116 1036 94 q 1122 172 1097 138 m 646 393 q 743 396 685 393 l 742 614 q 751 807 742 731 q 597 557 624 603 l 504 400 q 646 393 583 393 z "},"Ǎ":{"ha":1139,"x_min":-71,"x_max":1139,"o":"m 1122 172 q 1139 140 1139 161 q 1108 69 1139 104 q 1028 13 1076 35 q 935 -8 981 -8 q 824 45 863 -8 q 777 138 786 99 q 753 281 768 178 q 738 319 749 310 q 694 328 726 328 l 460 326 q 254 63 346 142 q 60 -15 163 -15 q -37 10 -4 -15 q -71 75 -71 35 q -50 132 -71 107 q 8 167 -29 157 q 24 92 8 111 q 76 74 40 74 q 212 128 146 74 q 378 328 278 183 q 333 339 346 331 q 319 364 319 347 q 326 398 319 376 q 340 425 333 419 q 431 407 363 417 q 600 675 508 525 q 711 857 692 825 q 786 981 738 900 q 816 1017 803 1006 q 850 1028 829 1028 q 893 1021 868 1028 q 870 949 878 996 q 861 847 863 901 l 860 790 q 863 622 860 718 q 871 464 867 525 q 890 267 879 342 q 928 144 901 193 q 1004 94 956 94 q 1067 116 1036 94 q 1122 172 1097 138 m 646 393 q 743 396 685 393 l 742 614 q 751 807 742 731 q 597 557 624 603 l 504 400 q 646 393 583 393 z "},"Â":{"ha":1139,"x_min":-71,"x_max":1139,"o":"m 1122 172 q 1139 140 1139 161 q 1108 69 1139 104 q 1028 13 1076 35 q 935 -8 981 -8 q 824 45 863 -8 q 777 138 786 99 q 753 281 768 178 q 738 319 749 310 q 694 328 726 328 l 460 326 q 254 63 346 142 q 60 -15 163 -15 q -37 10 -4 -15 q -71 75 -71 35 q -50 132 -71 107 q 8 167 -29 157 q 24 92 8 111 q 76 74 40 74 q 212 128 146 74 q 378 328 278 183 q 333 339 346 331 q 319 364 319 347 q 326 398 319 376 q 340 425 333 419 q 431 407 363 417 q 600 675 508 525 q 711 857 692 825 q 786 981 738 900 q 816 1017 803 1006 q 850 1028 829 1028 q 893 1021 868 1028 q 870 949 878 996 q 861 847 863 901 l 860 790 q 863 622 860 718 q 871 464 867 525 q 890 267 879 342 q 928 144 901 193 q 1004 94 956 94 q 1067 116 1036 94 q 1122 172 1097 138 m 646 393 q 743 396 685 393 l 742 614 q 751 807 742 731 q 597 557 624 603 l 504 400 q 646 393 583 393 z "},"Ấ":{"ha":1139,"x_min":-71,"x_max":1319,"o":"m 1122 172 q 1139 140 1139 161 q 1108 69 1139 104 q 1028 13 1076 35 q 935 -8 981 -8 q 824 45 863 -8 q 777 138 786 99 q 753 281 768 178 q 738 319 749 310 q 694 328 726 328 l 460 326 q 254 63 346 142 q 60 -15 163 -15 q -37 10 -4 -15 q -71 75 -71 35 q -50 132 -71 107 q 8 167 -29 157 q 24 92 8 111 q 76 74 40 74 q 212 128 146 74 q 378 328 278 183 q 333 339 346 331 q 319 364 319 347 q 326 398 319 376 q 340 425 333 419 q 431 407 363 417 q 600 675 508 525 q 711 857 692 825 q 786 981 738 900 q 816 1017 803 1006 q 850 1028 829 1028 q 893 1021 868 1028 q 870 949 878 996 q 861 847 863 901 l 860 790 q 863 622 860 718 q 871 464 867 525 q 890 267 879 342 q 928 144 901 193 q 1004 94 956 94 q 1067 116 1036 94 q 1122 172 1097 138 m 646 393 q 743 396 685 393 l 742 614 q 751 807 742 731 q 597 557 624 603 l 504 400 q 646 393 583 393 m 1242 1546 q 1288 1531 1257 1546 q 1319 1506 1319 1517 q 1303 1485 1319 1500 l 1118 1338 q 1090 1315 1097 1322 q 1071 1308 1082 1308 q 1046 1322 1060 1308 q 1144 1433 1111 1393 q 1224 1535 1176 1472 q 1242 1546 1232 1546 m 918 1404 q 960 1383 947 1404 q 1017 1254 979 1353 q 1054 1132 1054 1156 q 1026 1099 1054 1115 q 975 1083 999 1083 q 903 1299 936 1221 q 761 1111 817 1196 q 718 1128 736 1114 q 701 1161 700 1143 q 714 1190 703 1174 q 868 1376 765 1274 q 894 1399 886 1394 q 918 1404 903 1404 z "},"Ậ":{"ha":1139,"x_min":-71,"x_max":1139,"o":"m 1122 172 q 1139 140 1139 161 q 1108 69 1139 104 q 1028 13 1076 35 q 935 -8 981 -8 q 824 45 863 -8 q 777 138 786 99 q 753 281 768 178 q 738 319 749 310 q 694 328 726 328 l 460 326 q 254 63 346 142 q 60 -15 163 -15 q -37 10 -4 -15 q -71 75 -71 35 q -50 132 -71 107 q 8 167 -29 157 q 24 92 8 111 q 76 74 40 74 q 212 128 146 74 q 378 328 278 183 q 333 339 346 331 q 319 364 319 347 q 326 398 319 376 q 340 425 333 419 q 431 407 363 417 q 600 675 508 525 q 711 857 692 825 q 786 981 738 900 q 816 1017 803 1006 q 850 1028 829 1028 q 893 1021 868 1028 q 870 949 878 996 q 861 847 863 901 l 860 790 q 863 622 860 718 q 871 464 867 525 q 890 267 879 342 q 928 144 901 193 q 1004 94 956 94 q 1067 116 1036 94 q 1122 172 1097 138 m 646 393 q 743 396 685 393 l 742 614 q 751 807 742 731 q 597 557 624 603 l 504 400 q 646 393 583 393 z "},"Ầ":{"ha":1139,"x_min":-71,"x_max":1153,"o":"m 1122 172 q 1139 140 1139 161 q 1108 69 1139 104 q 1028 13 1076 35 q 935 -8 981 -8 q 824 45 863 -8 q 777 138 786 99 q 753 281 768 178 q 738 319 749 310 q 694 328 726 328 l 460 326 q 254 63 346 142 q 60 -15 163 -15 q -37 10 -4 -15 q -71 75 -71 35 q -50 132 -71 107 q 8 167 -29 157 q 24 92 8 111 q 76 74 40 74 q 212 128 146 74 q 378 328 278 183 q 333 339 346 331 q 319 364 319 347 q 326 398 319 376 q 340 425 333 419 q 431 407 363 417 q 600 675 508 525 q 711 857 692 825 q 786 981 738 900 q 816 1017 803 1006 q 850 1028 829 1028 q 893 1021 868 1028 q 870 949 878 996 q 861 847 863 901 l 860 790 q 863 622 860 718 q 871 464 867 525 q 890 267 879 342 q 928 144 901 193 q 1004 94 956 94 q 1067 116 1036 94 q 1122 172 1097 138 m 646 393 q 743 396 685 393 l 742 614 q 751 807 742 731 q 597 557 624 603 l 504 400 q 646 393 583 393 m 1025 1592 q 1089 1464 1064 1513 q 1153 1351 1114 1415 q 1124 1336 1142 1336 q 1100 1347 1111 1336 q 1024 1433 1076 1367 q 949 1536 971 1499 q 979 1579 958 1558 q 1015 1600 1000 1600 q 1025 1592 1022 1600 m 918 1404 q 960 1383 947 1404 q 1017 1254 979 1353 q 1054 1132 1054 1156 q 1026 1099 1054 1115 q 975 1083 999 1083 q 903 1299 936 1221 q 761 1111 817 1196 q 718 1128 736 1114 q 701 1161 700 1143 q 714 1190 703 1174 q 868 1376 765 1274 q 894 1399 886 1394 q 918 1404 903 1404 z "},"Ẩ":{"ha":1139,"x_min":-71,"x_max":1247,"o":"m 1122 172 q 1139 140 1139 161 q 1108 69 1139 104 q 1028 13 1076 35 q 935 -8 981 -8 q 824 45 863 -8 q 777 138 786 99 q 753 281 768 178 q 738 319 749 310 q 694 328 726 328 l 460 326 q 254 63 346 142 q 60 -15 163 -15 q -37 10 -4 -15 q -71 75 -71 35 q -50 132 -71 107 q 8 167 -29 157 q 24 92 8 111 q 76 74 40 74 q 212 128 146 74 q 378 328 278 183 q 333 339 346 331 q 319 364 319 347 q 326 398 319 376 q 340 425 333 419 q 431 407 363 417 q 600 675 508 525 q 711 857 692 825 q 786 981 738 900 q 816 1017 803 1006 q 850 1028 829 1028 q 893 1021 868 1028 q 870 949 878 996 q 861 847 863 901 l 860 790 q 863 622 860 718 q 871 464 867 525 q 890 267 879 342 q 928 144 901 193 q 1004 94 956 94 q 1067 116 1036 94 q 1122 172 1097 138 m 646 393 q 743 396 685 393 l 742 614 q 751 807 742 731 q 597 557 624 603 l 504 400 q 646 393 583 393 z "},"Ẫ":{"ha":1139,"x_min":-71,"x_max":1176,"o":"m 1122 172 q 1139 140 1139 161 q 1108 69 1139 104 q 1028 13 1076 35 q 935 -8 981 -8 q 824 45 863 -8 q 777 138 786 99 q 753 281 768 178 q 738 319 749 310 q 694 328 726 328 l 460 326 q 254 63 346 142 q 60 -15 163 -15 q -37 10 -4 -15 q -71 75 -71 35 q -50 132 -71 107 q 8 167 -29 157 q 24 92 8 111 q 76 74 40 74 q 212 128 146 74 q 378 328 278 183 q 333 339 346 331 q 319 364 319 347 q 326 398 319 376 q 340 425 333 419 q 431 407 363 417 q 600 675 508 525 q 711 857 692 825 q 786 981 738 900 q 816 1017 803 1006 q 850 1028 829 1028 q 893 1021 868 1028 q 870 949 878 996 q 861 847 863 901 l 860 790 q 863 622 860 718 q 871 464 867 525 q 890 267 879 342 q 928 144 901 193 q 1004 94 956 94 q 1067 116 1036 94 q 1122 172 1097 138 m 646 393 q 743 396 685 393 l 742 614 q 751 807 742 731 q 597 557 624 603 l 504 400 q 646 393 583 393 z "},"Ä":{"ha":1139,"x_min":-71,"x_max":1139,"o":"m 1122 172 q 1139 140 1139 161 q 1108 69 1139 104 q 1028 13 1076 35 q 935 -8 981 -8 q 824 45 863 -8 q 777 138 786 99 q 753 281 768 178 q 738 319 749 310 q 694 328 726 328 l 460 326 q 254 63 346 142 q 60 -15 163 -15 q -37 10 -4 -15 q -71 75 -71 35 q -50 132 -71 107 q 8 167 -29 157 q 24 92 8 111 q 76 74 40 74 q 212 128 146 74 q 378 328 278 183 q 333 339 346 331 q 319 364 319 347 q 326 398 319 376 q 340 425 333 419 q 431 407 363 417 q 600 675 508 525 q 711 857 692 825 q 786 981 738 900 q 816 1017 803 1006 q 850 1028 829 1028 q 893 1021 868 1028 q 870 949 878 996 q 861 847 863 901 l 860 790 q 863 622 860 718 q 871 464 867 525 q 890 267 879 342 q 928 144 901 193 q 1004 94 956 94 q 1067 116 1036 94 q 1122 172 1097 138 m 646 393 q 743 396 685 393 l 742 614 q 751 807 742 731 q 597 557 624 603 l 504 400 q 646 393 583 393 z "},"Ạ":{"ha":1139,"x_min":-71,"x_max":1139,"o":"m 1122 172 q 1139 140 1139 161 q 1108 69 1139 104 q 1028 13 1076 35 q 935 -8 981 -8 q 824 45 863 -8 q 777 138 786 99 q 753 281 768 178 q 738 319 749 310 q 694 328 726 328 l 460 326 q 254 63 346 142 q 60 -15 163 -15 q -37 10 -4 -15 q -71 75 -71 35 q -50 132 -71 107 q 8 167 -29 157 q 24 92 8 111 q 76 74 40 74 q 212 128 146 74 q 378 328 278 183 q 333 339 346 331 q 319 364 319 347 q 326 398 319 376 q 340 425 333 419 q 431 407 363 417 q 600 675 508 525 q 711 857 692 825 q 786 981 738 900 q 816 1017 803 1006 q 850 1028 829 1028 q 893 1021 868 1028 q 870 949 878 996 q 861 847 863 901 l 860 790 q 863 622 860 718 q 871 464 867 525 q 890 267 879 342 q 928 144 901 193 q 1004 94 956 94 q 1067 116 1036 94 q 1122 172 1097 138 m 646 393 q 743 396 685 393 l 742 614 q 751 807 742 731 q 597 557 624 603 l 504 400 q 646 393 583 393 z "},"À":{"ha":1139,"x_min":-71,"x_max":1139,"o":"m 1122 172 q 1139 140 1139 161 q 1108 69 1139 104 q 1028 13 1076 35 q 935 -8 981 -8 q 824 45 863 -8 q 777 138 786 99 q 753 281 768 178 q 738 319 749 310 q 694 328 726 328 l 460 326 q 254 63 346 142 q 60 -15 163 -15 q -37 10 -4 -15 q -71 75 -71 35 q -50 132 -71 107 q 8 167 -29 157 q 24 92 8 111 q 76 74 40 74 q 212 128 146 74 q 378 328 278 183 q 333 339 346 331 q 319 364 319 347 q 326 398 319 376 q 340 425 333 419 q 431 407 363 417 q 600 675 508 525 q 711 857 692 825 q 786 981 738 900 q 816 1017 803 1006 q 850 1028 829 1028 q 893 1021 868 1028 q 870 949 878 996 q 861 847 863 901 l 860 790 q 863 622 860 718 q 871 464 867 525 q 890 267 879 342 q 928 144 901 193 q 1004 94 956 94 q 1067 116 1036 94 q 1122 172 1097 138 m 646 393 q 743 396 685 393 l 742 614 q 751 807 742 731 q 597 557 624 603 l 504 400 q 646 393 583 393 z "},"Ả":{"ha":1139,"x_min":-71,"x_max":1139,"o":"m 1122 172 q 1139 140 1139 161 q 1108 69 1139 104 q 1028 13 1076 35 q 935 -8 981 -8 q 824 45 863 -8 q 777 138 786 99 q 753 281 768 178 q 738 319 749 310 q 694 328 726 328 l 460 326 q 254 63 346 142 q 60 -15 163 -15 q -37 10 -4 -15 q -71 75 -71 35 q -50 132 -71 107 q 8 167 -29 157 q 24 92 8 111 q 76 74 40 74 q 212 128 146 74 q 378 328 278 183 q 333 339 346 331 q 319 364 319 347 q 326 398 319 376 q 340 425 333 419 q 431 407 363 417 q 600 675 508 525 q 711 857 692 825 q 786 981 738 900 q 816 1017 803 1006 q 850 1028 829 1028 q 893 1021 868 1028 q 870 949 878 996 q 861 847 863 901 l 860 790 q 863 622 860 718 q 871 464 867 525 q 890 267 879 342 q 928 144 901 193 q 1004 94 956 94 q 1067 116 1036 94 q 1122 172 1097 138 m 646 393 q 743 396 685 393 l 742 614 q 751 807 742 731 q 597 557 624 603 l 504 400 q 646 393 583 393 m 814 1069 q 789 1092 785 1069 q 860 1161 829 1118 q 890 1238 890 1204 q 844 1274 890 1274 q 792 1268 819 1274 q 818 1315 797 1299 q 903 1340 849 1340 q 977 1319 951 1340 q 1003 1258 1003 1297 q 972 1170 1003 1214 q 896 1098 940 1126 q 814 1069 851 1069 z "},"Ā":{"ha":1139,"x_min":-71,"x_max":1142,"o":"m 1122 172 q 1139 140 1139 161 q 1108 69 1139 104 q 1028 13 1076 35 q 935 -8 981 -8 q 824 45 863 -8 q 777 138 786 99 q 753 281 768 178 q 738 319 749 310 q 694 328 726 328 l 460 326 q 254 63 346 142 q 60 -15 163 -15 q -37 10 -4 -15 q -71 75 -71 35 q -50 132 -71 107 q 8 167 -29 157 q 24 92 8 111 q 76 74 40 74 q 212 128 146 74 q 378 328 278 183 q 333 339 346 331 q 319 364 319 347 q 326 398 319 376 q 340 425 333 419 q 431 407 363 417 q 600 675 508 525 q 711 857 692 825 q 786 981 738 900 q 816 1017 803 1006 q 850 1028 829 1028 q 893 1021 868 1028 q 870 949 878 996 q 861 847 863 901 l 860 790 q 863 622 860 718 q 871 464 867 525 q 890 267 879 342 q 928 144 901 193 q 1004 94 956 94 q 1067 116 1036 94 q 1122 172 1097 138 m 646 393 q 743 396 685 393 l 742 614 q 751 807 742 731 q 597 557 624 603 l 504 400 q 646 393 583 393 z "},"Ą":{"ha":1139,"x_min":-71,"x_max":1139,"o":"m 1122 172 q 1139 140 1139 161 q 1085 49 1139 92 q 964 -6 1031 6 q 896 -64 918 -33 q 874 -133 874 -94 q 884 -172 874 -158 q 921 -185 894 -185 q 972 -179 944 -185 q 975 -194 975 -187 q 947 -235 975 -219 q 875 -251 919 -251 q 793 -228 824 -251 q 763 -160 763 -204 q 794 -69 763 -112 q 875 4 826 -25 q 791 102 815 32 q 760 222 767 172 q 753 281 754 271 q 738 319 749 310 q 694 328 726 328 l 460 326 q 254 63 346 142 q 60 -15 163 -15 q -37 10 -4 -15 q -71 75 -71 35 q -50 132 -71 107 q 8 167 -29 157 q 24 92 8 111 q 76 74 40 74 q 212 128 146 74 q 378 328 278 183 q 333 339 346 331 q 319 364 319 347 q 326 398 319 376 q 340 425 333 419 q 431 407 363 417 q 600 675 508 525 q 711 857 692 825 q 786 981 738 900 q 816 1017 803 1006 q 850 1028 829 1028 q 893 1021 868 1028 q 870 949 878 996 q 861 847 863 901 l 860 790 q 863 622 860 718 q 871 464 867 525 q 890 267 879 342 q 928 144 901 193 q 1004 94 956 94 q 1067 116 1036 94 q 1122 172 1097 138 m 646 393 q 743 396 685 393 l 742 614 q 751 807 742 731 q 597 557 624 603 l 504 400 q 646 393 583 393 z "},"Å":{"ha":1139,"x_min":-71,"x_max":1139,"o":"m 1122 172 q 1139 140 1139 161 q 1108 69 1139 104 q 1028 13 1076 35 q 935 -8 981 -8 q 824 45 863 -8 q 777 138 786 99 q 753 281 768 178 q 738 319 749 310 q 694 328 726 328 l 460 326 q 254 63 346 142 q 60 -15 163 -15 q -37 10 -4 -15 q -71 75 -71 35 q -50 132 -71 107 q 8 167 -29 157 q 24 92 8 111 q 76 74 40 74 q 212 128 146 74 q 378 328 278 183 q 333 339 346 331 q 319 364 319 347 q 326 398 319 376 q 340 425 333 419 q 431 407 363 417 q 600 675 508 525 q 711 857 692 825 q 786 981 738 900 q 816 1017 803 1006 q 850 1028 829 1028 q 893 1021 868 1028 q 870 949 878 996 q 861 847 863 901 l 860 790 q 863 622 860 718 q 871 464 867 525 q 890 267 879 342 q 928 144 901 193 q 1004 94 956 94 q 1067 116 1036 94 q 1122 172 1097 138 m 646 393 q 743 396 685 393 l 742 614 q 751 807 742 731 q 597 557 624 603 l 504 400 q 646 393 583 393 z "},"Ǻ":{"ha":1139,"x_min":-71,"x_max":1218,"o":"m 1122 172 q 1139 140 1139 161 q 1108 69 1139 104 q 1028 13 1076 35 q 935 -8 981 -8 q 824 45 863 -8 q 777 138 786 99 q 753 281 768 178 q 738 319 749 310 q 694 328 726 328 l 460 326 q 254 63 346 142 q 60 -15 163 -15 q -37 10 -4 -15 q -71 75 -71 35 q -50 132 -71 107 q 8 167 -29 157 q 24 92 8 111 q 76 74 40 74 q 212 128 146 74 q 378 328 278 183 q 333 339 346 331 q 319 364 319 347 q 326 398 319 376 q 340 425 333 419 q 431 407 363 417 q 600 675 508 525 q 711 857 692 825 q 786 981 738 900 q 816 1017 803 1006 q 850 1028 829 1028 q 893 1021 868 1028 q 870 949 878 996 q 861 847 863 901 l 860 790 q 863 622 860 718 q 871 464 867 525 q 890 267 879 342 q 928 144 901 193 q 1004 94 956 94 q 1067 116 1036 94 q 1122 172 1097 138 m 646 393 q 743 396 685 393 l 742 614 q 751 807 742 731 q 597 557 624 603 l 504 400 q 646 393 583 393 z "},"Ã":{"ha":1139,"x_min":-71,"x_max":1139,"o":"m 1122 172 q 1139 140 1139 161 q 1108 69 1139 104 q 1028 13 1076 35 q 935 -8 981 -8 q 824 45 863 -8 q 777 138 786 99 q 753 281 768 178 q 738 319 749 310 q 694 328 726 328 l 460 326 q 254 63 346 142 q 60 -15 163 -15 q -37 10 -4 -15 q -71 75 -71 35 q -50 132 -71 107 q 8 167 -29 157 q 24 92 8 111 q 76 74 40 74 q 212 128 146 74 q 378 328 278 183 q 333 339 346 331 q 319 364 319 347 q 326 398 319 376 q 340 425 333 419 q 431 407 363 417 q 600 675 508 525 q 711 857 692 825 q 786 981 738 900 q 816 1017 803 1006 q 850 1028 829 1028 q 893 1021 868 1028 q 870 949 878 996 q 861 847 863 901 l 860 790 q 863 622 860 718 q 871 464 867 525 q 890 267 879 342 q 928 144 901 193 q 1004 94 956 94 q 1067 116 1036 94 q 1122 172 1097 138 m 646 393 q 743 396 685 393 l 742 614 q 751 807 742 731 q 597 557 624 603 l 504 400 q 646 393 583 393 z "},"Æ":{"ha":1618,"x_min":-100,"x_max":1635,"o":"m 1619 978 q 1632 964 1635 978 q 1611 903 1631 954 q 1578 821 1592 853 l 1560 822 q 1556 856 1561 846 q 1533 867 1550 865 q 1083 897 1142 897 q 1058 892 1064 897 q 1049 871 1051 888 l 1021 708 q 1004 613 1013 661 q 986 513 996 564 q 1447 535 1382 515 l 1456 528 q 1406 444 1414 490 q 1393 432 1400 435 q 1364 429 1386 429 l 972 436 q 925 118 925 157 q 957 67 925 83 q 1061 51 989 51 q 1307 85 1175 51 q 1531 189 1439 118 q 1539 186 1535 189 q 1544 178 1543 183 q 1507 97 1531 165 q 1493 60 1494 61 q 1470 31 1485 40 q 1429 17 1456 22 q 1253 -9 1357 0 q 1060 -18 1149 -18 q 790 88 775 -18 q 846 438 803 196 l 596 442 l 506 443 q 228 165 346 292 q 69 -31 110 39 q 48 -82 53 -58 q 44 -137 43 -106 q 32 -150 39 -146 q 22 -151 25 -154 q -58 -101 -15 -139 q -100 -43 -100 -64 q -77 4 -100 -22 q 0 83 -54 31 q 659 714 449 517 q 954 968 869 911 q 992 989 976 983 q 1025 994 1007 994 q 1054 975 1039 979 q 1099 971 1069 971 l 1318 974 q 1619 978 1492 978 m 583 517 q 860 513 688 513 l 868 560 l 876 606 q 913 811 885 661 q 583 517 746 668 z "},"Ǽ":{"ha":1618,"x_min":-100,"x_max":1635,"o":"m 1619 978 q 1632 964 1635 978 q 1611 903 1631 954 q 1578 821 1592 853 l 1560 822 q 1556 856 1561 846 q 1533 867 1550 865 q 1083 897 1142 897 q 1058 892 1064 897 q 1049 871 1051 888 l 1021 708 q 1004 613 1013 661 q 986 513 996 564 q 1447 535 1382 515 l 1456 528 q 1406 444 1414 490 q 1393 432 1400 435 q 1364 429 1386 429 l 972 436 q 925 118 925 157 q 957 67 925 83 q 1061 51 989 51 q 1307 85 1175 51 q 1531 189 1439 118 q 1539 186 1535 189 q 1544 178 1543 183 q 1507 97 1531 165 q 1493 60 1494 61 q 1470 31 1485 40 q 1429 17 1456 22 q 1253 -9 1357 0 q 1060 -18 1149 -18 q 790 88 775 -18 q 846 438 803 196 l 596 442 l 506 443 q 228 165 346 292 q 69 -31 110 39 q 48 -82 53 -58 q 44 -137 43 -106 q 32 -150 39 -146 q 22 -151 25 -154 q -58 -101 -15 -139 q -100 -43 -100 -64 q -77 4 -100 -22 q 0 83 -54 31 q 659 714 449 517 q 954 968 869 911 q 992 989 976 983 q 1025 994 1007 994 q 1054 975 1039 979 q 1099 971 1069 971 l 1318 974 q 1619 978 1492 978 m 583 517 q 860 513 688 513 l 868 560 l 876 606 q 913 811 885 661 q 583 517 746 668 z "},"B":{"ha":1014,"x_min":50,"x_max":922,"o":"m 688 517 q 848 447 782 501 q 914 289 914 392 q 858 125 914 196 q 707 15 803 54 q 496 -24 611 -24 q 372 -11 431 -24 q 269 21 313 1 q 200 -4 253 -4 q 152 -1 178 -4 q 113 7 126 1 q 138 54 131 33 q 156 119 144 75 q 255 569 197 293 q 313 888 313 844 q 306 906 313 901 q 281 910 299 910 q 181 900 244 910 q 90 892 108 892 q 60 897 69 892 q 50 918 50 903 q 57 956 50 931 q 71 992 64 981 q 84 984 74 990 q 116 975 94 978 q 174 972 138 972 l 494 972 q 806 911 689 972 q 922 733 922 850 q 688 517 922 572 m 490 50 q 700 116 629 50 q 771 296 771 182 q 726 425 771 383 q 585 467 682 467 q 476 461 521 467 q 457 490 465 472 q 449 528 449 508 q 457 550 449 546 q 501 547 468 549 q 553 544 533 544 q 667 571 615 544 q 749 644 718 597 q 779 751 779 692 q 721 872 779 832 q 551 911 663 911 q 478 901 503 911 q 441 861 454 890 q 415 769 428 832 q 290 108 319 289 q 490 50 371 50 z "},"C":{"ha":1056,"x_min":92,"x_max":1003,"o":"m 482 -24 q 198 77 304 -24 q 92 369 92 178 q 168 676 92 532 q 380 908 244 821 q 681 994 515 994 q 880 959 789 994 q 1003 874 971 924 q 954 672 965 819 l 908 667 q 896 774 913 724 q 819 881 875 839 q 668 922 764 922 q 436 843 536 922 q 282 637 336 764 q 228 372 228 510 q 301 135 228 213 q 501 57 374 57 q 741 146 644 57 q 876 368 838 235 q 924 352 910 368 q 938 301 938 336 q 878 149 938 225 q 713 25 818 74 q 482 -24 608 -24 z "},"Ć":{"ha":1056,"x_min":92,"x_max":1003,"o":"m 482 -24 q 198 77 304 -24 q 92 369 92 178 q 168 676 92 532 q 380 908 244 821 q 681 994 515 994 q 880 959 789 994 q 1003 874 971 924 q 954 672 965 819 l 908 667 q 896 774 913 724 q 819 881 875 839 q 668 922 764 922 q 436 843 536 922 q 282 637 336 764 q 228 372 228 510 q 301 135 228 213 q 501 57 374 57 q 741 146 644 57 q 876 368 838 235 q 924 352 910 368 q 938 301 938 336 q 878 149 938 225 q 713 25 818 74 q 482 -24 608 -24 z "},"Č":{"ha":1056,"x_min":92,"x_max":1003,"o":"m 482 -24 q 198 77 304 -24 q 92 369 92 178 q 168 676 92 532 q 380 908 244 821 q 681 994 515 994 q 880 959 789 994 q 1003 874 971 924 q 954 672 965 819 l 908 667 q 896 774 913 724 q 819 881 875 839 q 668 922 764 922 q 436 843 536 922 q 282 637 336 764 q 228 372 228 510 q 301 135 228 213 q 501 57 374 57 q 741 146 644 57 q 876 368 838 235 q 924 352 910 368 q 938 301 938 336 q 878 149 938 225 q 713 25 818 74 q 482 -24 608 -24 z "},"Ç":{"ha":1056,"x_min":92,"x_max":1003,"o":"m 908 667 q 896 774 913 724 q 819 881 875 839 q 668 922 764 922 q 436 843 536 922 q 282 637 336 764 q 228 372 228 510 q 301 135 228 213 q 501 57 374 57 q 741 146 644 57 q 876 368 838 235 q 924 352 910 368 q 938 301 938 336 q 878 149 938 225 q 713 25 818 74 q 482 -24 608 -24 l 467 -24 q 439 -67 439 -46 q 447 -85 439 -78 q 471 -101 454 -92 q 509 -131 496 -117 q 522 -174 522 -146 q 497 -247 522 -211 q 428 -304 471 -282 q 342 -326 386 -326 q 294 -294 294 -326 q 404 -199 404 -267 q 398 -170 404 -182 q 381 -147 392 -158 q 365 -124 369 -133 q 360 -100 360 -115 q 403 -18 360 -61 q 175 102 258 4 q 92 369 92 200 q 168 676 92 532 q 380 908 244 821 q 681 994 515 994 q 880 959 789 994 q 1003 874 971 924 q 954 672 965 819 l 908 667 z "},"Ĉ":{"ha":1056,"x_min":92,"x_max":1003,"o":"m 482 -24 q 198 77 304 -24 q 92 369 92 178 q 168 676 92 532 q 380 908 244 821 q 681 994 515 994 q 880 959 789 994 q 1003 874 971 924 q 954 672 965 819 l 908 667 q 896 774 913 724 q 819 881 875 839 q 668 922 764 922 q 436 843 536 922 q 282 637 336 764 q 228 372 228 510 q 301 135 228 213 q 501 57 374 57 q 741 146 644 57 q 876 368 838 235 q 924 352 910 368 q 938 301 938 336 q 878 149 938 225 q 713 25 818 74 q 482 -24 608 -24 z "},"Ċ":{"ha":1056,"x_min":92,"x_max":1003,"o":"m 482 -24 q 198 77 304 -24 q 92 369 92 178 q 168 676 92 532 q 380 908 244 821 q 681 994 515 994 q 880 959 789 994 q 1003 874 971 924 q 954 672 965 819 l 908 667 q 896 774 913 724 q 819 881 875 839 q 668 922 764 922 q 436 843 536 922 q 282 637 336 764 q 228 372 228 510 q 301 135 228 213 q 501 57 374 57 q 741 146 644 57 q 876 368 838 235 q 924 352 910 368 q 938 301 938 336 q 878 149 938 225 q 713 25 818 74 q 482 -24 608 -24 z "},"D":{"ha":1153,"x_min":39,"x_max":1079,"o":"m 468 -18 q 308 -7 414 -18 q 183 4 228 1 q 156 9 165 6 q 126 25 147 13 q 147 56 140 44 q 158 89 153 68 q 239 501 174 149 q 304 879 304 853 q 299 891 304 886 q 285 896 294 896 q 217 885 278 896 q 89 867 121 867 q 39 903 39 867 q 47 941 39 918 q 61 976 54 964 q 102 967 81 969 q 169 964 124 964 q 394 974 261 964 q 590 982 536 982 q 956 880 833 982 q 1079 578 1079 778 q 1014 294 1079 431 q 811 69 949 157 q 468 -18 674 -18 m 497 56 q 734 130 633 56 q 888 326 835 204 q 942 586 942 447 q 851 837 942 757 q 564 917 761 917 q 488 911 511 917 q 456 894 464 906 q 443 860 449 883 q 317 208 418 736 q 308 165 314 197 q 301 118 301 133 q 307 101 301 107 q 326 88 313 94 q 403 65 357 74 q 497 56 450 56 z "},"Ð":{"ha":1153,"x_min":39,"x_max":1079,"o":"m 590 982 q 956 880 833 982 q 1079 578 1079 778 q 1014 294 1079 431 q 811 69 949 157 q 468 -18 674 -18 q 308 -7 414 -18 q 183 4 228 1 q 156 9 165 6 q 126 25 147 13 q 147 56 140 44 q 158 89 153 68 q 235 479 178 163 l 186 479 q 58 478 83 479 l 75 571 l 251 568 q 304 879 304 851 q 299 891 304 886 q 285 896 294 896 q 217 885 278 896 q 89 867 121 867 q 39 903 39 867 q 47 941 39 918 q 61 976 54 964 q 102 967 81 969 q 169 964 124 964 q 394 974 261 964 q 590 982 536 982 m 497 56 q 734 130 633 56 q 888 326 835 204 q 942 586 942 447 q 851 837 942 757 q 564 917 761 917 q 488 911 511 917 q 456 894 464 906 q 443 860 449 883 q 386 567 421 751 l 508 565 l 601 567 l 586 476 q 439 479 522 479 l 369 479 l 317 208 q 308 165 314 197 q 301 118 301 133 q 307 101 301 107 q 326 88 313 94 q 403 65 357 74 q 497 56 450 56 z "},"Ď":{"ha":1153,"x_min":39,"x_max":1079,"o":"m 468 -18 q 308 -7 414 -18 q 183 4 228 1 q 156 9 165 6 q 126 25 147 13 q 147 56 140 44 q 158 89 153 68 q 239 501 174 149 q 304 879 304 853 q 299 891 304 886 q 285 896 294 896 q 217 885 278 896 q 89 867 121 867 q 39 903 39 867 q 47 941 39 918 q 61 976 54 964 q 102 967 81 969 q 169 964 124 964 q 394 974 261 964 q 590 982 536 982 q 956 880 833 982 q 1079 578 1079 778 q 1014 294 1079 431 q 811 69 949 157 q 468 -18 674 -18 m 497 56 q 734 130 633 56 q 888 326 835 204 q 942 586 942 447 q 851 837 942 757 q 564 917 761 917 q 488 911 511 917 q 456 894 464 906 q 443 860 449 883 q 317 208 418 736 q 308 165 314 197 q 301 118 301 133 q 307 101 301 107 q 326 88 313 94 q 403 65 357 74 q 497 56 450 56 z "},"Đ":{"ha":1153,"x_min":39,"x_max":1079,"o":"m 590 982 q 956 880 833 982 q 1079 578 1079 778 q 1014 294 1079 431 q 811 69 949 157 q 468 -18 674 -18 q 308 -7 414 -18 q 183 4 228 1 q 156 9 165 6 q 126 25 147 13 q 147 56 140 44 q 158 89 153 68 q 235 479 178 163 l 188 479 q 60 478 85 479 l 76 571 l 251 568 q 304 879 304 851 q 299 891 304 886 q 285 896 294 896 q 217 885 278 896 q 89 867 121 867 q 39 903 39 867 q 47 941 39 918 q 61 976 54 964 q 102 967 81 969 q 169 964 124 964 q 394 974 261 964 q 590 982 536 982 m 497 56 q 734 130 633 56 q 888 326 835 204 q 942 586 942 447 q 851 837 942 757 q 564 917 761 917 q 488 911 511 917 q 456 894 464 906 q 443 860 449 883 q 386 567 421 751 l 510 565 l 603 567 l 588 476 q 439 479 524 479 l 369 479 l 317 208 q 308 165 314 197 q 301 118 301 133 q 307 101 301 107 q 326 88 313 94 q 403 65 357 74 q 497 56 450 56 z "},"Ḍ":{"ha":1153,"x_min":39,"x_max":1079,"o":"m 468 -18 q 308 -7 414 -18 q 183 4 228 1 q 156 9 165 6 q 126 25 147 13 q 147 56 140 44 q 158 89 153 68 q 239 501 174 149 q 304 879 304 853 q 299 891 304 886 q 285 896 294 896 q 217 885 278 896 q 89 867 121 867 q 39 903 39 867 q 47 941 39 918 q 61 976 54 964 q 102 967 81 969 q 169 964 124 964 q 394 974 261 964 q 590 982 536 982 q 956 880 833 982 q 1079 578 1079 778 q 1014 294 1079 431 q 811 69 949 157 q 468 -18 674 -18 m 497 56 q 734 130 633 56 q 888 326 835 204 q 942 586 942 447 q 851 837 942 757 q 564 917 761 917 q 488 911 511 917 q 456 894 464 906 q 443 860 449 883 q 317 208 418 736 q 308 165 314 197 q 301 118 301 133 q 307 101 301 107 q 326 88 313 94 q 403 65 357 74 q 497 56 450 56 z "},"Ḏ":{"ha":1153,"x_min":39,"x_max":1079,"o":"m 468 -18 q 308 -7 414 -18 q 183 4 228 1 q 156 9 165 6 q 126 25 147 13 q 147 56 140 44 q 158 89 153 68 q 239 501 174 149 q 304 879 304 853 q 299 891 304 886 q 285 896 294 896 q 217 885 278 896 q 89 867 121 867 q 39 903 39 867 q 47 941 39 918 q 61 976 54 964 q 102 967 81 969 q 169 964 124 964 q 394 974 261 964 q 590 982 536 982 q 956 880 833 982 q 1079 578 1079 778 q 1014 294 1079 431 q 811 69 949 157 q 468 -18 674 -18 m 497 56 q 734 130 633 56 q 888 326 835 204 q 942 586 942 447 q 851 837 942 757 q 564 917 761 917 q 488 911 511 917 q 456 894 464 906 q 443 860 449 883 q 317 208 418 736 q 308 165 314 197 q 301 118 301 133 q 307 101 301 107 q 326 88 313 94 q 403 65 357 74 q 497 56 450 56 m 718 -193 q 535 -190 681 -190 l 318 -190 q 190 -192 215 -190 l 224 -99 l 344 -100 q 656 -104 624 -104 q 749 -103 725 -104 l 718 -193 z "},"E":{"ha":989,"x_min":97,"x_max":964,"o":"m 936 975 q 952 969 944 975 q 964 954 960 963 q 919 824 922 849 l 906 821 q 892 855 900 843 q 861 869 883 867 q 489 904 599 904 q 450 900 458 904 q 435 881 442 896 q 350 563 411 822 l 494 563 q 706 567 642 563 q 819 588 769 572 l 826 581 q 813 531 815 550 q 807 503 810 513 q 797 482 803 486 q 775 478 790 478 q 333 483 661 478 q 278 147 278 224 q 309 80 278 96 q 422 64 340 64 q 683 92 554 64 q 886 192 811 121 q 896 185 896 189 q 884 161 888 171 q 876 128 881 151 q 853 52 867 76 q 804 21 839 28 q 612 -9 697 0 q 425 -18 526 -18 q 263 -6 322 -18 q 176 38 204 6 q 147 132 147 69 q 210 485 147 224 l 190 485 q 175 496 172 485 q 193 535 176 508 q 221 563 210 563 l 228 563 q 274 768 260 697 q 289 872 289 839 q 281 897 289 892 q 244 901 272 901 q 101 879 174 901 l 97 881 q 106 936 99 900 q 121 983 114 972 q 385 974 251 974 l 936 975 z "},"É":{"ha":989,"x_min":97,"x_max":967,"o":"m 936 975 q 952 969 944 975 q 964 954 960 963 q 919 824 922 849 l 906 821 q 892 855 900 843 q 861 869 883 867 q 489 904 599 904 q 450 900 458 904 q 435 881 442 896 q 350 563 411 822 l 494 563 q 706 567 642 563 q 819 588 769 572 l 826 581 q 813 531 815 550 q 807 503 810 513 q 797 482 803 486 q 775 478 790 478 q 333 483 661 478 q 278 147 278 224 q 309 80 278 96 q 422 64 340 64 q 683 92 554 64 q 886 192 811 121 q 896 185 896 189 q 884 161 888 171 q 876 128 881 151 q 853 52 867 76 q 804 21 839 28 q 612 -9 697 0 q 425 -18 526 -18 q 263 -6 322 -18 q 176 38 204 6 q 147 132 147 69 q 210 485 147 224 l 190 485 q 175 496 172 485 q 193 535 176 508 q 221 563 210 563 l 228 563 q 274 768 260 697 q 289 872 289 839 q 281 897 289 892 q 244 901 272 901 q 101 879 174 901 l 97 881 q 106 936 99 900 q 121 983 114 972 q 385 974 251 974 l 936 975 z "},"Ĕ":{"ha":989,"x_min":97,"x_max":964,"o":"m 936 975 q 952 969 944 975 q 964 954 960 963 q 919 824 922 849 l 906 821 q 892 855 900 843 q 861 869 883 867 q 489 904 599 904 q 450 900 458 904 q 435 881 442 896 q 350 563 411 822 l 494 563 q 706 567 642 563 q 819 588 769 572 l 826 581 q 813 531 815 550 q 807 503 810 513 q 797 482 803 486 q 775 478 790 478 q 333 483 661 478 q 278 147 278 224 q 309 80 278 96 q 422 64 340 64 q 683 92 554 64 q 886 192 811 121 q 896 185 896 189 q 884 161 888 171 q 876 128 881 151 q 853 52 867 76 q 804 21 839 28 q 612 -9 697 0 q 425 -18 526 -18 q 263 -6 322 -18 q 176 38 204 6 q 147 132 147 69 q 210 485 147 224 l 190 485 q 175 496 172 485 q 193 535 176 508 q 221 563 210 563 l 228 563 q 274 768 260 697 q 289 872 289 839 q 281 897 289 892 q 244 901 272 901 q 101 879 174 901 l 97 881 q 106 936 99 900 q 121 983 114 972 q 385 974 251 974 l 936 975 z "},"Ě":{"ha":989,"x_min":97,"x_max":964,"o":"m 936 975 q 952 969 944 975 q 964 954 960 963 q 919 824 922 849 l 906 821 q 892 855 900 843 q 861 869 883 867 q 489 904 599 904 q 450 900 458 904 q 435 881 442 896 q 350 563 411 822 l 494 563 q 706 567 642 563 q 819 588 769 572 l 826 581 q 813 531 815 550 q 807 503 810 513 q 797 482 803 486 q 775 478 790 478 q 333 483 661 478 q 278 147 278 224 q 309 80 278 96 q 422 64 340 64 q 683 92 554 64 q 886 192 811 121 q 896 185 896 189 q 884 161 888 171 q 876 128 881 151 q 853 52 867 76 q 804 21 839 28 q 612 -9 697 0 q 425 -18 526 -18 q 263 -6 322 -18 q 176 38 204 6 q 147 132 147 69 q 210 485 147 224 l 190 485 q 175 496 172 485 q 193 535 176 508 q 221 563 210 563 l 228 563 q 274 768 260 697 q 289 872 289 839 q 281 897 289 892 q 244 901 272 901 q 101 879 174 901 l 97 881 q 106 936 99 900 q 121 983 114 972 q 385 974 251 974 l 936 975 z "},"Ê":{"ha":989,"x_min":97,"x_max":964,"o":"m 936 975 q 952 969 944 975 q 964 954 960 963 q 919 824 922 849 l 906 821 q 892 855 900 843 q 861 869 883 867 q 489 904 599 904 q 450 900 458 904 q 435 881 442 896 q 350 563 411 822 l 494 563 q 706 567 642 563 q 819 588 769 572 l 826 581 q 813 531 815 550 q 807 503 810 513 q 797 482 803 486 q 775 478 790 478 q 333 483 661 478 q 278 147 278 224 q 309 80 278 96 q 422 64 340 64 q 683 92 554 64 q 886 192 811 121 q 896 185 896 189 q 884 161 888 171 q 876 128 881 151 q 853 52 867 76 q 804 21 839 28 q 612 -9 697 0 q 425 -18 526 -18 q 263 -6 322 -18 q 176 38 204 6 q 147 132 147 69 q 210 485 147 224 l 190 485 q 175 496 172 485 q 193 535 176 508 q 221 563 210 563 l 228 563 q 274 768 260 697 q 289 872 289 839 q 281 897 289 892 q 244 901 272 901 q 101 879 174 901 l 97 881 q 106 936 99 900 q 121 983 114 972 q 385 974 251 974 l 936 975 z "},"Ế":{"ha":989,"x_min":97,"x_max":1119,"o":"m 936 975 q 952 969 944 975 q 964 954 960 963 q 919 824 922 849 l 906 821 q 892 855 900 843 q 861 869 883 867 q 489 904 599 904 q 450 900 458 904 q 435 881 442 896 q 350 563 411 822 l 494 563 q 706 567 642 563 q 819 588 769 572 l 826 581 q 813 531 815 550 q 807 503 810 513 q 797 482 803 486 q 775 478 790 478 q 333 483 661 478 q 278 147 278 224 q 309 80 278 96 q 422 64 340 64 q 683 92 554 64 q 886 192 811 121 q 896 185 896 189 q 884 161 888 171 q 876 128 881 151 q 853 52 867 76 q 804 21 839 28 q 612 -9 697 0 q 425 -18 526 -18 q 263 -6 322 -18 q 176 38 204 6 q 147 132 147 69 q 210 485 147 224 l 190 485 q 175 496 172 485 q 193 535 176 508 q 221 563 210 563 l 228 563 q 274 768 260 697 q 289 872 289 839 q 281 897 289 892 q 244 901 272 901 q 101 879 174 901 l 97 881 q 106 936 99 900 q 121 983 114 972 q 385 974 251 974 l 936 975 m 1042 1518 q 1088 1503 1057 1518 q 1119 1478 1119 1489 q 1103 1457 1119 1472 l 918 1310 q 890 1288 897 1294 q 871 1281 882 1281 q 846 1294 860 1281 q 944 1405 911 1365 q 1024 1507 976 1444 q 1042 1518 1032 1518 m 718 1376 q 760 1356 747 1376 q 817 1226 779 1325 q 854 1104 854 1128 q 826 1072 854 1088 q 775 1056 799 1056 q 703 1271 736 1193 q 561 1083 617 1168 q 518 1101 536 1086 q 501 1133 500 1115 q 514 1163 503 1146 q 668 1349 565 1246 q 694 1372 686 1367 q 718 1376 703 1376 z "},"Ệ":{"ha":989,"x_min":97,"x_max":964,"o":"m 936 975 q 952 969 944 975 q 964 954 960 963 q 919 824 922 849 l 906 821 q 892 855 900 843 q 861 869 883 867 q 489 904 599 904 q 450 900 458 904 q 435 881 442 896 q 350 563 411 822 l 494 563 q 706 567 642 563 q 819 588 769 572 l 826 581 q 813 531 815 550 q 807 503 810 513 q 797 482 803 486 q 775 478 790 478 q 333 483 661 478 q 278 147 278 224 q 309 80 278 96 q 422 64 340 64 q 683 92 554 64 q 886 192 811 121 q 896 185 896 189 q 884 161 888 171 q 876 128 881 151 q 853 52 867 76 q 804 21 839 28 q 612 -9 697 0 q 425 -18 526 -18 q 263 -6 322 -18 q 176 38 204 6 q 147 132 147 69 q 210 485 147 224 l 190 485 q 175 496 172 485 q 193 535 176 508 q 221 563 210 563 l 228 563 q 274 768 260 697 q 289 872 289 839 q 281 897 289 892 q 244 901 272 901 q 101 879 174 901 l 97 881 q 106 936 99 900 q 121 983 114 972 q 385 974 251 974 l 936 975 z "},"Ề":{"ha":989,"x_min":97,"x_max":964,"o":"m 936 975 q 952 969 944 975 q 964 954 960 963 q 919 824 922 849 l 906 821 q 892 855 900 843 q 861 869 883 867 q 489 904 599 904 q 450 900 458 904 q 435 881 442 896 q 350 563 411 822 l 494 563 q 706 567 642 563 q 819 588 769 572 l 826 581 q 813 531 815 550 q 807 503 810 513 q 797 482 803 486 q 775 478 790 478 q 333 483 661 478 q 278 147 278 224 q 309 80 278 96 q 422 64 340 64 q 683 92 554 64 q 886 192 811 121 q 896 185 896 189 q 884 161 888 171 q 876 128 881 151 q 853 52 867 76 q 804 21 839 28 q 612 -9 697 0 q 425 -18 526 -18 q 263 -6 322 -18 q 176 38 204 6 q 147 132 147 69 q 210 485 147 224 l 190 485 q 175 496 172 485 q 193 535 176 508 q 221 563 210 563 l 228 563 q 274 768 260 697 q 289 872 289 839 q 281 897 289 892 q 244 901 272 901 q 101 879 174 901 l 97 881 q 106 936 99 900 q 121 983 114 972 q 385 974 251 974 l 936 975 m 825 1564 q 889 1436 864 1485 q 953 1324 914 1388 q 924 1308 942 1308 q 900 1319 911 1308 q 824 1405 876 1339 q 749 1508 771 1471 q 779 1551 758 1531 q 815 1572 800 1572 q 825 1564 822 1572 m 718 1376 q 760 1356 747 1376 q 817 1226 779 1325 q 854 1104 854 1128 q 826 1072 854 1088 q 775 1056 799 1056 q 703 1271 736 1193 q 561 1083 617 1168 q 518 1101 536 1086 q 501 1133 500 1115 q 514 1163 503 1146 q 668 1349 565 1246 q 694 1372 686 1367 q 718 1376 703 1376 z "},"Ể":{"ha":989,"x_min":97,"x_max":1047,"o":"m 936 975 q 952 969 944 975 q 964 954 960 963 q 919 824 922 849 l 906 821 q 892 855 900 843 q 861 869 883 867 q 489 904 599 904 q 450 900 458 904 q 435 881 442 896 q 350 563 411 822 l 494 563 q 706 567 642 563 q 819 588 769 572 l 826 581 q 813 531 815 550 q 807 503 810 513 q 797 482 803 486 q 775 478 790 478 q 333 483 661 478 q 278 147 278 224 q 309 80 278 96 q 422 64 340 64 q 683 92 554 64 q 886 192 811 121 q 896 185 896 189 q 884 161 888 171 q 876 128 881 151 q 853 52 867 76 q 804 21 839 28 q 612 -9 697 0 q 425 -18 526 -18 q 263 -6 322 -18 q 176 38 204 6 q 147 132 147 69 q 210 485 147 224 l 190 485 q 175 496 172 485 q 193 535 176 508 q 221 563 210 563 l 228 563 q 274 768 260 697 q 289 872 289 839 q 281 897 289 892 q 244 901 272 901 q 101 879 174 901 l 97 881 q 106 936 99 900 q 121 983 114 972 q 385 974 251 974 l 936 975 z "},"Ễ":{"ha":989,"x_min":97,"x_max":976,"o":"m 936 975 q 952 969 944 975 q 964 954 960 963 q 919 824 922 849 l 906 821 q 892 855 900 843 q 861 869 883 867 q 489 904 599 904 q 450 900 458 904 q 435 881 442 896 q 350 563 411 822 l 494 563 q 706 567 642 563 q 819 588 769 572 l 826 581 q 813 531 815 550 q 807 503 810 513 q 797 482 803 486 q 775 478 790 478 q 333 483 661 478 q 278 147 278 224 q 309 80 278 96 q 422 64 340 64 q 683 92 554 64 q 886 192 811 121 q 896 185 896 189 q 884 161 888 171 q 876 128 881 151 q 853 52 867 76 q 804 21 839 28 q 612 -9 697 0 q 425 -18 526 -18 q 263 -6 322 -18 q 176 38 204 6 q 147 132 147 69 q 210 485 147 224 l 190 485 q 175 496 172 485 q 193 535 176 508 q 221 563 210 563 l 228 563 q 274 768 260 697 q 289 872 289 839 q 281 897 289 892 q 244 901 272 901 q 101 879 174 901 l 97 881 q 106 936 99 900 q 121 983 114 972 q 385 974 251 974 l 936 975 z "},"Ë":{"ha":989,"x_min":97,"x_max":964,"o":"m 936 975 q 952 969 944 975 q 964 954 960 963 q 919 824 922 849 l 906 821 q 892 855 900 843 q 861 869 883 867 q 489 904 599 904 q 450 900 458 904 q 435 881 442 896 q 350 563 411 822 l 494 563 q 706 567 642 563 q 819 588 769 572 l 826 581 q 813 531 815 550 q 807 503 810 513 q 797 482 803 486 q 775 478 790 478 q 333 483 661 478 q 278 147 278 224 q 309 80 278 96 q 422 64 340 64 q 683 92 554 64 q 886 192 811 121 q 896 185 896 189 q 884 161 888 171 q 876 128 881 151 q 853 52 867 76 q 804 21 839 28 q 612 -9 697 0 q 425 -18 526 -18 q 263 -6 322 -18 q 176 38 204 6 q 147 132 147 69 q 210 485 147 224 l 190 485 q 175 496 172 485 q 193 535 176 508 q 221 563 210 563 l 228 563 q 274 768 260 697 q 289 872 289 839 q 281 897 289 892 q 244 901 272 901 q 101 879 174 901 l 97 881 q 106 936 99 900 q 121 983 114 972 q 385 974 251 974 l 936 975 z "},"Ė":{"ha":989,"x_min":97,"x_max":964,"o":"m 936 975 q 952 969 944 975 q 964 954 960 963 q 919 824 922 849 l 906 821 q 892 855 900 843 q 861 869 883 867 q 489 904 599 904 q 450 900 458 904 q 435 881 442 896 q 350 563 411 822 l 494 563 q 706 567 642 563 q 819 588 769 572 l 826 581 q 813 531 815 550 q 807 503 810 513 q 797 482 803 486 q 775 478 790 478 q 333 483 661 478 q 278 147 278 224 q 309 80 278 96 q 422 64 340 64 q 683 92 554 64 q 886 192 811 121 q 896 185 896 189 q 884 161 888 171 q 876 128 881 151 q 853 52 867 76 q 804 21 839 28 q 612 -9 697 0 q 425 -18 526 -18 q 263 -6 322 -18 q 176 38 204 6 q 147 132 147 69 q 210 485 147 224 l 190 485 q 175 496 172 485 q 193 535 176 508 q 221 563 210 563 l 228 563 q 274 768 260 697 q 289 872 289 839 q 281 897 289 892 q 244 901 272 901 q 101 879 174 901 l 97 881 q 106 936 99 900 q 121 983 114 972 q 385 974 251 974 l 936 975 z "},"Ẹ":{"ha":989,"x_min":97,"x_max":964,"o":"m 936 975 q 952 969 944 975 q 964 954 960 963 q 919 824 922 849 l 906 821 q 892 855 900 843 q 861 869 883 867 q 489 904 599 904 q 450 900 458 904 q 435 881 442 896 q 350 563 411 822 l 494 563 q 706 567 642 563 q 819 588 769 572 l 826 581 q 813 531 815 550 q 807 503 810 513 q 797 482 803 486 q 775 478 790 478 q 333 483 661 478 q 278 147 278 224 q 309 80 278 96 q 422 64 340 64 q 683 92 554 64 q 886 192 811 121 q 896 185 896 189 q 884 161 888 171 q 876 128 881 151 q 853 52 867 76 q 804 21 839 28 q 612 -9 697 0 q 425 -18 526 -18 q 263 -6 322 -18 q 176 38 204 6 q 147 132 147 69 q 210 485 147 224 l 190 485 q 175 496 172 485 q 193 535 176 508 q 221 563 210 563 l 228 563 q 274 768 260 697 q 289 872 289 839 q 281 897 289 892 q 244 901 272 901 q 101 879 174 901 l 97 881 q 106 936 99 900 q 121 983 114 972 q 385 974 251 974 l 936 975 z "},"È":{"ha":989,"x_min":97,"x_max":964,"o":"m 936 975 q 952 969 944 975 q 964 954 960 963 q 919 824 922 849 l 906 821 q 892 855 900 843 q 861 869 883 867 q 489 904 599 904 q 450 900 458 904 q 435 881 442 896 q 350 563 411 822 l 494 563 q 706 567 642 563 q 819 588 769 572 l 826 581 q 813 531 815 550 q 807 503 810 513 q 797 482 803 486 q 775 478 790 478 q 333 483 661 478 q 278 147 278 224 q 309 80 278 96 q 422 64 340 64 q 683 92 554 64 q 886 192 811 121 q 896 185 896 189 q 884 161 888 171 q 876 128 881 151 q 853 52 867 76 q 804 21 839 28 q 612 -9 697 0 q 425 -18 526 -18 q 263 -6 322 -18 q 176 38 204 6 q 147 132 147 69 q 210 485 147 224 l 190 485 q 175 496 172 485 q 193 535 176 508 q 221 563 210 563 l 228 563 q 274 768 260 697 q 289 872 289 839 q 281 897 289 892 q 244 901 272 901 q 101 879 174 901 l 97 881 q 106 936 99 900 q 121 983 114 972 q 385 974 251 974 l 936 975 z "},"Ẻ":{"ha":989,"x_min":97,"x_max":964,"o":"m 936 975 q 952 969 944 975 q 964 954 960 963 q 919 824 922 849 l 906 821 q 892 855 900 843 q 861 869 883 867 q 489 904 599 904 q 450 900 458 904 q 435 881 442 896 q 350 563 411 822 l 494 563 q 706 567 642 563 q 819 588 769 572 l 826 581 q 813 531 815 550 q 807 503 810 513 q 797 482 803 486 q 775 478 790 478 q 333 483 661 478 q 278 147 278 224 q 309 80 278 96 q 422 64 340 64 q 683 92 554 64 q 886 192 811 121 q 896 185 896 189 q 884 161 888 171 q 876 128 881 151 q 853 52 867 76 q 804 21 839 28 q 612 -9 697 0 q 425 -18 526 -18 q 263 -6 322 -18 q 176 38 204 6 q 147 132 147 69 q 210 485 147 224 l 190 485 q 175 496 172 485 q 193 535 176 508 q 221 563 210 563 l 228 563 q 274 768 260 697 q 289 872 289 839 q 281 897 289 892 q 244 901 272 901 q 101 879 174 901 l 97 881 q 106 936 99 900 q 121 983 114 972 q 385 974 251 974 l 936 975 m 614 1042 q 589 1064 585 1042 q 660 1133 629 1090 q 690 1210 690 1176 q 644 1246 690 1246 q 592 1240 619 1246 q 618 1288 597 1271 q 703 1313 649 1313 q 777 1291 751 1313 q 803 1231 803 1269 q 772 1142 803 1186 q 696 1070 740 1099 q 614 1042 651 1042 z "},"Ē":{"ha":989,"x_min":97,"x_max":964,"o":"m 936 975 q 952 969 944 975 q 964 954 960 963 q 919 824 922 849 l 906 821 q 892 855 900 843 q 861 869 883 867 q 489 904 599 904 q 450 900 458 904 q 435 881 442 896 q 350 563 411 822 l 494 563 q 706 567 642 563 q 819 588 769 572 l 826 581 q 813 531 815 550 q 807 503 810 513 q 797 482 803 486 q 775 478 790 478 q 333 483 661 478 q 278 147 278 224 q 309 80 278 96 q 422 64 340 64 q 683 92 554 64 q 886 192 811 121 q 896 185 896 189 q 884 161 888 171 q 876 128 881 151 q 853 52 867 76 q 804 21 839 28 q 612 -9 697 0 q 425 -18 526 -18 q 263 -6 322 -18 q 176 38 204 6 q 147 132 147 69 q 210 485 147 224 l 190 485 q 175 496 172 485 q 193 535 176 508 q 221 563 210 563 l 228 563 q 274 768 260 697 q 289 872 289 839 q 281 897 289 892 q 244 901 272 901 q 101 879 174 901 l 97 881 q 106 936 99 900 q 121 983 114 972 q 385 974 251 974 l 936 975 z "},"Ę":{"ha":989,"x_min":97,"x_max":964,"o":"m 936 975 q 952 969 944 975 q 964 954 960 963 q 919 824 922 849 l 906 821 q 892 855 900 843 q 861 869 883 867 q 489 904 599 904 q 450 900 458 904 q 435 881 442 896 q 350 563 411 822 l 494 563 q 706 567 642 563 q 819 588 769 572 l 826 581 q 813 531 815 550 q 807 503 810 513 q 797 482 803 486 q 775 478 790 478 q 333 483 661 478 q 278 147 278 224 q 309 80 278 96 q 422 64 340 64 q 683 92 554 64 q 886 192 811 121 q 896 185 896 189 q 884 161 888 171 q 876 128 881 151 q 853 52 867 76 q 804 21 839 28 l 796 19 q 718 -42 743 -11 q 693 -115 693 -74 q 703 -153 693 -140 q 740 -167 714 -167 q 792 -161 764 -167 q 794 -176 794 -169 q 767 -217 794 -201 q 694 -233 739 -233 q 613 -210 643 -233 q 582 -142 582 -186 q 603 -68 582 -104 q 658 -3 624 -32 q 425 -18 556 -18 q 263 -6 322 -18 q 176 38 204 6 q 147 132 147 69 q 210 485 147 224 l 190 485 q 175 496 172 485 q 193 535 176 508 q 221 563 210 563 l 228 563 q 274 768 260 697 q 289 872 289 839 q 281 897 289 892 q 244 901 272 901 q 101 879 174 901 l 97 881 q 106 936 99 900 q 121 983 114 972 q 385 974 251 974 l 936 975 z "},"Ẽ":{"ha":989,"x_min":97,"x_max":964,"o":"m 936 975 q 952 969 944 975 q 964 954 960 963 q 919 824 922 849 l 906 821 q 892 855 900 843 q 861 869 883 867 q 489 904 599 904 q 450 900 458 904 q 435 881 442 896 q 350 563 411 822 l 494 563 q 706 567 642 563 q 819 588 769 572 l 826 581 q 813 531 815 550 q 807 503 810 513 q 797 482 803 486 q 775 478 790 478 q 333 483 661 478 q 278 147 278 224 q 309 80 278 96 q 422 64 340 64 q 683 92 554 64 q 886 192 811 121 q 896 185 896 189 q 884 161 888 171 q 876 128 881 151 q 853 52 867 76 q 804 21 839 28 q 612 -9 697 0 q 425 -18 526 -18 q 263 -6 322 -18 q 176 38 204 6 q 147 132 147 69 q 210 485 147 224 l 190 485 q 175 496 172 485 q 193 535 176 508 q 221 563 210 563 l 228 563 q 274 768 260 697 q 289 872 289 839 q 281 897 289 892 q 244 901 272 901 q 101 879 174 901 l 97 881 q 106 936 99 900 q 121 983 114 972 q 385 974 251 974 l 936 975 z "},"F":{"ha":806,"x_min":74,"x_max":844,"o":"m 832 1003 q 844 994 839 1003 q 829 950 838 986 q 818 892 821 914 q 797 868 814 868 q 578 882 739 868 q 490 888 543 885 q 415 892 436 892 q 381 885 390 892 q 367 860 371 879 q 301 521 339 721 q 439 517 360 517 q 735 550 624 517 l 742 544 q 725 497 733 531 q 714 442 717 463 l 510 446 q 288 451 471 447 q 217 44 217 78 q 218 17 217 22 q 131 -3 176 -3 q 74 28 74 -3 q 92 133 74 43 q 126 303 101 186 q 188 609 138 356 q 239 892 239 863 q 233 903 239 900 q 214 906 228 906 l 157 903 l 121 901 q 100 915 100 901 q 122 982 100 929 q 489 972 283 972 q 727 978 657 972 q 832 1003 797 985 z "},"G":{"ha":1104,"x_min":65,"x_max":1069,"o":"m 638 468 q 1047 503 946 468 q 1054 472 1050 497 q 1058 436 1058 447 q 1009 415 1021 426 q 990 372 997 403 q 890 -33 938 132 q 769 -314 842 -197 q 603 -490 713 -406 q 319 -575 493 -575 q 200 -560 251 -575 q 119 -526 149 -546 q 82 -490 90 -506 l 65 -457 q 164 -489 93 -475 q 299 -503 235 -503 q 626 -352 496 -503 q 825 104 756 -201 q 514 -29 713 -29 q 304 17 396 -29 q 161 156 213 64 q 110 381 110 249 q 188 684 110 544 q 406 907 267 824 q 719 990 544 990 q 914 963 819 990 q 1069 888 1008 935 q 1018 679 1036 796 q 998 677 1010 679 q 981 672 986 675 q 978 716 981 679 q 972 771 975 753 q 882 881 958 849 q 711 913 806 913 q 451 835 556 913 q 295 635 346 757 q 244 379 244 514 q 317 135 244 222 q 535 47 389 47 q 709 86 633 47 q 826 192 785 125 q 868 340 868 260 q 856 395 868 382 q 813 408 843 408 q 624 390 746 408 q 628 432 624 407 q 638 468 632 457 z "},"Ğ":{"ha":1104,"x_min":65,"x_max":1069,"o":"m 638 468 q 1047 503 946 468 q 1054 472 1050 497 q 1058 436 1058 447 q 1009 415 1021 426 q 990 372 997 403 q 890 -33 938 132 q 769 -314 842 -197 q 603 -490 713 -406 q 319 -575 493 -575 q 200 -560 251 -575 q 119 -526 149 -546 q 82 -490 90 -506 l 65 -457 q 164 -489 93 -475 q 299 -503 235 -503 q 626 -352 496 -503 q 825 104 756 -201 q 514 -29 713 -29 q 304 17 396 -29 q 161 156 213 64 q 110 381 110 249 q 188 684 110 544 q 406 907 267 824 q 719 990 544 990 q 914 963 819 990 q 1069 888 1008 935 q 1018 679 1036 796 q 998 677 1010 679 q 981 672 986 675 q 978 716 981 679 q 972 771 975 753 q 882 881 958 849 q 711 913 806 913 q 451 835 556 913 q 295 635 346 757 q 244 379 244 514 q 317 135 244 222 q 535 47 389 47 q 709 86 633 47 q 826 192 785 125 q 868 340 868 260 q 856 395 868 382 q 813 408 843 408 q 624 390 746 408 q 628 432 624 407 q 638 468 632 457 z "},"Ǧ":{"ha":1104,"x_min":65,"x_max":1069,"o":"m 638 468 q 1047 503 946 468 q 1054 472 1050 497 q 1058 436 1058 447 q 1009 415 1021 426 q 990 372 997 403 q 890 -33 938 132 q 769 -314 842 -197 q 603 -490 713 -406 q 319 -575 493 -575 q 200 -560 251 -575 q 119 -526 149 -546 q 82 -490 90 -506 l 65 -457 q 164 -489 93 -475 q 299 -503 235 -503 q 626 -352 496 -503 q 825 104 756 -201 q 514 -29 713 -29 q 304 17 396 -29 q 161 156 213 64 q 110 381 110 249 q 188 684 110 544 q 406 907 267 824 q 719 990 544 990 q 914 963 819 990 q 1069 888 1008 935 q 1018 679 1036 796 q 998 677 1010 679 q 981 672 986 675 q 978 716 981 679 q 972 771 975 753 q 882 881 958 849 q 711 913 806 913 q 451 835 556 913 q 295 635 346 757 q 244 379 244 514 q 317 135 244 222 q 535 47 389 47 q 709 86 633 47 q 826 192 785 125 q 868 340 868 260 q 856 395 868 382 q 813 408 843 408 q 624 390 746 408 q 628 432 624 407 q 638 468 632 457 z "},"Ĝ":{"ha":1104,"x_min":65,"x_max":1069,"o":"m 638 468 q 1047 503 946 468 q 1054 472 1050 497 q 1058 436 1058 447 q 1009 415 1021 426 q 990 372 997 403 q 890 -33 938 132 q 769 -314 842 -197 q 603 -490 713 -406 q 319 -575 493 -575 q 200 -560 251 -575 q 119 -526 149 -546 q 82 -490 90 -506 l 65 -457 q 164 -489 93 -475 q 299 -503 235 -503 q 626 -352 496 -503 q 825 104 756 -201 q 514 -29 713 -29 q 304 17 396 -29 q 161 156 213 64 q 110 381 110 249 q 188 684 110 544 q 406 907 267 824 q 719 990 544 990 q 914 963 819 990 q 1069 888 1008 935 q 1018 679 1036 796 q 998 677 1010 679 q 981 672 986 675 q 978 716 981 679 q 972 771 975 753 q 882 881 958 849 q 711 913 806 913 q 451 835 556 913 q 295 635 346 757 q 244 379 244 514 q 317 135 244 222 q 535 47 389 47 q 709 86 633 47 q 826 192 785 125 q 868 340 868 260 q 856 395 868 382 q 813 408 843 408 q 624 390 746 408 q 628 432 624 407 q 638 468 632 457 z "},"Ģ":{"ha":1104,"x_min":65,"x_max":1069,"o":"m 638 468 q 1047 503 946 468 q 1054 472 1050 497 q 1058 436 1058 447 q 1009 415 1021 426 q 990 372 997 403 q 890 -33 938 132 q 769 -314 842 -197 q 603 -490 713 -406 q 319 -575 493 -575 q 200 -560 251 -575 q 119 -526 149 -546 q 82 -490 90 -506 l 65 -457 q 164 -489 93 -475 q 299 -503 235 -503 q 626 -352 496 -503 q 825 104 756 -201 q 514 -29 713 -29 q 304 17 396 -29 q 161 156 213 64 q 110 381 110 249 q 188 684 110 544 q 406 907 267 824 q 719 990 544 990 q 914 963 819 990 q 1069 888 1008 935 q 1018 679 1036 796 q 998 677 1010 679 q 981 672 986 675 q 978 716 981 679 q 972 771 975 753 q 882 881 958 849 q 711 913 806 913 q 451 835 556 913 q 295 635 346 757 q 244 379 244 514 q 317 135 244 222 q 535 47 389 47 q 709 86 633 47 q 826 192 785 125 q 868 340 868 260 q 856 395 868 382 q 813 408 843 408 q 624 390 746 408 q 628 432 624 407 q 638 468 632 457 m 392 -397 q 364 -382 371 -397 q 434 -304 407 -354 q 461 -210 461 -254 q 431 -135 461 -162 q 514 -93 465 -93 q 563 -112 546 -93 q 579 -167 579 -131 q 545 -274 579 -221 q 466 -362 511 -328 q 392 -397 421 -397 z "},"Ġ":{"ha":1104,"x_min":65,"x_max":1069,"o":"m 638 468 q 1047 503 946 468 q 1054 472 1050 497 q 1058 436 1058 447 q 1009 415 1021 426 q 990 372 997 403 q 890 -33 938 132 q 769 -314 842 -197 q 603 -490 713 -406 q 319 -575 493 -575 q 200 -560 251 -575 q 119 -526 149 -546 q 82 -490 90 -506 l 65 -457 q 164 -489 93 -475 q 299 -503 235 -503 q 626 -352 496 -503 q 825 104 756 -201 q 514 -29 713 -29 q 304 17 396 -29 q 161 156 213 64 q 110 381 110 249 q 188 684 110 544 q 406 907 267 824 q 719 990 544 990 q 914 963 819 990 q 1069 888 1008 935 q 1018 679 1036 796 q 998 677 1010 679 q 981 672 986 675 q 978 716 981 679 q 972 771 975 753 q 882 881 958 849 q 711 913 806 913 q 451 835 556 913 q 295 635 346 757 q 244 379 244 514 q 317 135 244 222 q 535 47 389 47 q 709 86 633 47 q 826 192 785 125 q 868 340 868 260 q 856 395 868 382 q 813 408 843 408 q 624 390 746 408 q 628 432 624 407 q 638 468 632 457 z "},"Ḡ":{"ha":1104,"x_min":65,"x_max":1069,"o":"m 638 468 q 1047 503 946 468 q 1054 472 1050 497 q 1058 436 1058 447 q 1009 415 1021 426 q 990 372 997 403 q 890 -33 938 132 q 769 -314 842 -197 q 603 -490 713 -406 q 319 -575 493 -575 q 200 -560 251 -575 q 119 -526 149 -546 q 82 -490 90 -506 l 65 -457 q 164 -489 93 -475 q 299 -503 235 -503 q 626 -352 496 -503 q 825 104 756 -201 q 514 -29 713 -29 q 304 17 396 -29 q 161 156 213 64 q 110 381 110 249 q 188 684 110 544 q 406 907 267 824 q 719 990 544 990 q 914 963 819 990 q 1069 888 1008 935 q 1018 679 1036 796 q 998 677 1010 679 q 981 672 986 675 q 978 716 981 679 q 972 771 975 753 q 882 881 958 849 q 711 913 806 913 q 451 835 556 913 q 295 635 346 757 q 244 379 244 514 q 317 135 244 222 q 535 47 389 47 q 709 86 633 47 q 826 192 785 125 q 868 340 868 260 q 856 395 868 382 q 813 408 843 408 q 624 390 746 408 q 628 432 624 407 q 638 468 632 457 z "},"H":{"ha":1153,"x_min":119,"x_max":1246,"o":"m 965 71 q 1078 85 1032 71 q 1161 124 1124 100 q 1163 108 1163 118 q 1127 47 1163 74 q 1040 6 1092 19 q 942 -8 988 -8 q 804 25 864 -8 q 739 113 744 58 q 749 249 735 149 q 786 464 763 349 q 607 465 733 465 q 372 464 454 465 q 271 33 294 131 q 263 15 268 19 q 246 10 258 11 q 169 3 189 7 q 128 -10 150 0 l 119 -7 l 144 60 q 217 260 190 179 q 269 464 243 342 l 246 464 q 217 487 232 464 q 203 529 203 510 q 208 540 203 538 q 226 543 213 543 q 246 542 232 543 q 286 542 260 542 q 331 853 331 768 q 319 895 331 885 q 275 906 308 906 q 211 902 251 906 q 147 894 171 899 q 138 922 142 906 q 135 949 135 938 q 151 967 135 967 q 406 976 356 972 q 465 981 456 981 q 492 969 492 981 q 422 671 492 943 l 390 538 q 628 535 518 535 q 801 536 747 535 q 918 981 849 750 q 943 1021 926 1010 q 1071 1068 972 1043 q 1207 1093 1169 1093 q 1239 1078 1232 1093 q 1246 1042 1246 1063 q 1142 1015 1210 1042 q 1051 961 1074 989 q 981 797 1026 929 q 910 540 936 664 q 868 186 868 346 q 876 113 868 136 q 903 80 883 89 q 965 71 922 71 z "},"Ħ":{"ha":1153,"x_min":125,"x_max":1301,"o":"m 1021 71 q 1133 85 1088 71 q 1217 124 1179 100 q 1218 108 1218 118 q 1183 47 1218 74 q 1095 6 1147 19 q 997 -8 1043 -8 q 860 25 919 -8 q 794 113 800 58 q 804 249 790 149 q 842 464 818 349 q 663 465 789 465 q 428 464 510 465 q 326 33 350 131 q 319 15 324 19 q 301 10 314 11 q 225 3 244 7 q 183 -10 206 0 l 175 -7 l 200 60 q 272 260 246 179 q 325 464 299 342 l 301 464 q 273 487 288 464 q 258 529 258 510 q 263 540 258 538 q 282 543 268 543 q 301 542 288 543 q 342 542 315 542 q 371 707 360 635 l 125 704 l 136 769 l 379 769 q 386 853 386 817 q 375 895 386 885 q 331 906 364 906 q 267 902 307 906 q 203 894 226 899 q 194 922 197 906 q 190 949 190 938 q 207 967 190 967 q 461 976 411 972 q 521 981 511 981 q 547 969 547 981 q 533 896 547 960 q 511 804 518 832 l 503 769 q 914 771 785 769 q 974 981 940 874 q 999 1021 982 1010 q 1126 1068 1028 1043 q 1263 1093 1225 1093 q 1294 1078 1288 1093 q 1301 1042 1301 1063 q 1197 1015 1265 1042 q 1107 961 1129 989 q 1028 772 1079 928 q 1175 775 1103 772 l 1163 713 l 1010 713 q 965 540 978 604 q 924 186 924 346 q 931 113 924 136 q 958 80 939 89 q 1021 71 978 71 m 446 538 q 683 535 574 535 q 857 536 803 535 q 899 711 868 592 q 488 708 757 711 l 446 538 z "},"Ḫ":{"ha":1153,"x_min":119,"x_max":1246,"o":"m 965 71 q 1078 85 1032 71 q 1161 124 1124 100 q 1163 108 1163 118 q 1127 47 1163 74 q 1040 6 1092 19 q 942 -8 988 -8 q 804 25 864 -8 q 739 113 744 58 q 749 249 735 149 q 786 464 763 349 q 607 465 733 465 q 372 464 454 465 q 271 33 294 131 q 263 15 268 19 q 246 10 258 11 q 169 3 189 7 q 128 -10 150 0 l 119 -7 l 144 60 q 217 260 190 179 q 269 464 243 342 l 246 464 q 217 487 232 464 q 203 529 203 510 q 208 540 203 538 q 226 543 213 543 q 246 542 232 543 q 286 542 260 542 q 331 853 331 768 q 319 895 331 885 q 275 906 308 906 q 211 902 251 906 q 147 894 171 899 q 138 922 142 906 q 135 949 135 938 q 151 967 135 967 q 406 976 356 972 q 465 981 456 981 q 492 969 492 981 q 422 671 492 943 l 390 538 q 628 535 518 535 q 801 536 747 535 q 918 981 849 750 q 943 1021 926 1010 q 1071 1068 972 1043 q 1207 1093 1169 1093 q 1239 1078 1232 1093 q 1246 1042 1246 1063 q 1142 1015 1210 1042 q 1051 961 1074 989 q 981 797 1026 929 q 910 540 936 664 q 868 186 868 346 q 876 113 868 136 q 903 80 883 89 q 965 71 922 71 z "},"Ĥ":{"ha":1153,"x_min":119,"x_max":1246,"o":"m 965 71 q 1078 85 1032 71 q 1161 124 1124 100 q 1163 108 1163 118 q 1127 47 1163 74 q 1040 6 1092 19 q 942 -8 988 -8 q 804 25 864 -8 q 739 113 744 58 q 749 249 735 149 q 786 464 763 349 q 607 465 733 465 q 372 464 454 465 q 271 33 294 131 q 263 15 268 19 q 246 10 258 11 q 169 3 189 7 q 128 -10 150 0 l 119 -7 l 144 60 q 217 260 190 179 q 269 464 243 342 l 246 464 q 217 487 232 464 q 203 529 203 510 q 208 540 203 538 q 226 543 213 543 q 246 542 232 543 q 286 542 260 542 q 331 853 331 768 q 319 895 331 885 q 275 906 308 906 q 211 902 251 906 q 147 894 171 899 q 138 922 142 906 q 135 949 135 938 q 151 967 135 967 q 406 976 356 972 q 465 981 456 981 q 492 969 492 981 q 422 671 492 943 l 390 538 q 628 535 518 535 q 801 536 747 535 q 918 981 849 750 q 943 1021 926 1010 q 1071 1068 972 1043 q 1207 1093 1169 1093 q 1239 1078 1232 1093 q 1246 1042 1246 1063 q 1142 1015 1210 1042 q 1051 961 1074 989 q 981 797 1026 929 q 910 540 936 664 q 868 186 868 346 q 876 113 868 136 q 903 80 883 89 q 965 71 922 71 z "},"Ḥ":{"ha":1153,"x_min":119,"x_max":1246,"o":"m 965 71 q 1078 85 1032 71 q 1161 124 1124 100 q 1163 108 1163 118 q 1127 47 1163 74 q 1040 6 1092 19 q 942 -8 988 -8 q 804 25 864 -8 q 739 113 744 58 q 749 249 735 149 q 786 464 763 349 q 607 465 733 465 q 372 464 454 465 q 271 33 294 131 q 263 15 268 19 q 246 10 258 11 q 169 3 189 7 q 128 -10 150 0 l 119 -7 l 144 60 q 217 260 190 179 q 269 464 243 342 l 246 464 q 217 487 232 464 q 203 529 203 510 q 208 540 203 538 q 226 543 213 543 q 246 542 232 543 q 286 542 260 542 q 331 853 331 768 q 319 895 331 885 q 275 906 308 906 q 211 902 251 906 q 147 894 171 899 q 138 922 142 906 q 135 949 135 938 q 151 967 135 967 q 406 976 356 972 q 465 981 456 981 q 492 969 492 981 q 422 671 492 943 l 390 538 q 628 535 518 535 q 801 536 747 535 q 918 981 849 750 q 943 1021 926 1010 q 1071 1068 972 1043 q 1207 1093 1169 1093 q 1239 1078 1232 1093 q 1246 1042 1246 1063 q 1142 1015 1210 1042 q 1051 961 1074 989 q 981 797 1026 929 q 910 540 936 664 q 868 186 868 346 q 876 113 868 136 q 903 80 883 89 q 965 71 922 71 z "},"I":{"ha":547,"x_min":85,"x_max":526,"o":"m 85 11 q 121 31 108 21 q 138 57 133 42 q 242 493 174 192 q 318 849 311 794 q 319 863 319 854 q 306 891 319 883 q 257 899 292 899 q 135 889 183 899 q 143 940 135 918 q 169 963 151 963 q 385 967 332 964 q 517 978 439 969 q 525 955 524 975 q 525 922 526 935 q 464 909 479 917 q 443 879 449 901 q 333 353 432 836 q 272 56 278 79 q 221 7 264 19 q 99 -6 178 -6 l 85 11 z "},"Ĳ":{"ha":1269,"x_min":85,"x_max":1367,"o":"m 85 11 q 121 31 108 21 q 138 57 133 42 q 242 493 174 192 q 318 849 311 794 q 319 863 319 854 q 306 891 319 883 q 257 899 292 899 q 135 889 183 899 q 143 940 135 918 q 169 963 151 963 q 385 967 332 964 q 517 978 439 969 q 525 955 524 975 q 525 922 526 935 q 464 909 479 917 q 443 879 449 901 q 333 353 432 836 q 272 56 278 79 q 221 7 264 19 q 99 -6 178 -6 l 85 11 m 600 -233 q 499 -222 539 -233 q 410 -187 460 -211 q 403 -94 403 -139 q 403 -43 403 -49 l 426 -37 q 495 -144 454 -111 q 619 -178 536 -178 q 751 -147 697 -178 q 843 -47 804 -117 q 911 142 882 22 q 999 555 942 263 q 1057 896 1057 847 q 1049 916 1057 911 q 1017 921 1040 921 q 863 894 936 921 q 743 817 789 868 q 697 694 697 765 q 718 610 697 647 q 775 553 739 572 q 735 549 751 549 q 619 608 661 567 q 576 714 576 649 q 788 928 576 863 q 1344 993 1000 993 q 1367 929 1361 993 l 1253 932 q 1207 924 1222 932 q 1183 892 1192 915 q 1163 814 1174 868 q 1100 471 1147 742 q 1068 295 1090 418 q 1035 125 1046 172 q 880 -144 992 -56 q 600 -233 768 -233 z "},"Í":{"ha":547,"x_min":85,"x_max":679,"o":"m 85 11 q 121 31 108 21 q 138 57 133 42 q 242 493 174 192 q 318 849 311 794 q 319 863 319 854 q 306 891 319 883 q 257 899 292 899 q 135 889 183 899 q 143 940 135 918 q 169 963 151 963 q 385 967 332 964 q 517 978 439 969 q 525 955 524 975 q 525 922 526 935 q 464 909 479 917 q 443 879 449 901 q 333 353 432 836 q 272 56 278 79 q 221 7 264 19 q 99 -6 178 -6 l 85 11 z "},"Ĭ":{"ha":547,"x_min":85,"x_max":594,"o":"m 85 11 q 121 31 108 21 q 138 57 133 42 q 242 493 174 192 q 318 849 311 794 q 319 863 319 854 q 306 891 319 883 q 257 899 292 899 q 135 889 183 899 q 143 940 135 918 q 169 963 151 963 q 385 967 332 964 q 517 978 439 969 q 525 955 524 975 q 525 922 526 935 q 464 909 479 917 q 443 879 449 901 q 333 353 432 836 q 272 56 278 79 q 221 7 264 19 q 99 -6 178 -6 l 85 11 z "},"Ǐ":{"ha":547,"x_min":85,"x_max":629,"o":"m 85 11 q 121 31 108 21 q 138 57 133 42 q 242 493 174 192 q 318 849 311 794 q 319 863 319 854 q 306 891 319 883 q 257 899 292 899 q 135 889 183 899 q 143 940 135 918 q 169 963 151 963 q 385 967 332 964 q 517 978 439 969 q 525 955 524 975 q 525 922 526 935 q 464 909 479 917 q 443 879 449 901 q 333 353 432 836 q 272 56 278 79 q 221 7 264 19 q 99 -6 178 -6 l 85 11 z "},"Î":{"ha":547,"x_min":85,"x_max":567,"o":"m 85 11 q 121 31 108 21 q 138 57 133 42 q 242 493 174 192 q 318 849 311 794 q 319 863 319 854 q 306 891 319 883 q 257 899 292 899 q 135 889 183 899 q 143 940 135 918 q 169 963 151 963 q 385 967 332 964 q 517 978 439 969 q 525 955 524 975 q 525 922 526 935 q 464 909 479 917 q 443 879 449 901 q 333 353 432 836 q 272 56 278 79 q 221 7 264 19 q 99 -6 178 -6 l 85 11 z "},"Ï":{"ha":547,"x_min":85,"x_max":613,"o":"m 85 11 q 121 31 108 21 q 138 57 133 42 q 242 493 174 192 q 318 849 311 794 q 319 863 319 854 q 306 891 319 883 q 257 899 292 899 q 135 889 183 899 q 143 940 135 918 q 169 963 151 963 q 385 967 332 964 q 517 978 439 969 q 525 955 524 975 q 525 922 526 935 q 464 909 479 917 q 443 879 449 901 q 333 353 432 836 q 272 56 278 79 q 221 7 264 19 q 99 -6 178 -6 l 85 11 z "},"İ":{"ha":547,"x_min":85,"x_max":526,"o":"m 85 11 q 121 31 108 21 q 138 57 133 42 q 242 493 174 192 q 318 849 311 794 q 319 863 319 854 q 306 891 319 883 q 257 899 292 899 q 135 889 183 899 q 143 940 135 918 q 169 963 151 963 q 385 967 332 964 q 517 978 439 969 q 525 955 524 975 q 525 922 526 935 q 464 909 479 917 q 443 879 449 901 q 333 353 432 836 q 272 56 278 79 q 221 7 264 19 q 99 -6 178 -6 l 85 11 z "},"Ị":{"ha":547,"x_min":74,"x_max":526,"o":"m 85 11 q 121 31 108 21 q 138 57 133 42 q 242 493 174 192 q 318 849 311 794 q 319 863 319 854 q 306 891 319 883 q 257 899 292 899 q 135 889 183 899 q 143 940 135 918 q 169 963 151 963 q 385 967 332 964 q 517 978 439 969 q 525 955 524 975 q 525 922 526 935 q 464 909 479 917 q 443 879 449 901 q 333 353 432 836 q 272 56 278 79 q 221 7 264 19 q 99 -6 178 -6 l 85 11 z "},"Ì":{"ha":547,"x_min":85,"x_max":526,"o":"m 85 11 q 121 31 108 21 q 138 57 133 42 q 242 493 174 192 q 318 849 311 794 q 319 863 319 854 q 306 891 319 883 q 257 899 292 899 q 135 889 183 899 q 143 940 135 918 q 169 963 151 963 q 385 967 332 964 q 517 978 439 969 q 525 955 524 975 q 525 922 526 935 q 464 909 479 917 q 443 879 449 901 q 333 353 432 836 q 272 56 278 79 q 221 7 264 19 q 99 -6 178 -6 l 85 11 z "},"Ỉ":{"ha":547,"x_min":85,"x_max":526,"o":"m 85 11 q 121 31 108 21 q 138 57 133 42 q 242 493 174 192 q 318 849 311 794 q 319 863 319 854 q 306 891 319 883 q 257 899 292 899 q 135 889 183 899 q 143 940 135 918 q 169 963 151 963 q 385 967 332 964 q 517 978 439 969 q 525 955 524 975 q 525 922 526 935 q 464 909 479 917 q 443 879 449 901 q 333 353 432 836 q 272 56 278 79 q 221 7 264 19 q 99 -6 178 -6 l 85 11 m 326 1042 q 301 1064 297 1042 q 372 1133 342 1090 q 403 1210 403 1176 q 357 1246 403 1246 q 304 1240 332 1246 q 331 1288 310 1271 q 415 1313 361 1313 q 490 1291 464 1313 q 515 1231 515 1269 q 484 1142 515 1186 q 408 1070 453 1099 q 326 1042 364 1042 z "},"Ī":{"ha":547,"x_min":85,"x_max":654,"o":"m 85 11 q 121 31 108 21 q 138 57 133 42 q 242 493 174 192 q 318 849 311 794 q 319 863 319 854 q 306 891 319 883 q 257 899 292 899 q 135 889 183 899 q 143 940 135 918 q 169 963 151 963 q 385 967 332 964 q 517 978 439 969 q 525 955 524 975 q 525 922 526 935 q 464 909 479 917 q 443 879 449 901 q 333 353 432 836 q 272 56 278 79 q 221 7 264 19 q 99 -6 178 -6 l 85 11 z "},"Į":{"ha":547,"x_min":0,"x_max":526,"o":"m 517 978 q 525 955 524 975 q 525 922 526 935 q 464 909 479 917 q 443 879 449 901 q 333 353 432 836 q 272 56 278 79 q 244 18 267 31 l 244 17 q 143 -51 175 -17 q 111 -133 111 -86 q 122 -172 111 -158 q 158 -185 132 -185 q 210 -179 182 -185 q 213 -194 213 -187 q 185 -235 213 -219 q 113 -251 157 -251 q 31 -228 61 -251 q 0 -160 0 -204 q 28 -76 0 -117 q 99 -6 56 -35 l 85 11 q 121 31 108 21 q 138 57 133 42 q 242 493 174 192 q 318 849 311 794 q 319 863 319 854 q 306 891 319 883 q 257 899 292 899 q 135 889 183 899 q 143 940 135 918 q 169 963 151 963 q 385 967 332 964 q 517 978 439 969 z "},"Ĩ":{"ha":547,"x_min":85,"x_max":613,"o":"m 85 11 q 121 31 108 21 q 138 57 133 42 q 242 493 174 192 q 318 849 311 794 q 319 863 319 854 q 306 891 319 883 q 257 899 292 899 q 135 889 183 899 q 143 940 135 918 q 169 963 151 963 q 385 967 332 964 q 517 978 439 969 q 525 955 524 975 q 525 922 526 935 q 464 909 479 917 q 443 879 449 901 q 333 353 432 836 q 272 56 278 79 q 221 7 264 19 q 99 -6 178 -6 l 85 11 z "},"J":{"ha":722,"x_min":-144,"x_max":819,"o":"m 53 -233 q -48 -222 -8 -233 q -137 -187 -87 -211 q -144 -94 -144 -139 q -144 -43 -144 -49 l -121 -37 q -52 -144 -93 -111 q 72 -178 -11 -178 q 203 -147 150 -178 q 296 -47 257 -117 q 364 142 335 22 q 452 555 394 263 q 510 896 510 847 q 501 916 510 911 q 469 921 493 921 q 315 894 389 921 q 196 817 242 868 q 150 694 150 765 q 171 610 150 647 q 228 553 192 572 q 188 549 204 549 q 72 608 114 567 q 29 714 29 649 q 241 928 29 863 q 797 993 453 993 q 819 929 814 993 l 706 932 q 660 924 675 932 q 635 892 644 915 q 615 814 626 868 q 553 471 600 742 q 521 295 543 418 q 488 125 499 172 q 333 -144 444 -56 q 53 -233 221 -233 z "},"Ĵ":{"ha":722,"x_min":-144,"x_max":839,"o":"m 53 -233 q -48 -222 -8 -233 q -137 -187 -87 -211 q -144 -94 -144 -139 q -144 -43 -144 -49 l -121 -37 q -52 -144 -93 -111 q 72 -178 -11 -178 q 203 -147 150 -178 q 296 -47 257 -117 q 364 142 335 22 q 452 555 394 263 q 510 896 510 847 q 501 916 510 911 q 469 921 493 921 q 315 894 389 921 q 196 817 242 868 q 150 694 150 765 q 171 610 150 647 q 228 553 192 572 q 188 549 204 549 q 72 608 114 567 q 29 714 29 649 q 241 928 29 863 q 797 993 453 993 q 819 929 814 993 l 706 932 q 660 924 675 932 q 635 892 644 915 q 615 814 626 868 q 553 471 600 742 q 521 295 543 418 q 488 125 499 172 q 333 -144 444 -56 q 53 -233 221 -233 z "},"K":{"ha":1079,"x_min":125,"x_max":1951,"o":"m 1926 -143 q 1951 -206 1951 -172 q 1907 -298 1951 -258 q 1782 -359 1863 -337 q 1596 -381 1701 -381 q 1124 -267 1354 -381 q 703 34 894 -153 q 374 444 513 221 q 331 229 363 390 q 292 35 306 99 q 280 7 288 14 q 257 0 272 0 q 172 -4 192 -1 q 140 -17 153 -7 q 125 -7 125 -17 q 244 395 175 103 q 339 846 313 688 q 344 886 344 882 q 338 905 344 901 q 313 908 331 908 q 231 901 275 908 q 160 896 183 896 q 133 900 140 896 q 125 917 125 904 q 138 975 125 942 q 164 1008 150 1008 q 215 977 165 983 q 349 971 265 971 q 568 983 428 971 q 628 989 589 986 q 624 951 628 978 q 618 917 619 925 l 506 914 q 482 896 488 914 q 382 483 433 726 q 508 581 439 525 q 644 693 578 638 q 858 868 772 800 q 1038 997 944 936 l 1060 997 q 1139 979 1072 990 q 1192 968 1181 972 l 1192 957 q 1033 869 1169 961 q 732 657 896 778 q 490 474 568 536 q 811 101 625 267 q 1204 -160 997 -65 q 1606 -256 1411 -256 q 1794 -226 1717 -256 q 1926 -143 1871 -196 z "},"Ķ":{"ha":1079,"x_min":125,"x_max":1951,"o":"m 1926 -143 q 1951 -206 1951 -172 q 1907 -298 1951 -258 q 1782 -359 1863 -337 q 1596 -381 1701 -381 q 1124 -267 1354 -381 q 703 34 894 -153 q 374 444 513 221 q 331 229 363 390 q 292 35 306 99 q 280 7 288 14 q 257 0 272 0 q 172 -4 192 -1 q 140 -17 153 -7 q 125 -7 125 -17 q 244 395 175 103 q 339 846 313 688 q 344 886 344 882 q 338 905 344 901 q 313 908 331 908 q 231 901 275 908 q 160 896 183 896 q 133 900 140 896 q 125 917 125 904 q 138 975 125 942 q 164 1008 150 1008 q 215 977 165 983 q 349 971 265 971 q 568 983 428 971 q 628 989 589 986 q 624 951 628 978 q 618 917 619 925 l 506 914 q 482 896 488 914 q 382 483 433 726 q 508 581 439 525 q 644 693 578 638 q 858 868 772 800 q 1038 997 944 936 l 1060 997 q 1139 979 1072 990 q 1192 968 1181 972 l 1192 957 q 1033 869 1169 961 q 732 657 896 778 q 490 474 568 536 q 811 101 625 267 q 1204 -160 997 -65 q 1606 -256 1411 -256 q 1794 -226 1717 -256 q 1926 -143 1871 -196 m 349 -397 q 321 -382 328 -397 q 391 -304 364 -354 q 418 -210 418 -254 q 388 -135 418 -162 q 471 -93 422 -93 q 519 -112 503 -93 q 536 -167 536 -131 q 502 -274 536 -221 q 423 -362 468 -328 q 349 -397 378 -397 z "},"L":{"ha":889,"x_min":-26,"x_max":814,"o":"m 800 92 q 814 -56 814 25 l 786 -49 q 779 -15 785 -24 q 753 0 774 -6 q 461 25 671 25 q 197 14 315 25 q 4 -18 78 3 q -26 61 -26 40 q -4 81 -26 78 q 128 151 76 94 q 210 301 179 207 q 268 543 242 396 q 294 702 281 610 q 315 835 308 794 q 329 929 313 813 q 357 963 332 951 q 482 987 388 976 q 642 997 576 997 q 653 976 649 996 q 657 936 657 957 q 656 918 657 922 q 603 924 632 922 q 551 926 574 926 q 492 908 511 926 q 463 846 474 890 l 433 714 q 368 431 392 519 q 280 197 328 278 q 171 79 232 117 q 349 99 257 85 q 458 117 440 114 q 603 139 553 132 q 697 146 654 146 q 774 133 753 146 q 800 92 794 119 z "},"Ĺ":{"ha":889,"x_min":-26,"x_max":836,"o":"m 800 92 q 814 -56 814 25 l 786 -49 q 779 -15 785 -24 q 753 0 774 -6 q 461 25 671 25 q 197 14 315 25 q 4 -18 78 3 q -26 61 -26 40 q -4 81 -26 78 q 128 151 76 94 q 210 301 179 207 q 268 543 242 396 q 294 702 281 610 q 315 835 308 794 q 329 929 313 813 q 357 963 332 951 q 482 987 388 976 q 642 997 576 997 q 653 976 649 996 q 657 936 657 957 q 656 918 657 922 q 603 924 632 922 q 551 926 574 926 q 492 908 511 926 q 463 846 474 890 l 433 714 q 368 431 392 519 q 280 197 328 278 q 171 79 232 117 q 349 99 257 85 q 458 117 440 114 q 603 139 553 132 q 697 146 654 146 q 774 133 753 146 q 800 92 794 119 z "},"Ľ":{"ha":889,"x_min":-26,"x_max":922,"o":"m 800 92 q 814 -56 814 25 l 786 -49 q 779 -15 785 -24 q 753 0 774 -6 q 461 25 671 25 q 197 14 315 25 q 4 -18 78 3 q -26 61 -26 40 q -4 81 -26 78 q 128 151 76 94 q 210 301 179 207 q 268 543 242 396 q 294 702 281 610 q 315 835 308 794 q 329 929 313 813 q 357 963 332 951 q 482 987 388 976 q 642 997 576 997 q 653 976 649 996 q 657 936 657 957 q 656 918 657 922 q 603 924 632 922 q 551 926 574 926 q 492 908 511 926 q 463 846 474 890 l 433 714 q 368 431 392 519 q 280 197 328 278 q 171 79 232 117 q 349 99 257 85 q 458 117 440 114 q 603 139 553 132 q 697 146 654 146 q 774 133 753 146 q 800 92 794 119 m 736 675 q 708 690 717 675 q 778 776 751 728 q 806 871 806 824 q 775 938 806 915 q 858 979 814 979 q 905 961 888 979 q 922 910 922 943 q 921 886 922 894 q 878 787 913 836 q 803 706 844 738 q 736 675 763 675 z "},"Ļ":{"ha":889,"x_min":-26,"x_max":814,"o":"m 800 92 q 814 -56 814 25 l 786 -49 q 779 -15 785 -24 q 753 0 774 -6 q 461 25 671 25 q 197 14 315 25 q 4 -18 78 3 q -26 61 -26 40 q -4 81 -26 78 q 128 151 76 94 q 210 301 179 207 q 268 543 242 396 q 294 702 281 610 q 315 835 308 794 q 329 929 313 813 q 357 963 332 951 q 482 987 388 976 q 642 997 576 997 q 653 976 649 996 q 657 936 657 957 q 656 918 657 922 q 603 924 632 922 q 551 926 574 926 q 492 908 511 926 q 463 846 474 890 l 433 714 q 368 431 392 519 q 280 197 328 278 q 171 79 232 117 q 349 99 257 85 q 458 117 440 114 q 603 139 553 132 q 697 146 654 146 q 774 133 753 146 q 800 92 794 119 m 319 -397 q 292 -382 299 -397 q 362 -304 335 -354 q 389 -210 389 -254 q 358 -135 389 -162 q 442 -93 393 -93 q 490 -112 474 -93 q 507 -167 507 -131 q 473 -274 507 -221 q 394 -362 439 -328 q 319 -397 349 -397 z "},"Ŀ":{"ha":829,"x_min":-26,"x_max":814,"o":"m 800 92 q 814 -56 814 25 l 786 -49 q 779 -15 785 -24 q 753 0 774 -6 q 461 25 671 25 q 197 14 315 25 q 4 -18 78 3 q -26 61 -26 40 q -4 81 -26 78 q 128 151 76 94 q 210 301 179 207 q 268 543 242 396 q 294 702 281 610 q 315 835 308 794 q 329 929 313 813 q 357 963 332 951 q 482 987 388 976 q 642 997 576 997 q 653 976 649 996 q 657 936 657 957 q 656 918 657 922 q 603 924 632 922 q 551 926 574 926 q 492 908 511 926 q 463 846 474 890 l 433 714 q 368 431 392 519 q 280 197 328 278 q 171 79 232 117 q 349 99 257 85 q 458 117 440 114 q 603 139 553 132 q 697 146 654 146 q 774 133 753 146 q 800 92 794 119 z "},"Ḷ":{"ha":889,"x_min":-26,"x_max":814,"o":"m 800 92 q 814 -56 814 25 l 786 -49 q 779 -15 785 -24 q 753 0 774 -6 q 461 25 671 25 q 197 14 315 25 q 4 -18 78 3 q -26 61 -26 40 q -4 81 -26 78 q 128 151 76 94 q 210 301 179 207 q 268 543 242 396 q 294 702 281 610 q 315 835 308 794 q 329 929 313 813 q 357 963 332 951 q 482 987 388 976 q 642 997 576 997 q 653 976 649 996 q 657 936 657 957 q 656 918 657 922 q 603 924 632 922 q 551 926 574 926 q 492 908 511 926 q 463 846 474 890 l 433 714 q 368 431 392 519 q 280 197 328 278 q 171 79 232 117 q 349 99 257 85 q 458 117 440 114 q 603 139 553 132 q 697 146 654 146 q 774 133 753 146 q 800 92 794 119 z "},"Ḹ":{"ha":889,"x_min":-26,"x_max":881,"o":"m 800 92 q 814 -56 814 25 l 786 -49 q 779 -15 785 -24 q 753 0 774 -6 q 461 25 671 25 q 197 14 315 25 q 4 -18 78 3 q -26 61 -26 40 q -4 81 -26 78 q 128 151 76 94 q 210 301 179 207 q 268 543 242 396 q 294 702 281 610 q 315 835 308 794 q 329 929 313 813 q 357 963 332 951 q 482 987 388 976 q 642 997 576 997 q 653 976 649 996 q 657 936 657 957 q 656 918 657 922 q 603 924 632 922 q 551 926 574 926 q 492 908 511 926 q 463 846 474 890 l 433 714 q 368 431 392 519 q 280 197 328 278 q 171 79 232 117 q 349 99 257 85 q 458 117 440 114 q 603 139 553 132 q 697 146 654 146 q 774 133 753 146 q 800 92 794 119 m 865 1081 q 682 1085 807 1085 l 465 1083 q 338 1082 363 1083 l 354 1175 l 475 1174 q 788 1169 758 1169 q 881 1171 857 1169 l 865 1081 z "},"Ḻ":{"ha":889,"x_min":-26,"x_max":814,"o":"m 800 92 q 814 -56 814 25 l 786 -49 q 779 -15 785 -24 q 753 0 774 -6 q 461 25 671 25 q 197 14 315 25 q 4 -18 78 3 q -26 61 -26 40 q -4 81 -26 78 q 128 151 76 94 q 210 301 179 207 q 268 543 242 396 q 294 702 281 610 q 315 835 308 794 q 329 929 313 813 q 357 963 332 951 q 482 987 388 976 q 642 997 576 997 q 653 976 649 996 q 657 936 657 957 q 656 918 657 922 q 603 924 632 922 q 551 926 574 926 q 492 908 511 926 q 463 846 474 890 l 433 714 q 368 431 392 519 q 280 197 328 278 q 171 79 232 117 q 349 99 257 85 q 458 117 440 114 q 603 139 553 132 q 697 146 654 146 q 774 133 753 146 q 800 92 794 119 m 671 -193 q 488 -190 633 -190 l 271 -190 q 143 -192 168 -190 l 176 -99 l 297 -100 q 608 -104 576 -104 q 701 -103 678 -104 l 671 -193 z "},"Ł":{"ha":889,"x_min":-26,"x_max":814,"o":"m 800 92 q 814 -56 814 25 l 786 -49 q 779 -15 785 -24 q 753 0 774 -6 q 461 25 671 25 q 197 14 315 25 q 4 -18 78 3 q -26 61 -26 40 q -4 81 -26 78 q 161 195 104 99 q 256 481 218 292 q 94 417 115 429 q 60 453 82 432 q 31 481 39 475 l 36 486 q 78 494 50 486 q 150 519 106 503 q 247 554 178 531 l 271 563 q 321 876 293 676 l 329 929 q 357 963 332 951 q 482 987 388 976 q 642 997 576 997 q 653 976 649 996 q 657 936 657 957 q 656 918 657 922 q 603 924 632 922 q 551 926 574 926 q 492 908 511 926 q 463 846 474 890 l 447 775 l 408 601 l 547 639 q 596 578 554 626 q 592 569 596 569 q 392 526 526 569 l 385 500 l 368 431 q 280 197 328 278 q 171 79 232 117 q 349 99 257 85 q 458 117 440 114 q 603 139 553 132 q 697 146 654 146 q 774 133 753 146 q 800 92 794 119 z "},"M":{"ha":1667,"x_min":-72,"x_max":1700,"o":"m 1664 250 q 1700 175 1700 229 q 1660 67 1700 115 q 1555 -9 1621 18 q 1413 -36 1489 -36 q 1226 47 1281 -36 q 1172 292 1172 131 q 1194 505 1172 411 q 1265 735 1217 599 q 929 160 1124 522 q 906 111 914 129 q 899 74 899 93 l 900 53 q 888 36 900 39 q 793 -1 842 24 q 761 -14 765 -14 q 751 -8 756 -14 q 744 6 746 -1 q 764 79 764 18 q 748 265 764 139 q 706 579 732 392 q 552 262 629 394 q 377 48 475 129 q 160 -33 279 -33 q -3 18 65 -33 q -72 169 -72 69 q -53 276 -72 222 q -1 364 -33 329 q 72 399 32 399 q 99 394 85 399 q 128 383 113 389 q 63 283 88 343 q 38 167 38 224 q 72 69 38 101 q 168 36 106 36 q 360 122 272 36 q 523 359 447 208 q 679 736 599 510 q 658 840 665 810 q 636 960 636 946 q 659 996 636 985 q 718 1007 682 1007 q 785 986 765 1007 q 804 919 804 965 q 788 754 804 846 q 833 464 794 672 q 853 358 838 442 q 876 211 869 274 q 1086 592 1001 447 q 1256 869 1171 738 q 1331 982 1306 947 q 1374 1030 1356 1017 q 1411 1043 1392 1043 q 1499 982 1457 1043 q 1443 937 1471 971 q 1393 847 1415 903 q 1331 601 1357 757 q 1306 328 1306 446 q 1467 53 1306 53 q 1590 107 1540 53 q 1664 250 1639 161 z "},"Ṃ":{"ha":1667,"x_min":-72,"x_max":1700,"o":"m 1664 250 q 1700 175 1700 229 q 1660 67 1700 115 q 1555 -9 1621 18 q 1413 -36 1489 -36 q 1226 47 1281 -36 q 1172 292 1172 131 q 1194 505 1172 411 q 1265 735 1217 599 q 929 160 1124 522 q 906 111 914 129 q 899 74 899 93 l 900 53 q 888 36 900 39 q 793 -1 842 24 q 761 -14 765 -14 q 751 -8 756 -14 q 744 6 746 -1 q 764 79 764 18 q 748 265 764 139 q 706 579 732 392 q 552 262 629 394 q 377 48 475 129 q 160 -33 279 -33 q -3 18 65 -33 q -72 169 -72 69 q -53 276 -72 222 q -1 364 -33 329 q 72 399 32 399 q 99 394 85 399 q 128 383 113 389 q 63 283 88 343 q 38 167 38 224 q 72 69 38 101 q 168 36 106 36 q 360 122 272 36 q 523 359 447 208 q 679 736 599 510 q 658 840 665 810 q 636 960 636 946 q 659 996 636 985 q 718 1007 682 1007 q 785 986 765 1007 q 804 919 804 965 q 788 754 804 846 q 833 464 794 672 q 853 358 838 442 q 876 211 869 274 q 1086 592 1001 447 q 1256 869 1171 738 q 1331 982 1306 947 q 1374 1030 1356 1017 q 1411 1043 1392 1043 q 1499 982 1457 1043 q 1443 937 1471 971 q 1393 847 1415 903 q 1331 601 1357 757 q 1306 328 1306 446 q 1467 53 1306 53 q 1590 107 1540 53 q 1664 250 1639 161 z "},"N":{"ha":1083,"x_min":115,"x_max":1269,"o":"m 1100 1118 q 1167 1108 1128 1118 q 1238 1084 1207 1097 q 1269 1067 1269 1071 q 1097 972 1163 1067 q 990 717 1031 876 q 889 244 949 558 q 844 11 850 40 q 803 -4 831 3 q 754 -11 776 -11 q 499 494 635 228 q 429 631 460 568 q 372 744 399 693 q 322 501 342 610 q 276 236 301 392 q 235 -15 240 19 l 172 -15 q 130 -3 144 -15 q 115 26 115 10 q 146 184 115 50 q 213 465 176 318 q 273 717 246 599 q 300 853 300 835 q 290 869 300 864 q 258 874 281 874 l 211 872 q 161 869 175 869 q 131 875 139 869 q 124 899 124 881 q 135 961 124 932 q 188 946 156 951 q 251 940 221 940 q 374 964 310 940 q 388 958 381 964 q 400 942 394 951 l 506 729 q 778 182 614 510 q 899 775 860 601 q 985 1033 939 949 q 1100 1118 1031 1118 z "},"Ń":{"ha":1083,"x_min":115,"x_max":1269,"o":"m 1100 1118 q 1167 1108 1128 1118 q 1238 1084 1207 1097 q 1269 1067 1269 1071 q 1097 972 1163 1067 q 990 717 1031 876 q 889 244 949 558 q 844 11 850 40 q 803 -4 831 3 q 754 -11 776 -11 q 499 494 635 228 q 429 631 460 568 q 372 744 399 693 q 322 501 342 610 q 276 236 301 392 q 235 -15 240 19 l 172 -15 q 130 -3 144 -15 q 115 26 115 10 q 146 184 115 50 q 213 465 176 318 q 273 717 246 599 q 300 853 300 835 q 290 869 300 864 q 258 874 281 874 l 211 872 q 161 869 175 869 q 131 875 139 869 q 124 899 124 881 q 135 961 124 932 q 188 946 156 951 q 251 940 221 940 q 374 964 310 940 q 388 958 381 964 q 400 942 394 951 l 506 729 q 778 182 614 510 q 899 775 860 601 q 985 1033 939 949 q 1100 1118 1031 1118 z "},"Ň":{"ha":1083,"x_min":115,"x_max":1269,"o":"m 1100 1118 q 1167 1108 1128 1118 q 1238 1084 1207 1097 q 1269 1067 1269 1071 q 1097 972 1163 1067 q 990 717 1031 876 q 889 244 949 558 q 844 11 850 40 q 803 -4 831 3 q 754 -11 776 -11 q 499 494 635 228 q 429 631 460 568 q 372 744 399 693 q 322 501 342 610 q 276 236 301 392 q 235 -15 240 19 l 172 -15 q 130 -3 144 -15 q 115 26 115 10 q 146 184 115 50 q 213 465 176 318 q 273 717 246 599 q 300 853 300 835 q 290 869 300 864 q 258 874 281 874 l 211 872 q 161 869 175 869 q 131 875 139 869 q 124 899 124 881 q 135 961 124 932 q 188 946 156 951 q 251 940 221 940 q 374 964 310 940 q 388 958 381 964 q 400 942 394 951 l 506 729 q 778 182 614 510 q 899 775 860 601 q 985 1033 939 949 q 1100 1118 1031 1118 z "},"Ņ":{"ha":1083,"x_min":115,"x_max":1269,"o":"m 1100 1118 q 1167 1108 1128 1118 q 1238 1084 1207 1097 q 1269 1067 1269 1071 q 1097 972 1163 1067 q 990 717 1031 876 q 889 244 949 558 q 844 11 850 40 q 803 -4 831 3 q 754 -11 776 -11 q 499 494 635 228 q 429 631 460 568 q 372 744 399 693 q 322 501 342 610 q 276 236 301 392 q 235 -15 240 19 l 172 -15 q 130 -3 144 -15 q 115 26 115 10 q 146 184 115 50 q 213 465 176 318 q 273 717 246 599 q 300 853 300 835 q 290 869 300 864 q 258 874 281 874 l 211 872 q 161 869 175 869 q 131 875 139 869 q 124 899 124 881 q 135 961 124 932 q 188 946 156 951 q 251 940 221 940 q 374 964 310 940 q 388 958 381 964 q 400 942 394 951 l 506 729 q 778 182 614 510 q 899 775 860 601 q 985 1033 939 949 q 1100 1118 1031 1118 m 382 -397 q 354 -382 361 -397 q 424 -304 397 -354 q 451 -210 451 -254 q 421 -135 451 -162 q 504 -93 456 -93 q 553 -112 536 -93 q 569 -167 569 -131 q 535 -274 569 -221 q 456 -362 501 -328 q 382 -397 411 -397 z "},"Ṅ":{"ha":1083,"x_min":115,"x_max":1269,"o":"m 1100 1118 q 1167 1108 1128 1118 q 1238 1084 1207 1097 q 1269 1067 1269 1071 q 1097 972 1163 1067 q 990 717 1031 876 q 889 244 949 558 q 844 11 850 40 q 803 -4 831 3 q 754 -11 776 -11 q 499 494 635 228 q 429 631 460 568 q 372 744 399 693 q 322 501 342 610 q 276 236 301 392 q 235 -15 240 19 l 172 -15 q 130 -3 144 -15 q 115 26 115 10 q 146 184 115 50 q 213 465 176 318 q 273 717 246 599 q 300 853 300 835 q 290 869 300 864 q 258 874 281 874 l 211 872 q 161 869 175 869 q 131 875 139 869 q 124 899 124 881 q 135 961 124 932 q 188 946 156 951 q 251 940 221 940 q 374 964 310 940 q 388 958 381 964 q 400 942 394 951 l 506 729 q 778 182 614 510 q 899 775 860 601 q 985 1033 939 949 q 1100 1118 1031 1118 z "},"Ṇ":{"ha":1083,"x_min":115,"x_max":1269,"o":"m 1100 1118 q 1167 1108 1128 1118 q 1238 1084 1207 1097 q 1269 1067 1269 1071 q 1097 972 1163 1067 q 990 717 1031 876 q 889 244 949 558 q 844 11 850 40 q 803 -4 831 3 q 754 -11 776 -11 q 499 494 635 228 q 429 631 460 568 q 372 744 399 693 q 322 501 342 610 q 276 236 301 392 q 235 -15 240 19 l 172 -15 q 130 -3 144 -15 q 115 26 115 10 q 146 184 115 50 q 213 465 176 318 q 273 717 246 599 q 300 853 300 835 q 290 869 300 864 q 258 874 281 874 l 211 872 q 161 869 175 869 q 131 875 139 869 q 124 899 124 881 q 135 961 124 932 q 188 946 156 951 q 251 940 221 940 q 374 964 310 940 q 388 958 381 964 q 400 942 394 951 l 506 729 q 778 182 614 510 q 899 775 860 601 q 985 1033 939 949 q 1100 1118 1031 1118 z "},"Ŋ":{"ha":1083,"x_min":115,"x_max":1269,"o":"m 1117 1118 q 1199 1097 1135 1118 q 1269 1067 1264 1076 q 1102 987 1164 1067 q 1004 765 1040 907 q 917 331 968 622 l 871 83 q 745 -226 832 -122 q 501 -331 658 -331 q 404 -323 457 -331 q 319 -303 351 -315 q 317 -153 314 -226 l 338 -147 q 525 -276 388 -276 q 669 -208 611 -276 q 760 13 728 -139 q 634 261 699 135 q 538 450 569 388 q 386 746 433 650 q 310 396 339 544 q 235 -15 281 247 q 146 1 176 -12 q 115 46 115 15 q 201 389 115 71 q 265 634 215 443 q 314 849 314 825 q 305 868 314 863 q 275 874 296 874 q 221 871 257 874 l 169 869 q 142 881 151 869 q 135 911 132 893 q 149 961 139 936 q 202 946 169 951 q 264 940 235 940 q 388 964 324 940 q 414 942 401 964 q 638 499 513 760 q 792 183 729 306 q 909 801 871 626 q 992 1047 947 975 q 1117 1118 1038 1118 z "},"Ṉ":{"ha":1083,"x_min":115,"x_max":1269,"o":"m 1100 1118 q 1167 1108 1128 1118 q 1238 1084 1207 1097 q 1269 1067 1269 1071 q 1097 972 1163 1067 q 990 717 1031 876 q 889 244 949 558 q 844 11 850 40 q 803 -4 831 3 q 754 -11 776 -11 q 499 494 635 228 q 429 631 460 568 q 372 744 399 693 q 322 501 342 610 q 276 236 301 392 q 235 -15 240 19 l 172 -15 q 130 -3 144 -15 q 115 26 115 10 q 146 184 115 50 q 213 465 176 318 q 273 717 246 599 q 300 853 300 835 q 290 869 300 864 q 258 874 281 874 l 211 872 q 161 869 175 869 q 131 875 139 869 q 124 899 124 881 q 135 961 124 932 q 188 946 156 951 q 251 940 221 940 q 374 964 310 940 q 388 958 381 964 q 400 942 394 951 l 506 729 q 778 182 614 510 q 899 775 860 601 q 985 1033 939 949 q 1100 1118 1031 1118 m 733 -193 q 550 -190 696 -190 l 333 -190 q 206 -192 231 -190 l 239 -99 l 360 -100 q 671 -104 639 -104 q 764 -103 740 -104 l 733 -193 z "},"Ñ":{"ha":1083,"x_min":115,"x_max":1269,"o":"m 1100 1118 q 1167 1108 1128 1118 q 1238 1084 1207 1097 q 1269 1067 1269 1071 q 1097 972 1163 1067 q 990 717 1031 876 q 889 244 949 558 q 844 11 850 40 q 803 -4 831 3 q 754 -11 776 -11 q 499 494 635 228 q 429 631 460 568 q 372 744 399 693 q 322 501 342 610 q 276 236 301 392 q 235 -15 240 19 l 172 -15 q 130 -3 144 -15 q 115 26 115 10 q 146 184 115 50 q 213 465 176 318 q 273 717 246 599 q 300 853 300 835 q 290 869 300 864 q 258 874 281 874 l 211 872 q 161 869 175 869 q 131 875 139 869 q 124 899 124 881 q 135 961 124 932 q 188 946 156 951 q 251 940 221 940 q 374 964 310 940 q 388 958 381 964 q 400 942 394 951 l 506 729 q 778 182 614 510 q 899 775 860 601 q 985 1033 939 949 q 1100 1118 1031 1118 z "},"O":{"ha":1100,"x_min":92,"x_max":1075,"o":"m 503 -21 q 201 90 310 -21 q 92 407 92 200 q 165 711 92 576 q 368 922 238 846 q 664 999 499 999 q 966 891 857 999 q 1075 579 1075 783 q 1003 275 1075 413 q 800 58 931 138 q 503 -21 669 -21 m 522 56 q 745 126 653 56 q 884 314 838 197 q 931 567 931 431 q 851 838 931 749 q 636 926 772 926 q 421 856 513 926 q 281 667 329 786 q 232 406 232 549 q 307 143 232 231 q 522 56 382 56 z "},"Ó":{"ha":1100,"x_min":92,"x_max":1075,"o":"m 503 -21 q 201 90 310 -21 q 92 407 92 200 q 165 711 92 576 q 368 922 238 846 q 664 999 499 999 q 966 891 857 999 q 1075 579 1075 783 q 1003 275 1075 413 q 800 58 931 138 q 503 -21 669 -21 m 522 56 q 745 126 653 56 q 884 314 838 197 q 931 567 931 431 q 851 838 931 749 q 636 926 772 926 q 421 856 513 926 q 281 667 329 786 q 232 406 232 549 q 307 143 232 231 q 522 56 382 56 z "},"Ŏ":{"ha":1100,"x_min":92,"x_max":1075,"o":"m 503 -21 q 201 90 310 -21 q 92 407 92 200 q 165 711 92 576 q 368 922 238 846 q 664 999 499 999 q 966 891 857 999 q 1075 579 1075 783 q 1003 275 1075 413 q 800 58 931 138 q 503 -21 669 -21 m 522 56 q 745 126 653 56 q 884 314 838 197 q 931 567 931 431 q 851 838 931 749 q 636 926 772 926 q 421 856 513 926 q 281 667 329 786 q 232 406 232 549 q 307 143 232 231 q 522 56 382 56 z "},"Ǒ":{"ha":1100,"x_min":92,"x_max":1075,"o":"m 503 -21 q 201 90 310 -21 q 92 407 92 200 q 165 711 92 576 q 368 922 238 846 q 664 999 499 999 q 966 891 857 999 q 1075 579 1075 783 q 1003 275 1075 413 q 800 58 931 138 q 503 -21 669 -21 m 522 56 q 745 126 653 56 q 884 314 838 197 q 931 567 931 431 q 851 838 931 749 q 636 926 772 926 q 421 856 513 926 q 281 667 329 786 q 232 406 232 549 q 307 143 232 231 q 522 56 382 56 z "},"Ô":{"ha":1100,"x_min":92,"x_max":1075,"o":"m 503 -21 q 201 90 310 -21 q 92 407 92 200 q 165 711 92 576 q 368 922 238 846 q 664 999 499 999 q 966 891 857 999 q 1075 579 1075 783 q 1003 275 1075 413 q 800 58 931 138 q 503 -21 669 -21 m 522 56 q 745 126 653 56 q 884 314 838 197 q 931 567 931 431 q 851 838 931 749 q 636 926 772 926 q 421 856 513 926 q 281 667 329 786 q 232 406 232 549 q 307 143 232 231 q 522 56 382 56 z "},"Ố":{"ha":1100,"x_min":92,"x_max":1111,"o":"m 503 -21 q 201 90 310 -21 q 92 407 92 200 q 165 711 92 576 q 368 922 238 846 q 664 999 499 999 q 966 891 857 999 q 1075 579 1075 783 q 1003 275 1075 413 q 800 58 931 138 q 503 -21 669 -21 m 522 56 q 745 126 653 56 q 884 314 838 197 q 931 567 931 431 q 851 838 931 749 q 636 926 772 926 q 421 856 513 926 q 281 667 329 786 q 232 406 232 549 q 307 143 232 231 q 522 56 382 56 m 1033 1518 q 1080 1503 1049 1518 q 1111 1478 1111 1489 q 1094 1457 1111 1472 l 910 1310 q 882 1288 889 1294 q 863 1281 874 1281 q 838 1294 851 1281 q 935 1405 903 1365 q 1015 1507 968 1444 q 1033 1518 1024 1518 m 710 1376 q 751 1356 739 1376 q 808 1226 771 1325 q 846 1104 846 1128 q 818 1072 846 1088 q 767 1056 790 1056 q 694 1271 728 1193 q 553 1083 608 1168 q 510 1101 528 1086 q 493 1133 492 1115 q 506 1163 494 1146 q 660 1349 557 1246 q 686 1372 678 1367 q 710 1376 694 1376 z "},"Ộ":{"ha":1100,"x_min":92,"x_max":1075,"o":"m 503 -21 q 201 90 310 -21 q 92 407 92 200 q 165 711 92 576 q 368 922 238 846 q 664 999 499 999 q 966 891 857 999 q 1075 579 1075 783 q 1003 275 1075 413 q 800 58 931 138 q 503 -21 669 -21 m 522 56 q 745 126 653 56 q 884 314 838 197 q 931 567 931 431 q 851 838 931 749 q 636 926 772 926 q 421 856 513 926 q 281 667 329 786 q 232 406 232 549 q 307 143 232 231 q 522 56 382 56 z "},"Ồ":{"ha":1100,"x_min":92,"x_max":1075,"o":"m 503 -21 q 201 90 310 -21 q 92 407 92 200 q 165 711 92 576 q 368 922 238 846 q 664 999 499 999 q 966 891 857 999 q 1075 579 1075 783 q 1003 275 1075 413 q 800 58 931 138 q 503 -21 669 -21 m 522 56 q 745 126 653 56 q 884 314 838 197 q 931 567 931 431 q 851 838 931 749 q 636 926 772 926 q 421 856 513 926 q 281 667 329 786 q 232 406 232 549 q 307 143 232 231 q 522 56 382 56 m 817 1564 q 881 1436 856 1485 q 944 1324 906 1388 q 915 1308 933 1308 q 892 1319 903 1308 q 815 1405 868 1339 q 740 1508 763 1471 q 771 1551 750 1531 q 807 1572 792 1572 q 817 1564 814 1572 m 710 1376 q 751 1356 739 1376 q 808 1226 771 1325 q 846 1104 846 1128 q 818 1072 846 1088 q 767 1056 790 1056 q 694 1271 728 1193 q 553 1083 608 1168 q 510 1101 528 1086 q 493 1133 492 1115 q 506 1163 494 1146 q 660 1349 557 1246 q 686 1372 678 1367 q 710 1376 694 1376 z "},"Ổ":{"ha":1100,"x_min":92,"x_max":1075,"o":"m 503 -21 q 201 90 310 -21 q 92 407 92 200 q 165 711 92 576 q 368 922 238 846 q 664 999 499 999 q 966 891 857 999 q 1075 579 1075 783 q 1003 275 1075 413 q 800 58 931 138 q 503 -21 669 -21 m 522 56 q 745 126 653 56 q 884 314 838 197 q 931 567 931 431 q 851 838 931 749 q 636 926 772 926 q 421 856 513 926 q 281 667 329 786 q 232 406 232 549 q 307 143 232 231 q 522 56 382 56 z "},"Ỗ":{"ha":1100,"x_min":92,"x_max":1075,"o":"m 503 -21 q 201 90 310 -21 q 92 407 92 200 q 165 711 92 576 q 368 922 238 846 q 664 999 499 999 q 966 891 857 999 q 1075 579 1075 783 q 1003 275 1075 413 q 800 58 931 138 q 503 -21 669 -21 m 522 56 q 745 126 653 56 q 884 314 838 197 q 931 567 931 431 q 851 838 931 749 q 636 926 772 926 q 421 856 513 926 q 281 667 329 786 q 232 406 232 549 q 307 143 232 231 q 522 56 382 56 z "},"Ö":{"ha":1100,"x_min":92,"x_max":1075,"o":"m 503 -21 q 201 90 310 -21 q 92 407 92 200 q 165 711 92 576 q 368 922 238 846 q 664 999 499 999 q 966 891 857 999 q 1075 579 1075 783 q 1003 275 1075 413 q 800 58 931 138 q 503 -21 669 -21 m 522 56 q 745 126 653 56 q 884 314 838 197 q 931 567 931 431 q 851 838 931 749 q 636 926 772 926 q 421 856 513 926 q 281 667 329 786 q 232 406 232 549 q 307 143 232 231 q 522 56 382 56 z "},"Ọ":{"ha":1100,"x_min":92,"x_max":1075,"o":"m 503 -21 q 201 90 310 -21 q 92 407 92 200 q 165 711 92 576 q 368 922 238 846 q 664 999 499 999 q 966 891 857 999 q 1075 579 1075 783 q 1003 275 1075 413 q 800 58 931 138 q 503 -21 669 -21 m 522 56 q 745 126 653 56 q 884 314 838 197 q 931 567 931 431 q 851 838 931 749 q 636 926 772 926 q 421 856 513 926 q 281 667 329 786 q 232 406 232 549 q 307 143 232 231 q 522 56 382 56 z "},"Ò":{"ha":1100,"x_min":92,"x_max":1075,"o":"m 503 -21 q 201 90 310 -21 q 92 407 92 200 q 165 711 92 576 q 368 922 238 846 q 664 999 499 999 q 966 891 857 999 q 1075 579 1075 783 q 1003 275 1075 413 q 800 58 931 138 q 503 -21 669 -21 m 522 56 q 745 126 653 56 q 884 314 838 197 q 931 567 931 431 q 851 838 931 749 q 636 926 772 926 q 421 856 513 926 q 281 667 329 786 q 232 406 232 549 q 307 143 232 231 q 522 56 382 56 z "},"Ỏ":{"ha":1100,"x_min":92,"x_max":1075,"o":"m 503 -21 q 201 90 310 -21 q 92 407 92 200 q 165 711 92 576 q 368 922 238 846 q 664 999 499 999 q 966 891 857 999 q 1075 579 1075 783 q 1003 275 1075 413 q 800 58 931 138 q 503 -21 669 -21 m 522 56 q 745 126 653 56 q 884 314 838 197 q 931 567 931 431 q 851 838 931 749 q 636 926 772 926 q 421 856 513 926 q 281 667 329 786 q 232 406 232 549 q 307 143 232 231 q 522 56 382 56 m 606 1042 q 581 1064 576 1042 q 651 1133 621 1090 q 682 1210 682 1176 q 636 1246 682 1246 q 583 1240 611 1246 q 610 1288 589 1271 q 694 1313 640 1313 q 769 1291 743 1313 q 794 1231 794 1269 q 763 1142 794 1186 q 688 1070 732 1099 q 606 1042 643 1042 z "},"Ơ":{"ha":1100,"x_min":92,"x_max":1242,"o":"m 1242 972 q 1219 886 1242 931 q 1156 812 1197 842 q 1061 782 1115 782 q 1038 783 1046 782 q 1075 579 1075 699 q 1003 275 1075 413 q 800 58 931 138 q 503 -21 669 -21 q 201 90 310 -21 q 92 407 92 200 q 165 711 92 576 q 368 922 238 846 q 664 999 499 999 q 839 971 761 999 q 969 888 917 943 q 1047 861 1000 861 q 1117 897 1096 861 q 1138 999 1138 932 q 1133 1056 1138 1042 q 1184 1047 1161 1056 q 1221 1028 1207 1039 q 1242 972 1242 1011 m 522 56 q 745 126 653 56 q 884 314 838 197 q 931 567 931 431 q 851 838 931 749 q 636 926 772 926 q 421 856 513 926 q 281 667 329 786 q 232 406 232 549 q 307 143 232 231 q 522 56 382 56 z "},"Ớ":{"ha":1100,"x_min":92,"x_max":1242,"o":"m 1242 972 q 1219 886 1242 931 q 1156 812 1197 842 q 1061 782 1115 782 q 1038 783 1046 782 q 1075 579 1075 699 q 1003 275 1075 413 q 800 58 931 138 q 503 -21 669 -21 q 201 90 310 -21 q 92 407 92 200 q 165 711 92 576 q 368 922 238 846 q 664 999 499 999 q 839 971 761 999 q 969 888 917 943 q 1047 861 1000 861 q 1117 897 1096 861 q 1138 999 1138 932 q 1133 1056 1138 1042 q 1184 1047 1161 1056 q 1221 1028 1207 1039 q 1242 972 1242 1011 m 522 56 q 745 126 653 56 q 884 314 838 197 q 931 567 931 431 q 851 838 931 749 q 636 926 772 926 q 421 856 513 926 q 281 667 329 786 q 232 406 232 549 q 307 143 232 231 q 522 56 382 56 z "},"Ợ":{"ha":1100,"x_min":92,"x_max":1242,"o":"m 1242 972 q 1219 886 1242 931 q 1156 812 1197 842 q 1061 782 1115 782 q 1038 783 1046 782 q 1075 579 1075 699 q 1003 275 1075 413 q 800 58 931 138 q 503 -21 669 -21 q 201 90 310 -21 q 92 407 92 200 q 165 711 92 576 q 368 922 238 846 q 664 999 499 999 q 839 971 761 999 q 969 888 917 943 q 1047 861 1000 861 q 1117 897 1096 861 q 1138 999 1138 932 q 1133 1056 1138 1042 q 1184 1047 1161 1056 q 1221 1028 1207 1039 q 1242 972 1242 1011 m 522 56 q 745 126 653 56 q 884 314 838 197 q 931 567 931 431 q 851 838 931 749 q 636 926 772 926 q 421 856 513 926 q 281 667 329 786 q 232 406 232 549 q 307 143 232 231 q 522 56 382 56 z "},"Ờ":{"ha":1100,"x_min":92,"x_max":1242,"o":"m 1242 972 q 1219 886 1242 931 q 1156 812 1197 842 q 1061 782 1115 782 q 1038 783 1046 782 q 1075 579 1075 699 q 1003 275 1075 413 q 800 58 931 138 q 503 -21 669 -21 q 201 90 310 -21 q 92 407 92 200 q 165 711 92 576 q 368 922 238 846 q 664 999 499 999 q 839 971 761 999 q 969 888 917 943 q 1047 861 1000 861 q 1117 897 1096 861 q 1138 999 1138 932 q 1133 1056 1138 1042 q 1184 1047 1161 1056 q 1221 1028 1207 1039 q 1242 972 1242 1011 m 522 56 q 745 126 653 56 q 884 314 838 197 q 931 567 931 431 q 851 838 931 749 q 636 926 772 926 q 421 856 513 926 q 281 667 329 786 q 232 406 232 549 q 307 143 232 231 q 522 56 382 56 z "},"Ở":{"ha":1100,"x_min":92,"x_max":1242,"o":"m 1242 972 q 1219 886 1242 931 q 1156 812 1197 842 q 1061 782 1115 782 q 1038 783 1046 782 q 1075 579 1075 699 q 1003 275 1075 413 q 800 58 931 138 q 503 -21 669 -21 q 201 90 310 -21 q 92 407 92 200 q 165 711 92 576 q 368 922 238 846 q 664 999 499 999 q 839 971 761 999 q 969 888 917 943 q 1047 861 1000 861 q 1117 897 1096 861 q 1138 999 1138 932 q 1133 1056 1138 1042 q 1184 1047 1161 1056 q 1221 1028 1207 1039 q 1242 972 1242 1011 m 522 56 q 745 126 653 56 q 884 314 838 197 q 931 567 931 431 q 851 838 931 749 q 636 926 772 926 q 421 856 513 926 q 281 667 329 786 q 232 406 232 549 q 307 143 232 231 q 522 56 382 56 m 606 1042 q 581 1064 576 1042 q 651 1133 621 1090 q 682 1210 682 1176 q 636 1246 682 1246 q 583 1240 611 1246 q 610 1288 589 1271 q 694 1313 640 1313 q 769 1291 743 1313 q 794 1231 794 1269 q 763 1142 794 1186 q 688 1070 732 1099 q 606 1042 643 1042 z "},"Ỡ":{"ha":1100,"x_min":92,"x_max":1242,"o":"m 1242 972 q 1219 886 1242 931 q 1156 812 1197 842 q 1061 782 1115 782 q 1038 783 1046 782 q 1075 579 1075 699 q 1003 275 1075 413 q 800 58 931 138 q 503 -21 669 -21 q 201 90 310 -21 q 92 407 92 200 q 165 711 92 576 q 368 922 238 846 q 664 999 499 999 q 839 971 761 999 q 969 888 917 943 q 1047 861 1000 861 q 1117 897 1096 861 q 1138 999 1138 932 q 1133 1056 1138 1042 q 1184 1047 1161 1056 q 1221 1028 1207 1039 q 1242 972 1242 1011 m 522 56 q 745 126 653 56 q 884 314 838 197 q 931 567 931 431 q 851 838 931 749 q 636 926 772 926 q 421 856 513 926 q 281 667 329 786 q 232 406 232 549 q 307 143 232 231 q 522 56 382 56 z "},"Ő":{"ha":1100,"x_min":92,"x_max":1075,"o":"m 503 -21 q 201 90 310 -21 q 92 407 92 200 q 165 711 92 576 q 368 922 238 846 q 664 999 499 999 q 966 891 857 999 q 1075 579 1075 783 q 1003 275 1075 413 q 800 58 931 138 q 503 -21 669 -21 m 522 56 q 745 126 653 56 q 884 314 838 197 q 931 567 931 431 q 851 838 931 749 q 636 926 772 926 q 421 856 513 926 q 281 667 329 786 q 232 406 232 549 q 307 143 232 231 q 522 56 382 56 m 592 1057 q 575 1065 582 1057 q 567 1075 568 1074 q 776 1339 707 1258 q 797 1353 788 1353 q 838 1330 811 1353 q 860 1293 864 1307 q 844 1272 857 1283 q 831 1258 832 1260 q 607 1065 749 1186 q 592 1057 599 1057 m 751 1056 q 738 1062 744 1056 q 728 1072 731 1068 l 975 1342 q 986 1349 982 1349 q 1008 1337 993 1349 q 1032 1308 1022 1325 q 1039 1279 1042 1292 q 1010 1247 1035 1265 q 863 1135 961 1213 l 765 1061 q 751 1056 756 1056 z "},"Ō":{"ha":1100,"x_min":92,"x_max":1075,"o":"m 503 -21 q 201 90 310 -21 q 92 407 92 200 q 165 711 92 576 q 368 922 238 846 q 664 999 499 999 q 966 891 857 999 q 1075 579 1075 783 q 1003 275 1075 413 q 800 58 931 138 q 503 -21 669 -21 m 522 56 q 745 126 653 56 q 884 314 838 197 q 931 567 931 431 q 851 838 931 749 q 636 926 772 926 q 421 856 513 926 q 281 667 329 786 q 232 406 232 549 q 307 143 232 231 q 522 56 382 56 z "},"Ø":{"ha":1217,"x_min":-32,"x_max":1171,"o":"m 943 913 q 1075 579 1075 804 q 1003 275 1075 413 q 800 58 931 138 q 503 -21 669 -21 q 267 38 363 -21 l 144 -117 l 49 -239 q 25 -251 39 -251 q -13 -239 6 -251 q -32 -221 -32 -226 l 206 85 q 92 407 92 196 q 165 711 92 576 q 368 922 238 846 q 664 999 499 999 q 881 953 789 999 l 1090 1224 q 1115 1238 1101 1238 q 1151 1226 1132 1238 q 1171 1210 1171 1214 l 943 913 m 232 406 q 281 181 232 267 l 817 871 q 636 926 744 926 q 421 856 513 926 q 281 667 329 786 q 232 406 232 549 m 522 56 q 745 126 653 56 q 884 314 838 197 q 931 567 931 431 q 868 815 931 725 q 331 119 560 413 q 522 56 400 56 z "},"Ǿ":{"ha":1217,"x_min":-32,"x_max":1171,"o":"m 943 913 q 1075 579 1075 804 q 1003 275 1075 413 q 800 58 931 138 q 503 -21 669 -21 q 267 38 363 -21 l 144 -117 l 49 -239 q 25 -251 39 -251 q -13 -239 6 -251 q -32 -221 -32 -226 l 206 85 q 92 407 92 196 q 165 711 92 576 q 368 922 238 846 q 664 999 499 999 q 881 953 789 999 l 1090 1224 q 1115 1238 1101 1238 q 1151 1226 1132 1238 q 1171 1210 1171 1214 l 943 913 m 232 406 q 281 181 232 267 l 817 871 q 636 926 744 926 q 421 856 513 926 q 281 667 329 786 q 232 406 232 549 m 522 56 q 745 126 653 56 q 884 314 838 197 q 931 567 931 431 q 868 815 931 725 q 331 119 560 413 q 522 56 400 56 z "},"Õ":{"ha":1100,"x_min":92,"x_max":1075,"o":"m 503 -21 q 201 90 310 -21 q 92 407 92 200 q 165 711 92 576 q 368 922 238 846 q 664 999 499 999 q 966 891 857 999 q 1075 579 1075 783 q 1003 275 1075 413 q 800 58 931 138 q 503 -21 669 -21 m 522 56 q 745 126 653 56 q 884 314 838 197 q 931 567 931 431 q 851 838 931 749 q 636 926 772 926 q 421 856 513 926 q 281 667 329 786 q 232 406 232 549 q 307 143 232 231 q 522 56 382 56 z "},"Œ":{"ha":1701,"x_min":92,"x_max":1676,"o":"m 1649 972 q 1665 966 1657 972 q 1676 951 1672 960 q 1653 899 1671 944 q 1633 832 1635 853 l 1618 833 q 1605 863 1614 851 q 1575 878 1596 875 q 1388 898 1485 890 q 1224 906 1290 906 q 1183 901 1192 906 q 1169 882 1175 897 q 1132 747 1154 839 q 1088 550 1110 656 q 1518 588 1397 550 l 1526 581 q 1506 506 1507 526 q 1504 479 1506 486 q 1486 471 1503 471 l 1071 471 q 1030 253 1046 350 q 1014 122 1014 156 q 1038 73 1014 88 q 1129 58 1063 58 q 1347 90 1235 58 q 1536 193 1458 121 q 1539 196 1539 196 q 1547 186 1543 196 q 1525 106 1538 175 q 1517 69 1519 78 q 1499 45 1513 56 q 1464 29 1485 35 q 1287 -8 1360 3 q 1135 -18 1214 -18 q 931 12 988 -18 q 875 96 875 42 q 876 114 875 107 q 707 14 801 49 q 503 -21 613 -21 q 201 90 310 -21 q 92 407 92 200 q 165 711 92 576 q 368 922 238 846 q 664 999 499 999 q 880 953 789 999 q 1021 819 971 908 l 1042 910 q 1048 942 1044 922 q 1059 969 1051 963 q 1083 975 1067 975 l 1649 972 m 522 56 q 745 126 653 56 q 884 314 838 197 q 931 567 931 431 q 851 838 931 749 q 636 926 772 926 q 421 856 513 926 q 281 667 329 786 q 232 406 232 549 q 307 143 232 231 q 522 56 382 56 z "},"P":{"ha":896,"x_min":10,"x_max":888,"o":"m 146 -10 q 109 -2 118 -10 q 100 24 100 6 q 123 170 100 56 q 192 493 146 285 q 244 741 221 625 q 268 879 268 857 q 244 890 268 890 q 178 882 231 890 q 67 869 103 869 q 22 877 35 869 q 10 904 10 885 q 17 949 10 922 q 33 989 25 976 q 160 969 83 969 q 347 982 225 969 q 435 989 364 983 q 561 994 506 994 q 806 936 725 994 q 888 751 888 878 q 835 565 888 646 q 694 441 783 485 q 500 397 606 397 q 395 417 425 397 q 365 463 365 436 q 372 487 365 475 q 386 506 378 499 q 429 488 399 496 q 499 481 460 481 q 635 514 578 481 q 722 604 692 547 q 751 732 751 661 q 544 917 751 917 q 444 904 489 917 q 392 864 399 892 q 302 425 364 749 q 240 54 240 101 q 242 28 240 42 q 243 4 243 15 q 146 -10 188 -10 z "},"Þ":{"ha":896,"x_min":86,"x_max":846,"o":"m 558 772 q 769 715 693 772 q 846 544 846 657 q 794 375 846 450 q 652 257 742 300 q 457 214 563 214 q 314 235 386 214 q 308 267 313 242 q 296 307 304 293 q 308 317 303 314 q 369 291 328 303 q 454 279 411 279 q 584 315 526 279 q 675 410 642 350 q 708 543 708 471 q 664 669 708 626 q 538 713 619 713 q 406 687 469 713 q 326 619 342 661 q 309 552 321 604 q 289 451 297 500 q 251 210 269 346 q 233 36 233 74 q 243 -11 233 14 q 210 -14 236 -11 q 156 -17 185 -17 q 106 -8 118 -17 q 94 28 94 0 q 104 106 94 53 q 135 253 107 121 q 207 624 181 467 l 213 656 q 235 797 226 740 q 243 874 243 854 q 235 904 243 897 q 201 911 226 911 l 94 908 q 88 939 90 919 q 86 972 86 958 l 142 971 q 222 968 194 968 q 296 971 249 968 l 361 972 q 390 950 386 972 l 381 911 q 350 761 365 853 l 344 731 q 558 772 444 772 z "},"Q":{"ha":1082,"x_min":122,"x_max":1186,"o":"m 1154 -57 q 1178 -81 1169 -68 q 1186 -112 1186 -93 q 1154 -185 1186 -153 q 1065 -237 1122 -218 q 936 -256 1008 -256 q 494 -11 688 -256 l 481 -11 q 294 27 375 -11 q 167 133 213 65 q 122 286 122 200 q 189 456 122 393 q 358 521 256 518 q 464 262 414 372 q 567 68 514 151 q 744 172 667 94 q 863 362 821 250 q 906 594 906 474 q 830 836 906 754 q 611 918 754 918 q 418 871 501 918 q 286 740 335 824 q 228 547 238 656 q 148 567 169 547 q 126 625 126 586 q 196 794 126 710 q 382 935 265 879 q 632 990 499 990 q 849 940 756 990 q 992 796 942 889 q 1043 576 1043 703 q 988 324 1043 443 q 834 120 932 204 q 611 4 736 36 q 758 -127 679 -82 q 933 -172 838 -172 q 1067 -144 1008 -172 q 1154 -57 1126 -115 m 215 283 q 278 131 215 194 q 444 58 342 68 q 271 404 351 199 q 215 283 215 360 z "},"R":{"ha":1000,"x_min":-18,"x_max":1940,"o":"m 1917 -143 q 1935 -159 1929 -151 q 1940 -182 1940 -167 q 1908 -260 1940 -222 q 1808 -322 1875 -297 q 1640 -346 1740 -346 q 1205 -228 1421 -346 q 805 76 989 -111 q 476 479 621 263 q 483 497 478 492 q 496 503 488 501 q 693 534 618 515 q 815 595 768 553 q 861 714 861 638 q 775 876 861 824 q 553 929 689 929 q 507 924 522 929 q 488 900 492 918 q 361 307 415 625 l 311 6 q 228 -9 276 8 q 169 -46 181 -26 q 160 -42 167 -46 q 151 -37 154 -39 q 275 503 200 151 q 350 904 350 854 q 344 920 350 917 q 321 924 338 924 q 212 892 261 924 q 135 810 163 861 q 107 699 107 758 q 163 560 107 613 q 108 566 144 560 q 51 579 71 572 q 0 626 18 592 q -18 706 -18 661 q 53 860 -18 796 q 244 958 125 925 q 504 990 364 990 q 739 965 626 990 q 924 884 851 939 q 997 746 997 829 q 945 615 997 675 q 809 515 893 556 q 633 458 725 475 q 878 147 717 307 q 1247 -120 1040 -12 q 1660 -228 1453 -228 q 1820 -205 1754 -228 q 1917 -143 1886 -182 z "},"Ŕ":{"ha":1000,"x_min":-18,"x_max":1940,"o":"m 1917 -143 q 1935 -159 1929 -151 q 1940 -182 1940 -167 q 1908 -260 1940 -222 q 1808 -322 1875 -297 q 1640 -346 1740 -346 q 1205 -228 1421 -346 q 805 76 989 -111 q 476 479 621 263 q 483 497 478 492 q 496 503 488 501 q 693 534 618 515 q 815 595 768 553 q 861 714 861 638 q 775 876 861 824 q 553 929 689 929 q 507 924 522 929 q 488 900 492 918 q 361 307 415 625 l 311 6 q 228 -9 276 8 q 169 -46 181 -26 q 160 -42 167 -46 q 151 -37 154 -39 q 275 503 200 151 q 350 904 350 854 q 344 920 350 917 q 321 924 338 924 q 212 892 261 924 q 135 810 163 861 q 107 699 107 758 q 163 560 107 613 q 108 566 144 560 q 51 579 71 572 q 0 626 18 592 q -18 706 -18 661 q 53 860 -18 796 q 244 958 125 925 q 504 990 364 990 q 739 965 626 990 q 924 884 851 939 q 997 746 997 829 q 945 615 997 675 q 809 515 893 556 q 633 458 725 475 q 878 147 717 307 q 1247 -120 1040 -12 q 1660 -228 1453 -228 q 1820 -205 1754 -228 q 1917 -143 1886 -182 z "},"Ř":{"ha":1000,"x_min":-18,"x_max":1940,"o":"m 1917 -143 q 1935 -159 1929 -151 q 1940 -182 1940 -167 q 1908 -260 1940 -222 q 1808 -322 1875 -297 q 1640 -346 1740 -346 q 1205 -228 1421 -346 q 805 76 989 -111 q 476 479 621 263 q 483 497 478 492 q 496 503 488 501 q 693 534 618 515 q 815 595 768 553 q 861 714 861 638 q 775 876 861 824 q 553 929 689 929 q 507 924 522 929 q 488 900 492 918 q 361 307 415 625 l 311 6 q 228 -9 276 8 q 169 -46 181 -26 q 160 -42 167 -46 q 151 -37 154 -39 q 275 503 200 151 q 350 904 350 854 q 344 920 350 917 q 321 924 338 924 q 212 892 261 924 q 135 810 163 861 q 107 699 107 758 q 163 560 107 613 q 108 566 144 560 q 51 579 71 572 q 0 626 18 592 q -18 706 -18 661 q 53 860 -18 796 q 244 958 125 925 q 504 990 364 990 q 739 965 626 990 q 924 884 851 939 q 997 746 997 829 q 945 615 997 675 q 809 515 893 556 q 633 458 725 475 q 878 147 717 307 q 1247 -120 1040 -12 q 1660 -228 1453 -228 q 1820 -205 1754 -228 q 1917 -143 1886 -182 z "},"Ŗ":{"ha":1000,"x_min":-18,"x_max":1940,"o":"m 1917 -143 q 1935 -159 1929 -151 q 1940 -182 1940 -167 q 1908 -260 1940 -222 q 1808 -322 1875 -297 q 1640 -346 1740 -346 q 1205 -228 1421 -346 q 805 76 989 -111 q 476 479 621 263 q 483 497 478 492 q 496 503 488 501 q 693 534 618 515 q 815 595 768 553 q 861 714 861 638 q 775 876 861 824 q 553 929 689 929 q 507 924 522 929 q 488 900 492 918 q 361 307 415 625 l 311 6 q 228 -9 276 8 q 169 -46 181 -26 q 160 -42 167 -46 q 151 -37 154 -39 q 275 503 200 151 q 350 904 350 854 q 344 920 350 917 q 321 924 338 924 q 212 892 261 924 q 135 810 163 861 q 107 699 107 758 q 163 560 107 613 q 108 566 144 560 q 51 579 71 572 q 0 626 18 592 q -18 706 -18 661 q 53 860 -18 796 q 244 958 125 925 q 504 990 364 990 q 739 965 626 990 q 924 884 851 939 q 997 746 997 829 q 945 615 997 675 q 809 515 893 556 q 633 458 725 475 q 878 147 717 307 q 1247 -120 1040 -12 q 1660 -228 1453 -228 q 1820 -205 1754 -228 q 1917 -143 1886 -182 m 322 -397 q 294 -382 301 -397 q 365 -304 338 -354 q 392 -210 392 -254 q 361 -135 392 -162 q 444 -93 396 -93 q 493 -112 476 -93 q 510 -167 510 -131 q 476 -274 510 -221 q 397 -362 442 -328 q 322 -397 351 -397 z "},"Ṛ":{"ha":1000,"x_min":-18,"x_max":1940,"o":"m 1917 -143 q 1935 -159 1929 -151 q 1940 -182 1940 -167 q 1908 -260 1940 -222 q 1808 -322 1875 -297 q 1640 -346 1740 -346 q 1205 -228 1421 -346 q 805 76 989 -111 q 476 479 621 263 q 483 497 478 492 q 496 503 488 501 q 693 534 618 515 q 815 595 768 553 q 861 714 861 638 q 775 876 861 824 q 553 929 689 929 q 507 924 522 929 q 488 900 492 918 q 361 307 415 625 l 311 6 q 228 -9 276 8 q 169 -46 181 -26 q 160 -42 167 -46 q 151 -37 154 -39 q 275 503 200 151 q 350 904 350 854 q 344 920 350 917 q 321 924 338 924 q 212 892 261 924 q 135 810 163 861 q 107 699 107 758 q 163 560 107 613 q 108 566 144 560 q 51 579 71 572 q 0 626 18 592 q -18 706 -18 661 q 53 860 -18 796 q 244 958 125 925 q 504 990 364 990 q 739 965 626 990 q 924 884 851 939 q 997 746 997 829 q 945 615 997 675 q 809 515 893 556 q 633 458 725 475 q 878 147 717 307 q 1247 -120 1040 -12 q 1660 -228 1453 -228 q 1820 -205 1754 -228 q 1917 -143 1886 -182 z "},"Ṝ":{"ha":1000,"x_min":-18,"x_max":1940,"o":"m 1917 -143 q 1935 -159 1929 -151 q 1940 -182 1940 -167 q 1908 -260 1940 -222 q 1808 -322 1875 -297 q 1640 -346 1740 -346 q 1205 -228 1421 -346 q 805 76 989 -111 q 476 479 621 263 q 483 497 478 492 q 496 503 488 501 q 693 534 618 515 q 815 595 768 553 q 861 714 861 638 q 775 876 861 824 q 553 929 689 929 q 507 924 522 929 q 488 900 492 918 q 361 307 415 625 l 311 6 q 228 -9 276 8 q 169 -46 181 -26 q 160 -42 167 -46 q 151 -37 154 -39 q 275 503 200 151 q 350 904 350 854 q 344 920 350 917 q 321 924 338 924 q 212 892 261 924 q 135 810 163 861 q 107 699 107 758 q 163 560 107 613 q 108 566 144 560 q 51 579 71 572 q 0 626 18 592 q -18 706 -18 661 q 53 860 -18 796 q 244 958 125 925 q 504 990 364 990 q 739 965 626 990 q 924 884 851 939 q 997 746 997 829 q 945 615 997 675 q 809 515 893 556 q 633 458 725 475 q 878 147 717 307 q 1247 -120 1040 -12 q 1660 -228 1453 -228 q 1820 -205 1754 -228 q 1917 -143 1886 -182 z "},"Ṟ":{"ha":1000,"x_min":-18,"x_max":1940,"o":"m 1917 -143 q 1935 -159 1929 -151 q 1940 -182 1940 -167 q 1908 -260 1940 -222 q 1808 -322 1875 -297 q 1640 -346 1740 -346 q 1205 -228 1421 -346 q 805 76 989 -111 q 476 479 621 263 q 483 497 478 492 q 496 503 488 501 q 693 534 618 515 q 815 595 768 553 q 861 714 861 638 q 775 876 861 824 q 553 929 689 929 q 507 924 522 929 q 488 900 492 918 q 361 307 415 625 l 311 6 q 228 -9 276 8 q 169 -46 181 -26 q 160 -42 167 -46 q 151 -37 154 -39 q 275 503 200 151 q 350 904 350 854 q 344 920 350 917 q 321 924 338 924 q 212 892 261 924 q 135 810 163 861 q 107 699 107 758 q 163 560 107 613 q 108 566 144 560 q 51 579 71 572 q 0 626 18 592 q -18 706 -18 661 q 53 860 -18 796 q 244 958 125 925 q 504 990 364 990 q 739 965 626 990 q 924 884 851 939 q 997 746 997 829 q 945 615 997 675 q 809 515 893 556 q 633 458 725 475 q 878 147 717 307 q 1247 -120 1040 -12 q 1660 -228 1453 -228 q 1820 -205 1754 -228 q 1917 -143 1886 -182 m 674 -193 q 490 -190 636 -190 l 274 -190 q 146 -192 171 -190 l 179 -99 l 300 -100 q 611 -104 579 -104 q 704 -103 681 -104 l 674 -193 z "},"S":{"ha":764,"x_min":29,"x_max":751,"o":"m 304 -17 q 178 -3 239 -17 q 78 32 118 11 q 29 72 39 53 q 44 172 36 107 q 53 267 51 236 q 92 282 68 279 q 149 112 97 171 q 297 53 200 53 q 459 113 399 53 q 519 265 519 172 q 503 344 519 311 q 460 401 488 376 q 383 458 433 425 q 272 544 314 507 q 204 627 229 581 q 179 733 179 674 q 222 866 179 810 q 337 952 264 922 q 500 982 410 982 q 660 956 588 982 q 751 901 732 931 q 686 733 696 776 q 636 725 665 725 q 654 810 654 774 q 612 894 654 865 q 501 924 569 924 q 358 871 404 924 q 311 749 311 818 q 353 636 311 682 q 461 550 394 590 q 575 473 533 506 q 645 392 617 440 q 674 275 674 343 q 624 119 674 185 q 490 18 574 53 q 304 -17 406 -17 z "},"Ś":{"ha":764,"x_min":29,"x_max":814,"o":"m 304 -17 q 178 -3 239 -17 q 78 32 118 11 q 29 72 39 53 q 44 172 36 107 q 53 267 51 236 q 92 282 68 279 q 149 112 97 171 q 297 53 200 53 q 459 113 399 53 q 519 265 519 172 q 503 344 519 311 q 460 401 488 376 q 383 458 433 425 q 272 544 314 507 q 204 627 229 581 q 179 733 179 674 q 222 866 179 810 q 337 952 264 922 q 500 982 410 982 q 660 956 588 982 q 751 901 732 931 q 686 733 696 776 q 636 725 665 725 q 654 810 654 774 q 612 894 654 865 q 501 924 569 924 q 358 871 404 924 q 311 749 311 818 q 353 636 311 682 q 461 550 394 590 q 575 473 533 506 q 645 392 617 440 q 674 275 674 343 q 624 119 674 185 q 490 18 574 53 q 304 -17 406 -17 z "},"Š":{"ha":764,"x_min":29,"x_max":764,"o":"m 304 -17 q 178 -3 239 -17 q 78 32 118 11 q 29 72 39 53 q 44 172 36 107 q 53 267 51 236 q 92 282 68 279 q 149 112 97 171 q 297 53 200 53 q 459 113 399 53 q 519 265 519 172 q 503 344 519 311 q 460 401 488 376 q 383 458 433 425 q 272 544 314 507 q 204 627 229 581 q 179 733 179 674 q 222 866 179 810 q 337 952 264 922 q 500 982 410 982 q 660 956 588 982 q 751 901 732 931 q 686 733 696 776 q 636 725 665 725 q 654 810 654 774 q 612 894 654 865 q 501 924 569 924 q 358 871 404 924 q 311 749 311 818 q 353 636 311 682 q 461 550 394 590 q 575 473 533 506 q 645 392 617 440 q 674 275 674 343 q 624 119 674 185 q 490 18 574 53 q 304 -17 406 -17 z "},"Ş":{"ha":764,"x_min":29,"x_max":751,"o":"m 686 733 q 636 725 665 725 q 654 810 654 774 q 612 894 654 865 q 501 924 569 924 q 358 871 404 924 q 311 749 311 818 q 353 636 311 682 q 461 550 394 590 q 575 473 533 506 q 645 392 617 440 q 674 275 674 343 q 586 78 674 154 q 363 -14 499 1 q 321 -67 321 -40 q 328 -85 321 -78 q 353 -101 336 -92 q 391 -131 378 -117 q 404 -174 404 -146 q 378 -247 404 -211 q 310 -304 353 -282 q 224 -326 268 -326 q 176 -294 176 -326 q 286 -199 286 -267 q 280 -170 286 -182 q 263 -147 274 -158 q 247 -124 251 -133 q 242 -100 242 -115 q 286 -17 242 -61 q 168 -1 224 -15 q 75 34 113 14 q 29 72 38 54 q 44 172 36 107 q 53 267 51 236 q 92 282 68 279 q 149 112 97 171 q 297 53 200 53 q 459 113 399 53 q 519 265 519 172 q 503 344 519 311 q 460 401 488 376 q 383 458 433 425 q 272 544 314 507 q 204 627 229 581 q 179 733 179 674 q 222 866 179 810 q 337 952 264 922 q 500 982 410 982 q 660 956 588 982 q 751 901 732 931 q 686 733 696 776 z "},"Ŝ":{"ha":764,"x_min":29,"x_max":751,"o":"m 304 -17 q 178 -3 239 -17 q 78 32 118 11 q 29 72 39 53 q 44 172 36 107 q 53 267 51 236 q 92 282 68 279 q 149 112 97 171 q 297 53 200 53 q 459 113 399 53 q 519 265 519 172 q 503 344 519 311 q 460 401 488 376 q 383 458 433 425 q 272 544 314 507 q 204 627 229 581 q 179 733 179 674 q 222 866 179 810 q 337 952 264 922 q 500 982 410 982 q 660 956 588 982 q 751 901 732 931 q 686 733 696 776 q 636 725 665 725 q 654 810 654 774 q 612 894 654 865 q 501 924 569 924 q 358 871 404 924 q 311 749 311 818 q 353 636 311 682 q 461 550 394 590 q 575 473 533 506 q 645 392 617 440 q 674 275 674 343 q 624 119 674 185 q 490 18 574 53 q 304 -17 406 -17 z "},"Ș":{"ha":764,"x_min":29,"x_max":751,"o":"m 304 -17 q 178 -3 239 -17 q 78 32 118 11 q 29 72 39 53 q 44 172 36 107 q 53 267 51 236 q 92 282 68 279 q 149 112 97 171 q 297 53 200 53 q 459 113 399 53 q 519 265 519 172 q 503 344 519 311 q 460 401 488 376 q 383 458 433 425 q 272 544 314 507 q 204 627 229 581 q 179 733 179 674 q 222 866 179 810 q 337 952 264 922 q 500 982 410 982 q 660 956 588 982 q 751 901 732 931 q 686 733 696 776 q 636 725 665 725 q 654 810 654 774 q 612 894 654 865 q 501 924 569 924 q 358 871 404 924 q 311 749 311 818 q 353 636 311 682 q 461 550 394 590 q 575 473 533 506 q 645 392 617 440 q 674 275 674 343 q 624 119 674 185 q 490 18 574 53 q 304 -17 406 -17 m 215 -397 q 188 -382 194 -397 q 258 -304 231 -354 q 285 -210 285 -254 q 254 -135 285 -162 q 338 -93 289 -93 q 386 -112 369 -93 q 403 -167 403 -131 q 369 -274 403 -221 q 290 -362 335 -328 q 215 -397 244 -397 z "},"Ṡ":{"ha":764,"x_min":29,"x_max":751,"o":"m 304 -17 q 178 -3 239 -17 q 78 32 118 11 q 29 72 39 53 q 44 172 36 107 q 53 267 51 236 q 92 282 68 279 q 149 112 97 171 q 297 53 200 53 q 459 113 399 53 q 519 265 519 172 q 503 344 519 311 q 460 401 488 376 q 383 458 433 425 q 272 544 314 507 q 204 627 229 581 q 179 733 179 674 q 222 866 179 810 q 337 952 264 922 q 500 982 410 982 q 660 956 588 982 q 751 901 732 931 q 686 733 696 776 q 636 725 665 725 q 654 810 654 774 q 612 894 654 865 q 501 924 569 924 q 358 871 404 924 q 311 749 311 818 q 353 636 311 682 q 461 550 394 590 q 575 473 533 506 q 645 392 617 440 q 674 275 674 343 q 624 119 674 185 q 490 18 574 53 q 304 -17 406 -17 z "},"Ṣ":{"ha":764,"x_min":29,"x_max":751,"o":"m 304 -17 q 178 -3 239 -17 q 78 32 118 11 q 29 72 39 53 q 44 172 36 107 q 53 267 51 236 q 92 282 68 279 q 149 112 97 171 q 297 53 200 53 q 459 113 399 53 q 519 265 519 172 q 503 344 519 311 q 460 401 488 376 q 383 458 433 425 q 272 544 314 507 q 204 627 229 581 q 179 733 179 674 q 222 866 179 810 q 337 952 264 922 q 500 982 410 982 q 660 956 588 982 q 751 901 732 931 q 686 733 696 776 q 636 725 665 725 q 654 810 654 774 q 612 894 654 865 q 501 924 569 924 q 358 871 404 924 q 311 749 311 818 q 353 636 311 682 q 461 550 394 590 q 575 473 533 506 q 645 392 617 440 q 674 275 674 343 q 624 119 674 185 q 490 18 574 53 q 304 -17 406 -17 z "},"ẞ":{"ha":972,"x_min":53,"x_max":910,"o":"m 643 522 q 828 453 754 515 q 903 282 903 392 q 853 127 903 194 q 721 24 804 60 q 538 -12 638 -12 q 420 2 475 -12 q 333 40 365 17 q 301 90 301 64 q 310 125 301 106 q 329 153 319 144 q 529 64 407 64 q 700 128 636 64 q 764 289 764 192 q 726 401 764 364 q 618 438 688 438 q 500 410 557 438 q 467 438 483 418 q 450 474 450 458 q 456 491 450 482 q 469 507 461 500 q 617 614 519 546 q 665 647 626 621 q 732 697 703 674 q 783 740 761 719 q 717 859 775 813 q 564 906 660 906 q 403 844 460 906 q 322 651 347 783 q 206 7 236 196 q 132 -8 176 -8 q 82 -6 106 -8 q 53 3 58 -3 q 88 115 72 44 q 194 658 132 301 q 315 894 221 806 q 567 982 408 982 q 744 947 667 982 q 866 851 822 913 q 910 714 910 790 q 826 652 871 683 q 760 606 781 621 q 643 522 690 558 z "},"Ə":{"ha":903,"x_min":85,"x_max":860,"o":"m 557 964 q 783 874 707 964 q 860 621 860 785 q 792 317 860 464 q 606 78 725 169 q 342 -14 488 -14 q 156 45 226 -14 q 85 215 85 104 q 144 403 85 317 q 312 539 204 489 q 557 589 419 589 q 725 569 643 589 q 728 643 728 619 q 683 829 728 769 q 529 889 639 889 q 350 845 432 889 q 217 721 268 801 q 192 739 201 724 q 186 774 182 754 q 246 853 193 808 q 381 931 299 899 q 557 964 464 964 m 371 64 q 597 188 508 64 q 715 493 685 313 q 554 513 628 513 q 376 469 450 513 q 264 356 301 425 q 226 211 226 286 q 371 64 226 64 z "},"T":{"ha":829,"x_min":-87,"x_max":1158,"o":"m 174 404 q 62 484 106 425 q 18 638 18 543 q 81 831 18 749 q 253 958 143 914 q 501 1003 363 1003 q 631 994 568 1003 q 778 968 694 985 q 878 951 828 958 q 964 943 928 943 q 1076 963 1025 943 q 1158 1028 1126 983 q 1094 877 1153 932 q 931 822 1036 822 q 808 838 869 822 q 646 886 746 854 q 506 930 563 915 q 399 944 449 944 q 264 904 319 944 q 180 799 208 864 q 151 661 151 735 q 191 522 151 579 q 319 422 231 465 l 314 415 q 174 404 206 415 m 129 -21 q 13 -9 67 -21 q -76 18 -42 3 q -87 114 -87 61 l -79 129 q 136 32 11 32 q 440 351 367 32 q 539 763 504 625 q 606 830 567 800 q 679 874 646 860 l 692 869 q 646 730 667 817 q 592 482 625 643 q 565 356 581 421 q 402 69 517 158 q 129 -21 288 -21 z "},"Ŧ":{"ha":829,"x_min":-87,"x_max":1158,"o":"m 964 943 q 1076 963 1025 943 q 1158 1028 1126 983 q 1094 877 1153 932 q 931 822 1036 822 q 808 838 869 822 q 646 886 746 854 q 506 930 563 915 q 399 944 449 944 q 264 904 319 944 q 180 799 208 864 q 151 661 151 735 q 191 522 151 579 q 319 422 231 465 l 314 415 q 174 404 206 415 q 62 484 106 425 q 18 638 18 543 q 81 831 18 749 q 253 958 143 914 q 501 1003 363 1003 q 631 994 568 1003 q 778 968 694 985 q 878 951 828 958 q 964 943 928 943 m 740 550 l 843 551 l 828 461 q 664 464 756 464 l 589 464 l 578 413 q 565 356 571 376 q 402 69 517 158 q 129 -21 288 -21 q 13 -9 67 -21 q -76 18 -42 3 q -87 114 -87 61 l -79 129 q 136 32 11 32 q 440 351 367 32 l 467 464 l 428 464 q 300 463 325 464 l 317 556 l 488 553 q 539 763 514 665 q 606 830 567 800 q 679 874 646 860 l 692 869 q 607 551 654 785 l 740 550 z "},"Ť":{"ha":829,"x_min":-87,"x_max":1158,"o":"m 174 404 q 62 484 106 425 q 18 638 18 543 q 81 831 18 749 q 253 958 143 914 q 501 1003 363 1003 q 631 994 568 1003 q 778 968 694 985 q 878 951 828 958 q 964 943 928 943 q 1076 963 1025 943 q 1158 1028 1126 983 q 1094 877 1153 932 q 931 822 1036 822 q 808 838 869 822 q 646 886 746 854 q 506 930 563 915 q 399 944 449 944 q 264 904 319 944 q 180 799 208 864 q 151 661 151 735 q 191 522 151 579 q 319 422 231 465 l 314 415 q 174 404 206 415 m 129 -21 q 13 -9 67 -21 q -76 18 -42 3 q -87 114 -87 61 l -79 129 q 136 32 11 32 q 440 351 367 32 q 539 763 504 625 q 606 830 567 800 q 679 874 646 860 l 692 869 q 646 730 667 817 q 592 482 625 643 q 565 356 581 421 q 402 69 517 158 q 129 -21 288 -21 z "},"Ţ":{"ha":829,"x_min":-87,"x_max":1158,"o":"m 964 943 q 1076 963 1025 943 q 1158 1028 1126 983 q 1094 877 1153 932 q 931 822 1036 822 q 808 838 869 822 q 646 886 746 854 q 506 930 563 915 q 399 944 449 944 q 264 904 319 944 q 180 799 208 864 q 151 661 151 735 q 191 522 151 579 q 319 422 231 465 l 314 415 q 174 404 206 415 q 62 484 106 425 q 18 638 18 543 q 81 831 18 749 q 253 958 143 914 q 501 1003 363 1003 q 631 994 568 1003 q 778 968 694 985 q 878 951 828 958 q 964 943 928 943 m 539 763 q 606 830 567 800 q 679 874 646 860 l 692 869 q 646 730 667 817 q 592 482 625 643 q 565 356 581 421 q 435 98 525 188 q 218 -14 344 8 q 176 -67 176 -42 q 184 -85 176 -78 q 208 -101 192 -92 q 247 -131 233 -117 q 260 -174 260 -146 q 234 -247 260 -211 q 166 -304 208 -282 q 79 -326 124 -326 q 32 -294 32 -326 q 142 -199 142 -267 q 135 -170 142 -182 q 118 -147 129 -158 q 102 -124 107 -133 q 97 -100 97 -115 q 138 -21 97 -61 l 129 -21 q 13 -9 67 -21 q -76 18 -42 3 q -87 114 -87 61 l -79 129 q 136 32 11 32 q 440 351 367 32 q 539 763 504 625 z "},"Ț":{"ha":829,"x_min":-87,"x_max":1158,"o":"m 174 404 q 62 484 106 425 q 18 638 18 543 q 81 831 18 749 q 253 958 143 914 q 501 1003 363 1003 q 631 994 568 1003 q 778 968 694 985 q 878 951 828 958 q 964 943 928 943 q 1076 963 1025 943 q 1158 1028 1126 983 q 1094 877 1153 932 q 931 822 1036 822 q 808 838 869 822 q 646 886 746 854 q 506 930 563 915 q 399 944 449 944 q 264 904 319 944 q 180 799 208 864 q 151 661 151 735 q 191 522 151 579 q 319 422 231 465 l 314 415 q 174 404 206 415 m 129 -21 q 13 -9 67 -21 q -76 18 -42 3 q -87 114 -87 61 l -79 129 q 136 32 11 32 q 440 351 367 32 q 539 763 504 625 q 606 830 567 800 q 679 874 646 860 l 692 869 q 646 730 667 817 q 592 482 625 643 q 565 356 581 421 q 402 69 517 158 q 129 -21 288 -21 m 71 -397 q 43 -382 50 -397 q 113 -304 86 -354 q 140 -210 140 -254 q 110 -135 140 -162 q 193 -93 144 -93 q 242 -112 225 -93 q 258 -167 258 -131 q 224 -274 258 -221 q 145 -362 190 -328 q 71 -397 100 -397 z "},"Ṭ":{"ha":829,"x_min":-87,"x_max":1158,"o":"m 174 404 q 62 484 106 425 q 18 638 18 543 q 81 831 18 749 q 253 958 143 914 q 501 1003 363 1003 q 631 994 568 1003 q 778 968 694 985 q 878 951 828 958 q 964 943 928 943 q 1076 963 1025 943 q 1158 1028 1126 983 q 1094 877 1153 932 q 931 822 1036 822 q 808 838 869 822 q 646 886 746 854 q 506 930 563 915 q 399 944 449 944 q 264 904 319 944 q 180 799 208 864 q 151 661 151 735 q 191 522 151 579 q 319 422 231 465 l 314 415 q 174 404 206 415 m 129 -21 q 13 -9 67 -21 q -76 18 -42 3 q -87 114 -87 61 l -79 129 q 136 32 11 32 q 440 351 367 32 q 539 763 504 625 q 606 830 567 800 q 679 874 646 860 l 692 869 q 646 730 667 817 q 592 482 625 643 q 565 356 581 421 q 402 69 517 158 q 129 -21 288 -21 z "},"Ṯ":{"ha":829,"x_min":-106,"x_max":1158,"o":"m 174 404 q 62 484 106 425 q 18 638 18 543 q 81 831 18 749 q 253 958 143 914 q 501 1003 363 1003 q 631 994 568 1003 q 778 968 694 985 q 878 951 828 958 q 964 943 928 943 q 1076 963 1025 943 q 1158 1028 1126 983 q 1094 877 1153 932 q 931 822 1036 822 q 808 838 869 822 q 646 886 746 854 q 506 930 563 915 q 399 944 449 944 q 264 904 319 944 q 180 799 208 864 q 151 661 151 735 q 191 522 151 579 q 319 422 231 465 l 314 415 q 174 404 206 415 m 129 -21 q 13 -9 67 -21 q -76 18 -42 3 q -87 114 -87 61 l -79 129 q 136 32 11 32 q 440 351 367 32 q 539 763 504 625 q 606 830 567 800 q 679 874 646 860 l 692 869 q 646 730 667 817 q 592 482 625 643 q 565 356 581 421 q 402 69 517 158 q 129 -21 288 -21 m 422 -193 q 239 -190 385 -190 l 22 -190 q -106 -192 -81 -190 l -72 -99 l 49 -100 q 360 -104 328 -104 q 453 -103 429 -104 l 422 -193 z "},"U":{"ha":1161,"x_min":83,"x_max":1249,"o":"m 1236 151 q 1249 128 1249 144 q 1206 59 1249 92 q 1100 7 1164 26 q 976 -12 1036 -12 q 828 40 882 -12 q 775 188 775 92 l 775 199 q 618 44 713 100 q 422 -11 524 -11 q 290 21 347 -11 q 201 110 232 53 q 169 238 169 167 q 189 390 169 297 q 244 625 208 482 q 283 781 269 722 q 296 868 296 840 q 290 892 296 885 q 267 899 283 899 q 210 889 246 899 q 135 876 157 876 q 94 887 106 876 q 83 917 83 897 q 88 950 83 931 q 94 975 92 969 q 156 963 114 963 q 261 969 196 963 q 350 975 331 975 q 412 958 393 975 q 431 906 431 942 q 374 618 431 846 q 320 377 338 464 q 303 236 303 290 q 338 122 303 167 q 446 76 372 76 q 593 123 519 76 q 722 250 667 169 q 796 428 776 331 q 843 649 826 579 q 897 849 860 719 q 925 938 915 911 q 946 974 935 964 q 978 985 957 985 q 1042 981 1001 985 q 1099 972 1083 976 q 1072 944 1082 960 q 1047 890 1061 928 q 924 399 985 725 q 909 307 914 343 q 904 233 904 271 q 933 110 904 153 q 1043 68 961 68 q 1154 92 1106 68 q 1236 151 1203 115 z "},"Ú":{"ha":1161,"x_min":83,"x_max":1249,"o":"m 1236 151 q 1249 128 1249 144 q 1206 59 1249 92 q 1100 7 1164 26 q 976 -12 1036 -12 q 828 40 882 -12 q 775 188 775 92 l 775 199 q 618 44 713 100 q 422 -11 524 -11 q 290 21 347 -11 q 201 110 232 53 q 169 238 169 167 q 189 390 169 297 q 244 625 208 482 q 283 781 269 722 q 296 868 296 840 q 290 892 296 885 q 267 899 283 899 q 210 889 246 899 q 135 876 157 876 q 94 887 106 876 q 83 917 83 897 q 88 950 83 931 q 94 975 92 969 q 156 963 114 963 q 261 969 196 963 q 350 975 331 975 q 412 958 393 975 q 431 906 431 942 q 374 618 431 846 q 320 377 338 464 q 303 236 303 290 q 338 122 303 167 q 446 76 372 76 q 593 123 519 76 q 722 250 667 169 q 796 428 776 331 q 843 649 826 579 q 897 849 860 719 q 925 938 915 911 q 946 974 935 964 q 978 985 957 985 q 1042 981 1001 985 q 1099 972 1083 976 q 1072 944 1082 960 q 1047 890 1061 928 q 924 399 985 725 q 909 307 914 343 q 904 233 904 271 q 933 110 904 153 q 1043 68 961 68 q 1154 92 1106 68 q 1236 151 1203 115 z "},"Ŭ":{"ha":1161,"x_min":83,"x_max":1249,"o":"m 1236 151 q 1249 128 1249 144 q 1206 59 1249 92 q 1100 7 1164 26 q 976 -12 1036 -12 q 828 40 882 -12 q 775 188 775 92 l 775 199 q 618 44 713 100 q 422 -11 524 -11 q 290 21 347 -11 q 201 110 232 53 q 169 238 169 167 q 189 390 169 297 q 244 625 208 482 q 283 781 269 722 q 296 868 296 840 q 290 892 296 885 q 267 899 283 899 q 210 889 246 899 q 135 876 157 876 q 94 887 106 876 q 83 917 83 897 q 88 950 83 931 q 94 975 92 969 q 156 963 114 963 q 261 969 196 963 q 350 975 331 975 q 412 958 393 975 q 431 906 431 942 q 374 618 431 846 q 320 377 338 464 q 303 236 303 290 q 338 122 303 167 q 446 76 372 76 q 593 123 519 76 q 722 250 667 169 q 796 428 776 331 q 843 649 826 579 q 897 849 860 719 q 925 938 915 911 q 946 974 935 964 q 978 985 957 985 q 1042 981 1001 985 q 1099 972 1083 976 q 1072 944 1082 960 q 1047 890 1061 928 q 924 399 985 725 q 909 307 914 343 q 904 233 904 271 q 933 110 904 153 q 1043 68 961 68 q 1154 92 1106 68 q 1236 151 1203 115 z "},"Ǔ":{"ha":1161,"x_min":83,"x_max":1249,"o":"m 1236 151 q 1249 128 1249 144 q 1206 59 1249 92 q 1100 7 1164 26 q 976 -12 1036 -12 q 828 40 882 -12 q 775 188 775 92 l 775 199 q 618 44 713 100 q 422 -11 524 -11 q 290 21 347 -11 q 201 110 232 53 q 169 238 169 167 q 189 390 169 297 q 244 625 208 482 q 283 781 269 722 q 296 868 296 840 q 290 892 296 885 q 267 899 283 899 q 210 889 246 899 q 135 876 157 876 q 94 887 106 876 q 83 917 83 897 q 88 950 83 931 q 94 975 92 969 q 156 963 114 963 q 261 969 196 963 q 350 975 331 975 q 412 958 393 975 q 431 906 431 942 q 374 618 431 846 q 320 377 338 464 q 303 236 303 290 q 338 122 303 167 q 446 76 372 76 q 593 123 519 76 q 722 250 667 169 q 796 428 776 331 q 843 649 826 579 q 897 849 860 719 q 925 938 915 911 q 946 974 935 964 q 978 985 957 985 q 1042 981 1001 985 q 1099 972 1083 976 q 1072 944 1082 960 q 1047 890 1061 928 q 924 399 985 725 q 909 307 914 343 q 904 233 904 271 q 933 110 904 153 q 1043 68 961 68 q 1154 92 1106 68 q 1236 151 1203 115 z "},"Û":{"ha":1161,"x_min":83,"x_max":1249,"o":"m 1236 151 q 1249 128 1249 144 q 1206 59 1249 92 q 1100 7 1164 26 q 976 -12 1036 -12 q 828 40 882 -12 q 775 188 775 92 l 775 199 q 618 44 713 100 q 422 -11 524 -11 q 290 21 347 -11 q 201 110 232 53 q 169 238 169 167 q 189 390 169 297 q 244 625 208 482 q 283 781 269 722 q 296 868 296 840 q 290 892 296 885 q 267 899 283 899 q 210 889 246 899 q 135 876 157 876 q 94 887 106 876 q 83 917 83 897 q 88 950 83 931 q 94 975 92 969 q 156 963 114 963 q 261 969 196 963 q 350 975 331 975 q 412 958 393 975 q 431 906 431 942 q 374 618 431 846 q 320 377 338 464 q 303 236 303 290 q 338 122 303 167 q 446 76 372 76 q 593 123 519 76 q 722 250 667 169 q 796 428 776 331 q 843 649 826 579 q 897 849 860 719 q 925 938 915 911 q 946 974 935 964 q 978 985 957 985 q 1042 981 1001 985 q 1099 972 1083 976 q 1072 944 1082 960 q 1047 890 1061 928 q 924 399 985 725 q 909 307 914 343 q 904 233 904 271 q 933 110 904 153 q 1043 68 961 68 q 1154 92 1106 68 q 1236 151 1203 115 z "},"Ü":{"ha":1161,"x_min":83,"x_max":1249,"o":"m 1236 151 q 1249 128 1249 144 q 1206 59 1249 92 q 1100 7 1164 26 q 976 -12 1036 -12 q 828 40 882 -12 q 775 188 775 92 l 775 199 q 618 44 713 100 q 422 -11 524 -11 q 290 21 347 -11 q 201 110 232 53 q 169 238 169 167 q 189 390 169 297 q 244 625 208 482 q 283 781 269 722 q 296 868 296 840 q 290 892 296 885 q 267 899 283 899 q 210 889 246 899 q 135 876 157 876 q 94 887 106 876 q 83 917 83 897 q 88 950 83 931 q 94 975 92 969 q 156 963 114 963 q 261 969 196 963 q 350 975 331 975 q 412 958 393 975 q 431 906 431 942 q 374 618 431 846 q 320 377 338 464 q 303 236 303 290 q 338 122 303 167 q 446 76 372 76 q 593 123 519 76 q 722 250 667 169 q 796 428 776 331 q 843 649 826 579 q 897 849 860 719 q 925 938 915 911 q 946 974 935 964 q 978 985 957 985 q 1042 981 1001 985 q 1099 972 1083 976 q 1072 944 1082 960 q 1047 890 1061 928 q 924 399 985 725 q 909 307 914 343 q 904 233 904 271 q 933 110 904 153 q 1043 68 961 68 q 1154 92 1106 68 q 1236 151 1203 115 z "},"Ǘ":{"ha":1161,"x_min":83,"x_max":1249,"o":"m 1236 151 q 1249 128 1249 144 q 1206 59 1249 92 q 1100 7 1164 26 q 976 -12 1036 -12 q 828 40 882 -12 q 775 188 775 92 l 775 199 q 618 44 713 100 q 422 -11 524 -11 q 290 21 347 -11 q 201 110 232 53 q 169 238 169 167 q 189 390 169 297 q 244 625 208 482 q 283 781 269 722 q 296 868 296 840 q 290 892 296 885 q 267 899 283 899 q 210 889 246 899 q 135 876 157 876 q 94 887 106 876 q 83 917 83 897 q 88 950 83 931 q 94 975 92 969 q 156 963 114 963 q 261 969 196 963 q 350 975 331 975 q 412 958 393 975 q 431 906 431 942 q 374 618 431 846 q 320 377 338 464 q 303 236 303 290 q 338 122 303 167 q 446 76 372 76 q 593 123 519 76 q 722 250 667 169 q 796 428 776 331 q 843 649 826 579 q 897 849 860 719 q 925 938 915 911 q 946 974 935 964 q 978 985 957 985 q 1042 981 1001 985 q 1099 972 1083 976 q 1072 944 1082 960 q 1047 890 1061 928 q 924 399 985 725 q 909 307 914 343 q 904 233 904 271 q 933 110 904 153 q 1043 68 961 68 q 1154 92 1106 68 q 1236 151 1203 115 z "},"Ǚ":{"ha":1161,"x_min":83,"x_max":1249,"o":"m 1236 151 q 1249 128 1249 144 q 1206 59 1249 92 q 1100 7 1164 26 q 976 -12 1036 -12 q 828 40 882 -12 q 775 188 775 92 l 775 199 q 618 44 713 100 q 422 -11 524 -11 q 290 21 347 -11 q 201 110 232 53 q 169 238 169 167 q 189 390 169 297 q 244 625 208 482 q 283 781 269 722 q 296 868 296 840 q 290 892 296 885 q 267 899 283 899 q 210 889 246 899 q 135 876 157 876 q 94 887 106 876 q 83 917 83 897 q 88 950 83 931 q 94 975 92 969 q 156 963 114 963 q 261 969 196 963 q 350 975 331 975 q 412 958 393 975 q 431 906 431 942 q 374 618 431 846 q 320 377 338 464 q 303 236 303 290 q 338 122 303 167 q 446 76 372 76 q 593 123 519 76 q 722 250 667 169 q 796 428 776 331 q 843 649 826 579 q 897 849 860 719 q 925 938 915 911 q 946 974 935 964 q 978 985 957 985 q 1042 981 1001 985 q 1099 972 1083 976 q 1072 944 1082 960 q 1047 890 1061 928 q 924 399 985 725 q 909 307 914 343 q 904 233 904 271 q 933 110 904 153 q 1043 68 961 68 q 1154 92 1106 68 q 1236 151 1203 115 z "},"Ǜ":{"ha":1161,"x_min":83,"x_max":1249,"o":"m 1236 151 q 1249 128 1249 144 q 1206 59 1249 92 q 1100 7 1164 26 q 976 -12 1036 -12 q 828 40 882 -12 q 775 188 775 92 l 775 199 q 618 44 713 100 q 422 -11 524 -11 q 290 21 347 -11 q 201 110 232 53 q 169 238 169 167 q 189 390 169 297 q 244 625 208 482 q 283 781 269 722 q 296 868 296 840 q 290 892 296 885 q 267 899 283 899 q 210 889 246 899 q 135 876 157 876 q 94 887 106 876 q 83 917 83 897 q 88 950 83 931 q 94 975 92 969 q 156 963 114 963 q 261 969 196 963 q 350 975 331 975 q 412 958 393 975 q 431 906 431 942 q 374 618 431 846 q 320 377 338 464 q 303 236 303 290 q 338 122 303 167 q 446 76 372 76 q 593 123 519 76 q 722 250 667 169 q 796 428 776 331 q 843 649 826 579 q 897 849 860 719 q 925 938 915 911 q 946 974 935 964 q 978 985 957 985 q 1042 981 1001 985 q 1099 972 1083 976 q 1072 944 1082 960 q 1047 890 1061 928 q 924 399 985 725 q 909 307 914 343 q 904 233 904 271 q 933 110 904 153 q 1043 68 961 68 q 1154 92 1106 68 q 1236 151 1203 115 z "},"Ǖ":{"ha":1161,"x_min":83,"x_max":1249,"o":"m 1236 151 q 1249 128 1249 144 q 1206 59 1249 92 q 1100 7 1164 26 q 976 -12 1036 -12 q 828 40 882 -12 q 775 188 775 92 l 775 199 q 618 44 713 100 q 422 -11 524 -11 q 290 21 347 -11 q 201 110 232 53 q 169 238 169 167 q 189 390 169 297 q 244 625 208 482 q 283 781 269 722 q 296 868 296 840 q 290 892 296 885 q 267 899 283 899 q 210 889 246 899 q 135 876 157 876 q 94 887 106 876 q 83 917 83 897 q 88 950 83 931 q 94 975 92 969 q 156 963 114 963 q 261 969 196 963 q 350 975 331 975 q 412 958 393 975 q 431 906 431 942 q 374 618 431 846 q 320 377 338 464 q 303 236 303 290 q 338 122 303 167 q 446 76 372 76 q 593 123 519 76 q 722 250 667 169 q 796 428 776 331 q 843 649 826 579 q 897 849 860 719 q 925 938 915 911 q 946 974 935 964 q 978 985 957 985 q 1042 981 1001 985 q 1099 972 1083 976 q 1072 944 1082 960 q 1047 890 1061 928 q 924 399 985 725 q 909 307 914 343 q 904 233 904 271 q 933 110 904 153 q 1043 68 961 68 q 1154 92 1106 68 q 1236 151 1203 115 z "},"Ụ":{"ha":1161,"x_min":83,"x_max":1249,"o":"m 1236 151 q 1249 128 1249 144 q 1206 59 1249 92 q 1100 7 1164 26 q 976 -12 1036 -12 q 828 40 882 -12 q 775 188 775 92 l 775 199 q 618 44 713 100 q 422 -11 524 -11 q 290 21 347 -11 q 201 110 232 53 q 169 238 169 167 q 189 390 169 297 q 244 625 208 482 q 283 781 269 722 q 296 868 296 840 q 290 892 296 885 q 267 899 283 899 q 210 889 246 899 q 135 876 157 876 q 94 887 106 876 q 83 917 83 897 q 88 950 83 931 q 94 975 92 969 q 156 963 114 963 q 261 969 196 963 q 350 975 331 975 q 412 958 393 975 q 431 906 431 942 q 374 618 431 846 q 320 377 338 464 q 303 236 303 290 q 338 122 303 167 q 446 76 372 76 q 593 123 519 76 q 722 250 667 169 q 796 428 776 331 q 843 649 826 579 q 897 849 860 719 q 925 938 915 911 q 946 974 935 964 q 978 985 957 985 q 1042 981 1001 985 q 1099 972 1083 976 q 1072 944 1082 960 q 1047 890 1061 928 q 924 399 985 725 q 909 307 914 343 q 904 233 904 271 q 933 110 904 153 q 1043 68 961 68 q 1154 92 1106 68 q 1236 151 1203 115 z "},"Ù":{"ha":1161,"x_min":83,"x_max":1249,"o":"m 1236 151 q 1249 128 1249 144 q 1206 59 1249 92 q 1100 7 1164 26 q 976 -12 1036 -12 q 828 40 882 -12 q 775 188 775 92 l 775 199 q 618 44 713 100 q 422 -11 524 -11 q 290 21 347 -11 q 201 110 232 53 q 169 238 169 167 q 189 390 169 297 q 244 625 208 482 q 283 781 269 722 q 296 868 296 840 q 290 892 296 885 q 267 899 283 899 q 210 889 246 899 q 135 876 157 876 q 94 887 106 876 q 83 917 83 897 q 88 950 83 931 q 94 975 92 969 q 156 963 114 963 q 261 969 196 963 q 350 975 331 975 q 412 958 393 975 q 431 906 431 942 q 374 618 431 846 q 320 377 338 464 q 303 236 303 290 q 338 122 303 167 q 446 76 372 76 q 593 123 519 76 q 722 250 667 169 q 796 428 776 331 q 843 649 826 579 q 897 849 860 719 q 925 938 915 911 q 946 974 935 964 q 978 985 957 985 q 1042 981 1001 985 q 1099 972 1083 976 q 1072 944 1082 960 q 1047 890 1061 928 q 924 399 985 725 q 909 307 914 343 q 904 233 904 271 q 933 110 904 153 q 1043 68 961 68 q 1154 92 1106 68 q 1236 151 1203 115 z "},"Ủ":{"ha":1161,"x_min":83,"x_max":1249,"o":"m 1236 151 q 1249 128 1249 144 q 1206 59 1249 92 q 1100 7 1164 26 q 976 -12 1036 -12 q 828 40 882 -12 q 775 188 775 92 l 775 199 q 618 44 713 100 q 422 -11 524 -11 q 290 21 347 -11 q 201 110 232 53 q 169 238 169 167 q 189 390 169 297 q 244 625 208 482 q 283 781 269 722 q 296 868 296 840 q 290 892 296 885 q 267 899 283 899 q 210 889 246 899 q 135 876 157 876 q 94 887 106 876 q 83 917 83 897 q 88 950 83 931 q 94 975 92 969 q 156 963 114 963 q 261 969 196 963 q 350 975 331 975 q 412 958 393 975 q 431 906 431 942 q 374 618 431 846 q 320 377 338 464 q 303 236 303 290 q 338 122 303 167 q 446 76 372 76 q 593 123 519 76 q 722 250 667 169 q 796 428 776 331 q 843 649 826 579 q 897 849 860 719 q 925 938 915 911 q 946 974 935 964 q 978 985 957 985 q 1042 981 1001 985 q 1099 972 1083 976 q 1072 944 1082 960 q 1047 890 1061 928 q 924 399 985 725 q 909 307 914 343 q 904 233 904 271 q 933 110 904 153 q 1043 68 961 68 q 1154 92 1106 68 q 1236 151 1203 115 m 592 1014 q 567 1036 563 1014 q 638 1106 607 1063 q 668 1182 668 1149 q 622 1218 668 1218 q 569 1213 597 1218 q 596 1260 575 1243 q 681 1285 626 1285 q 755 1263 729 1285 q 781 1203 781 1242 q 749 1115 781 1158 q 674 1042 718 1071 q 592 1014 629 1014 z "},"Ư":{"ha":1161,"x_min":83,"x_max":1342,"o":"m 1047 890 q 924 399 985 725 q 909 307 914 343 q 904 233 904 271 q 933 110 904 153 q 1043 68 961 68 q 1154 92 1106 68 q 1236 151 1203 115 q 1249 128 1249 144 q 1206 59 1249 92 q 1100 7 1164 26 q 976 -12 1036 -12 q 828 40 882 -12 q 775 188 775 92 l 775 199 q 618 44 713 100 q 422 -11 524 -11 q 290 21 347 -11 q 201 110 232 53 q 169 238 169 167 q 189 390 169 297 q 244 625 208 482 q 283 781 269 722 q 296 868 296 840 q 290 892 296 885 q 267 899 283 899 q 210 889 246 899 q 135 876 157 876 q 94 887 106 876 q 83 917 83 897 q 88 950 83 931 q 94 975 92 969 q 156 963 114 963 q 261 969 196 963 q 350 975 331 975 q 412 958 393 975 q 431 906 431 942 q 374 618 431 846 q 320 377 338 464 q 303 236 303 290 q 338 122 303 167 q 446 76 372 76 q 593 123 519 76 q 722 250 667 169 q 796 428 776 331 q 843 649 826 579 q 897 849 860 719 q 925 938 915 911 q 946 974 935 964 q 978 985 957 985 q 1042 981 1001 985 q 1099 972 1083 976 l 1086 961 q 1147 946 1113 946 q 1217 981 1196 946 q 1238 1083 1238 1017 q 1233 1140 1238 1126 q 1284 1132 1261 1140 q 1321 1113 1307 1124 q 1342 1057 1342 1096 q 1319 971 1342 1015 q 1256 897 1297 926 q 1161 867 1215 867 q 1053 904 1104 867 q 1050 898 1051 901 q 1047 890 1049 894 z "},"Ứ":{"ha":1161,"x_min":83,"x_max":1342,"o":"m 1047 890 q 924 399 985 725 q 909 307 914 343 q 904 233 904 271 q 933 110 904 153 q 1043 68 961 68 q 1154 92 1106 68 q 1236 151 1203 115 q 1249 128 1249 144 q 1206 59 1249 92 q 1100 7 1164 26 q 976 -12 1036 -12 q 828 40 882 -12 q 775 188 775 92 l 775 199 q 618 44 713 100 q 422 -11 524 -11 q 290 21 347 -11 q 201 110 232 53 q 169 238 169 167 q 189 390 169 297 q 244 625 208 482 q 283 781 269 722 q 296 868 296 840 q 290 892 296 885 q 267 899 283 899 q 210 889 246 899 q 135 876 157 876 q 94 887 106 876 q 83 917 83 897 q 88 950 83 931 q 94 975 92 969 q 156 963 114 963 q 261 969 196 963 q 350 975 331 975 q 412 958 393 975 q 431 906 431 942 q 374 618 431 846 q 320 377 338 464 q 303 236 303 290 q 338 122 303 167 q 446 76 372 76 q 593 123 519 76 q 722 250 667 169 q 796 428 776 331 q 843 649 826 579 q 897 849 860 719 q 925 938 915 911 q 946 974 935 964 q 978 985 957 985 q 1042 981 1001 985 q 1099 972 1083 976 l 1086 961 q 1147 946 1113 946 q 1217 981 1196 946 q 1238 1083 1238 1017 q 1233 1140 1238 1126 q 1284 1132 1261 1140 q 1321 1113 1307 1124 q 1342 1057 1342 1096 q 1319 971 1342 1015 q 1256 897 1297 926 q 1161 867 1215 867 q 1053 904 1104 867 q 1050 898 1051 901 q 1047 890 1049 894 z "},"Ự":{"ha":1161,"x_min":83,"x_max":1342,"o":"m 1047 890 q 924 399 985 725 q 909 307 914 343 q 904 233 904 271 q 933 110 904 153 q 1043 68 961 68 q 1154 92 1106 68 q 1236 151 1203 115 q 1249 128 1249 144 q 1206 59 1249 92 q 1100 7 1164 26 q 976 -12 1036 -12 q 828 40 882 -12 q 775 188 775 92 l 775 199 q 618 44 713 100 q 422 -11 524 -11 q 290 21 347 -11 q 201 110 232 53 q 169 238 169 167 q 189 390 169 297 q 244 625 208 482 q 283 781 269 722 q 296 868 296 840 q 290 892 296 885 q 267 899 283 899 q 210 889 246 899 q 135 876 157 876 q 94 887 106 876 q 83 917 83 897 q 88 950 83 931 q 94 975 92 969 q 156 963 114 963 q 261 969 196 963 q 350 975 331 975 q 412 958 393 975 q 431 906 431 942 q 374 618 431 846 q 320 377 338 464 q 303 236 303 290 q 338 122 303 167 q 446 76 372 76 q 593 123 519 76 q 722 250 667 169 q 796 428 776 331 q 843 649 826 579 q 897 849 860 719 q 925 938 915 911 q 946 974 935 964 q 978 985 957 985 q 1042 981 1001 985 q 1099 972 1083 976 l 1086 961 q 1147 946 1113 946 q 1217 981 1196 946 q 1238 1083 1238 1017 q 1233 1140 1238 1126 q 1284 1132 1261 1140 q 1321 1113 1307 1124 q 1342 1057 1342 1096 q 1319 971 1342 1015 q 1256 897 1297 926 q 1161 867 1215 867 q 1053 904 1104 867 q 1050 898 1051 901 q 1047 890 1049 894 z "},"Ừ":{"ha":1161,"x_min":83,"x_max":1342,"o":"m 1047 890 q 924 399 985 725 q 909 307 914 343 q 904 233 904 271 q 933 110 904 153 q 1043 68 961 68 q 1154 92 1106 68 q 1236 151 1203 115 q 1249 128 1249 144 q 1206 59 1249 92 q 1100 7 1164 26 q 976 -12 1036 -12 q 828 40 882 -12 q 775 188 775 92 l 775 199 q 618 44 713 100 q 422 -11 524 -11 q 290 21 347 -11 q 201 110 232 53 q 169 238 169 167 q 189 390 169 297 q 244 625 208 482 q 283 781 269 722 q 296 868 296 840 q 290 892 296 885 q 267 899 283 899 q 210 889 246 899 q 135 876 157 876 q 94 887 106 876 q 83 917 83 897 q 88 950 83 931 q 94 975 92 969 q 156 963 114 963 q 261 969 196 963 q 350 975 331 975 q 412 958 393 975 q 431 906 431 942 q 374 618 431 846 q 320 377 338 464 q 303 236 303 290 q 338 122 303 167 q 446 76 372 76 q 593 123 519 76 q 722 250 667 169 q 796 428 776 331 q 843 649 826 579 q 897 849 860 719 q 925 938 915 911 q 946 974 935 964 q 978 985 957 985 q 1042 981 1001 985 q 1099 972 1083 976 l 1086 961 q 1147 946 1113 946 q 1217 981 1196 946 q 1238 1083 1238 1017 q 1233 1140 1238 1126 q 1284 1132 1261 1140 q 1321 1113 1307 1124 q 1342 1057 1342 1096 q 1319 971 1342 1015 q 1256 897 1297 926 q 1161 867 1215 867 q 1053 904 1104 867 q 1050 898 1051 901 q 1047 890 1049 894 z "},"Ử":{"ha":1161,"x_min":83,"x_max":1342,"o":"m 1047 890 q 924 399 985 725 q 909 307 914 343 q 904 233 904 271 q 933 110 904 153 q 1043 68 961 68 q 1154 92 1106 68 q 1236 151 1203 115 q 1249 128 1249 144 q 1206 59 1249 92 q 1100 7 1164 26 q 976 -12 1036 -12 q 828 40 882 -12 q 775 188 775 92 l 775 199 q 618 44 713 100 q 422 -11 524 -11 q 290 21 347 -11 q 201 110 232 53 q 169 238 169 167 q 189 390 169 297 q 244 625 208 482 q 283 781 269 722 q 296 868 296 840 q 290 892 296 885 q 267 899 283 899 q 210 889 246 899 q 135 876 157 876 q 94 887 106 876 q 83 917 83 897 q 88 950 83 931 q 94 975 92 969 q 156 963 114 963 q 261 969 196 963 q 350 975 331 975 q 412 958 393 975 q 431 906 431 942 q 374 618 431 846 q 320 377 338 464 q 303 236 303 290 q 338 122 303 167 q 446 76 372 76 q 593 123 519 76 q 722 250 667 169 q 796 428 776 331 q 843 649 826 579 q 897 849 860 719 q 925 938 915 911 q 946 974 935 964 q 978 985 957 985 q 1042 981 1001 985 q 1099 972 1083 976 l 1086 961 q 1147 946 1113 946 q 1217 981 1196 946 q 1238 1083 1238 1017 q 1233 1140 1238 1126 q 1284 1132 1261 1140 q 1321 1113 1307 1124 q 1342 1057 1342 1096 q 1319 971 1342 1015 q 1256 897 1297 926 q 1161 867 1215 867 q 1053 904 1104 867 q 1050 898 1051 901 q 1047 890 1049 894 m 592 1014 q 567 1036 563 1014 q 638 1106 607 1063 q 668 1182 668 1149 q 622 1218 668 1218 q 569 1213 597 1218 q 596 1260 575 1243 q 681 1285 626 1285 q 755 1263 729 1285 q 781 1203 781 1242 q 749 1115 781 1158 q 674 1042 718 1071 q 592 1014 629 1014 z "},"Ữ":{"ha":1161,"x_min":83,"x_max":1342,"o":"m 1047 890 q 924 399 985 725 q 909 307 914 343 q 904 233 904 271 q 933 110 904 153 q 1043 68 961 68 q 1154 92 1106 68 q 1236 151 1203 115 q 1249 128 1249 144 q 1206 59 1249 92 q 1100 7 1164 26 q 976 -12 1036 -12 q 828 40 882 -12 q 775 188 775 92 l 775 199 q 618 44 713 100 q 422 -11 524 -11 q 290 21 347 -11 q 201 110 232 53 q 169 238 169 167 q 189 390 169 297 q 244 625 208 482 q 283 781 269 722 q 296 868 296 840 q 290 892 296 885 q 267 899 283 899 q 210 889 246 899 q 135 876 157 876 q 94 887 106 876 q 83 917 83 897 q 88 950 83 931 q 94 975 92 969 q 156 963 114 963 q 261 969 196 963 q 350 975 331 975 q 412 958 393 975 q 431 906 431 942 q 374 618 431 846 q 320 377 338 464 q 303 236 303 290 q 338 122 303 167 q 446 76 372 76 q 593 123 519 76 q 722 250 667 169 q 796 428 776 331 q 843 649 826 579 q 897 849 860 719 q 925 938 915 911 q 946 974 935 964 q 978 985 957 985 q 1042 981 1001 985 q 1099 972 1083 976 l 1086 961 q 1147 946 1113 946 q 1217 981 1196 946 q 1238 1083 1238 1017 q 1233 1140 1238 1126 q 1284 1132 1261 1140 q 1321 1113 1307 1124 q 1342 1057 1342 1096 q 1319 971 1342 1015 q 1256 897 1297 926 q 1161 867 1215 867 q 1053 904 1104 867 q 1050 898 1051 901 q 1047 890 1049 894 z "},"Ű":{"ha":1161,"x_min":83,"x_max":1249,"o":"m 1236 151 q 1249 128 1249 144 q 1206 59 1249 92 q 1100 7 1164 26 q 976 -12 1036 -12 q 828 40 882 -12 q 775 188 775 92 l 775 199 q 618 44 713 100 q 422 -11 524 -11 q 290 21 347 -11 q 201 110 232 53 q 169 238 169 167 q 189 390 169 297 q 244 625 208 482 q 283 781 269 722 q 296 868 296 840 q 290 892 296 885 q 267 899 283 899 q 210 889 246 899 q 135 876 157 876 q 94 887 106 876 q 83 917 83 897 q 88 950 83 931 q 94 975 92 969 q 156 963 114 963 q 261 969 196 963 q 350 975 331 975 q 412 958 393 975 q 431 906 431 942 q 374 618 431 846 q 320 377 338 464 q 303 236 303 290 q 338 122 303 167 q 446 76 372 76 q 593 123 519 76 q 722 250 667 169 q 796 428 776 331 q 843 649 826 579 q 897 849 860 719 q 925 938 915 911 q 946 974 935 964 q 978 985 957 985 q 1042 981 1001 985 q 1099 972 1083 976 q 1072 944 1082 960 q 1047 890 1061 928 q 924 399 985 725 q 909 307 914 343 q 904 233 904 271 q 933 110 904 153 q 1043 68 961 68 q 1154 92 1106 68 q 1236 151 1203 115 m 578 1029 q 561 1038 568 1029 q 553 1047 554 1046 q 763 1311 693 1231 q 783 1325 774 1325 q 824 1302 797 1325 q 846 1265 850 1279 q 831 1244 843 1256 q 817 1231 818 1232 q 593 1038 735 1158 q 578 1029 585 1029 m 738 1028 q 724 1034 731 1028 q 714 1044 717 1040 l 961 1314 q 972 1321 968 1321 q 994 1309 979 1321 q 1018 1281 1008 1297 q 1025 1251 1028 1264 q 996 1219 1021 1238 q 849 1107 947 1185 l 751 1033 q 738 1028 742 1028 z "},"Ū":{"ha":1161,"x_min":83,"x_max":1249,"o":"m 1236 151 q 1249 128 1249 144 q 1206 59 1249 92 q 1100 7 1164 26 q 976 -12 1036 -12 q 828 40 882 -12 q 775 188 775 92 l 775 199 q 618 44 713 100 q 422 -11 524 -11 q 290 21 347 -11 q 201 110 232 53 q 169 238 169 167 q 189 390 169 297 q 244 625 208 482 q 283 781 269 722 q 296 868 296 840 q 290 892 296 885 q 267 899 283 899 q 210 889 246 899 q 135 876 157 876 q 94 887 106 876 q 83 917 83 897 q 88 950 83 931 q 94 975 92 969 q 156 963 114 963 q 261 969 196 963 q 350 975 331 975 q 412 958 393 975 q 431 906 431 942 q 374 618 431 846 q 320 377 338 464 q 303 236 303 290 q 338 122 303 167 q 446 76 372 76 q 593 123 519 76 q 722 250 667 169 q 796 428 776 331 q 843 649 826 579 q 897 849 860 719 q 925 938 915 911 q 946 974 935 964 q 978 985 957 985 q 1042 981 1001 985 q 1099 972 1083 976 q 1072 944 1082 960 q 1047 890 1061 928 q 924 399 985 725 q 909 307 914 343 q 904 233 904 271 q 933 110 904 153 q 1043 68 961 68 q 1154 92 1106 68 q 1236 151 1203 115 z "},"Ų":{"ha":1161,"x_min":83,"x_max":1249,"o":"m 1249 128 q 1215 67 1249 96 q 1129 17 1182 38 q 1028 -51 1060 -17 q 996 -133 996 -86 q 1006 -172 996 -158 q 1043 -185 1017 -185 q 1094 -179 1067 -185 q 1097 -194 1097 -187 q 1069 -235 1097 -219 q 997 -251 1042 -251 q 915 -228 946 -251 q 885 -160 885 -204 q 909 -81 885 -119 q 972 -12 933 -42 q 828 40 881 -11 q 775 188 775 92 l 775 199 q 618 44 713 100 q 422 -11 524 -11 q 290 21 347 -11 q 201 110 232 53 q 169 238 169 167 q 189 390 169 297 q 244 625 208 482 q 283 781 269 722 q 296 868 296 840 q 290 892 296 885 q 267 899 283 899 q 210 889 246 899 q 135 876 157 876 q 94 887 106 876 q 83 917 83 897 q 88 950 83 931 q 94 975 92 969 q 156 963 114 963 q 261 969 196 963 q 350 975 331 975 q 412 958 393 975 q 431 906 431 942 q 374 618 431 846 q 320 377 338 464 q 303 236 303 290 q 338 122 303 167 q 446 76 372 76 q 593 123 519 76 q 722 250 667 169 q 796 428 776 331 q 843 649 826 579 q 897 849 860 719 q 925 938 915 911 q 946 974 935 964 q 978 985 957 985 q 1042 981 1001 985 q 1099 972 1083 976 q 1072 944 1082 960 q 1047 890 1061 928 q 924 399 985 725 q 909 307 914 343 q 904 233 904 271 q 933 110 904 153 q 1043 68 961 68 q 1154 92 1106 68 q 1236 151 1203 115 q 1249 128 1249 144 z "},"Ů":{"ha":1161,"x_min":83,"x_max":1249,"o":"m 1236 151 q 1249 128 1249 144 q 1206 59 1249 92 q 1100 7 1164 26 q 976 -12 1036 -12 q 828 40 882 -12 q 775 188 775 92 l 775 199 q 618 44 713 100 q 422 -11 524 -11 q 290 21 347 -11 q 201 110 232 53 q 169 238 169 167 q 189 390 169 297 q 244 625 208 482 q 283 781 269 722 q 296 868 296 840 q 290 892 296 885 q 267 899 283 899 q 210 889 246 899 q 135 876 157 876 q 94 887 106 876 q 83 917 83 897 q 88 950 83 931 q 94 975 92 969 q 156 963 114 963 q 261 969 196 963 q 350 975 331 975 q 412 958 393 975 q 431 906 431 942 q 374 618 431 846 q 320 377 338 464 q 303 236 303 290 q 338 122 303 167 q 446 76 372 76 q 593 123 519 76 q 722 250 667 169 q 796 428 776 331 q 843 649 826 579 q 897 849 860 719 q 925 938 915 911 q 946 974 935 964 q 978 985 957 985 q 1042 981 1001 985 q 1099 972 1083 976 q 1072 944 1082 960 q 1047 890 1061 928 q 924 399 985 725 q 909 307 914 343 q 904 233 904 271 q 933 110 904 153 q 1043 68 961 68 q 1154 92 1106 68 q 1236 151 1203 115 z "},"Ũ":{"ha":1161,"x_min":83,"x_max":1249,"o":"m 1236 151 q 1249 128 1249 144 q 1206 59 1249 92 q 1100 7 1164 26 q 976 -12 1036 -12 q 828 40 882 -12 q 775 188 775 92 l 775 199 q 618 44 713 100 q 422 -11 524 -11 q 290 21 347 -11 q 201 110 232 53 q 169 238 169 167 q 189 390 169 297 q 244 625 208 482 q 283 781 269 722 q 296 868 296 840 q 290 892 296 885 q 267 899 283 899 q 210 889 246 899 q 135 876 157 876 q 94 887 106 876 q 83 917 83 897 q 88 950 83 931 q 94 975 92 969 q 156 963 114 963 q 261 969 196 963 q 350 975 331 975 q 412 958 393 975 q 431 906 431 942 q 374 618 431 846 q 320 377 338 464 q 303 236 303 290 q 338 122 303 167 q 446 76 372 76 q 593 123 519 76 q 722 250 667 169 q 796 428 776 331 q 843 649 826 579 q 897 849 860 719 q 925 938 915 911 q 946 974 935 964 q 978 985 957 985 q 1042 981 1001 985 q 1099 972 1083 976 q 1072 944 1082 960 q 1047 890 1061 928 q 924 399 985 725 q 909 307 914 343 q 904 233 904 271 q 933 110 904 153 q 1043 68 961 68 q 1154 92 1106 68 q 1236 151 1203 115 z "},"V":{"ha":929,"x_min":-25,"x_max":1118,"o":"m 1056 1151 q 1118 1093 1118 1151 q 1104 1028 1118 1060 q 1053 938 1090 997 q 881 672 1022 888 q 643 301 731 446 q 503 21 556 156 q 491 -3 496 1 q 472 -8 486 -7 q 364 -28 378 -14 q 350 -18 356 -24 q 365 176 365 32 q 356 456 365 300 q 336 693 346 611 q 284 847 322 803 q 168 890 246 890 q 72 870 113 890 q -15 803 32 850 q -25 839 -25 813 q -24 857 -25 851 q 17 919 -17 890 q 105 966 51 949 q 221 983 158 983 q 390 916 339 983 q 454 699 442 849 q 468 126 465 564 q 560 285 493 171 q 844 797 744 610 q 956 1064 944 985 q 957 1079 957 1069 q 942 1126 957 1101 q 975 1136 949 1128 q 1056 1151 1026 1151 z "},"W":{"ha":1299,"x_min":61,"x_max":1531,"o":"m 1401 1069 q 1474 1053 1440 1069 q 1531 1011 1508 1036 q 1494 1006 1503 1008 q 1228 670 1375 963 q 963 21 1082 378 q 960 12 963 19 q 952 -1 957 4 q 938 -8 947 -6 q 874 -24 914 -8 q 835 -33 847 -33 q 811 -6 811 -33 q 810 49 810 53 q 785 324 804 194 q 731 626 765 453 l 718 694 q 526 335 644 572 q 381 19 408 97 q 376 6 379 14 q 370 -5 374 -3 q 363 -7 367 -7 q 297 -17 321 -11 q 242 -40 274 -24 q 231 -35 233 -40 q 231 -21 229 -31 q 249 324 249 117 q 240 641 249 488 q 219 846 232 794 q 206 870 215 863 q 178 878 197 878 q 114 865 154 878 q 86 860 89 860 q 67 875 74 860 q 61 906 61 890 q 71 924 61 922 q 188 950 131 936 q 374 990 369 990 q 386 983 383 990 q 386 967 389 975 q 378 948 385 961 q 365 903 371 935 q 357 817 360 871 q 347 530 353 742 q 340 138 342 318 q 668 813 446 351 q 685 848 676 832 q 699 876 693 864 q 743 895 706 885 q 806 906 781 906 q 838 611 819 756 q 861 433 857 467 q 897 147 886 258 q 1164 810 1036 551 q 1401 1069 1292 1069 z "},"Ẃ":{"ha":1299,"x_min":61,"x_max":1531,"o":"m 1401 1069 q 1474 1053 1440 1069 q 1531 1011 1508 1036 q 1494 1006 1503 1008 q 1228 670 1375 963 q 963 21 1082 378 q 960 12 963 19 q 952 -1 957 4 q 938 -8 947 -6 q 874 -24 914 -8 q 835 -33 847 -33 q 811 -6 811 -33 q 810 49 810 53 q 785 324 804 194 q 731 626 765 453 l 718 694 q 526 335 644 572 q 381 19 408 97 q 376 6 379 14 q 370 -5 374 -3 q 363 -7 367 -7 q 297 -17 321 -11 q 242 -40 274 -24 q 231 -35 233 -40 q 231 -21 229 -31 q 249 324 249 117 q 240 641 249 488 q 219 846 232 794 q 206 870 215 863 q 178 878 197 878 q 114 865 154 878 q 86 860 89 860 q 67 875 74 860 q 61 906 61 890 q 71 924 61 922 q 188 950 131 936 q 374 990 369 990 q 386 983 383 990 q 386 967 389 975 q 378 948 385 961 q 365 903 371 935 q 357 817 360 871 q 347 530 353 742 q 340 138 342 318 q 668 813 446 351 q 685 848 676 832 q 699 876 693 864 q 743 895 706 885 q 806 906 781 906 q 838 611 819 756 q 861 433 857 467 q 897 147 886 258 q 1164 810 1036 551 q 1401 1069 1292 1069 z "},"Ŵ":{"ha":1299,"x_min":61,"x_max":1531,"o":"m 1401 1069 q 1474 1053 1440 1069 q 1531 1011 1508 1036 q 1494 1006 1503 1008 q 1228 670 1375 963 q 963 21 1082 378 q 960 12 963 19 q 952 -1 957 4 q 938 -8 947 -6 q 874 -24 914 -8 q 835 -33 847 -33 q 811 -6 811 -33 q 810 49 810 53 q 785 324 804 194 q 731 626 765 453 l 718 694 q 526 335 644 572 q 381 19 408 97 q 376 6 379 14 q 370 -5 374 -3 q 363 -7 367 -7 q 297 -17 321 -11 q 242 -40 274 -24 q 231 -35 233 -40 q 231 -21 229 -31 q 249 324 249 117 q 240 641 249 488 q 219 846 232 794 q 206 870 215 863 q 178 878 197 878 q 114 865 154 878 q 86 860 89 860 q 67 875 74 860 q 61 906 61 890 q 71 924 61 922 q 188 950 131 936 q 374 990 369 990 q 386 983 383 990 q 386 967 389 975 q 378 948 385 961 q 365 903 371 935 q 357 817 360 871 q 347 530 353 742 q 340 138 342 318 q 668 813 446 351 q 685 848 676 832 q 699 876 693 864 q 743 895 706 885 q 806 906 781 906 q 838 611 819 756 q 861 433 857 467 q 897 147 886 258 q 1164 810 1036 551 q 1401 1069 1292 1069 z "},"Ẅ":{"ha":1299,"x_min":61,"x_max":1531,"o":"m 1401 1069 q 1474 1053 1440 1069 q 1531 1011 1508 1036 q 1494 1006 1503 1008 q 1228 670 1375 963 q 963 21 1082 378 q 960 12 963 19 q 952 -1 957 4 q 938 -8 947 -6 q 874 -24 914 -8 q 835 -33 847 -33 q 811 -6 811 -33 q 810 49 810 53 q 785 324 804 194 q 731 626 765 453 l 718 694 q 526 335 644 572 q 381 19 408 97 q 376 6 379 14 q 370 -5 374 -3 q 363 -7 367 -7 q 297 -17 321 -11 q 242 -40 274 -24 q 231 -35 233 -40 q 231 -21 229 -31 q 249 324 249 117 q 240 641 249 488 q 219 846 232 794 q 206 870 215 863 q 178 878 197 878 q 114 865 154 878 q 86 860 89 860 q 67 875 74 860 q 61 906 61 890 q 71 924 61 922 q 188 950 131 936 q 374 990 369 990 q 386 983 383 990 q 386 967 389 975 q 378 948 385 961 q 365 903 371 935 q 357 817 360 871 q 347 530 353 742 q 340 138 342 318 q 668 813 446 351 q 685 848 676 832 q 699 876 693 864 q 743 895 706 885 q 806 906 781 906 q 838 611 819 756 q 861 433 857 467 q 897 147 886 258 q 1164 810 1036 551 q 1401 1069 1292 1069 z "},"Ẁ":{"ha":1299,"x_min":61,"x_max":1531,"o":"m 1401 1069 q 1474 1053 1440 1069 q 1531 1011 1508 1036 q 1494 1006 1503 1008 q 1228 670 1375 963 q 963 21 1082 378 q 960 12 963 19 q 952 -1 957 4 q 938 -8 947 -6 q 874 -24 914 -8 q 835 -33 847 -33 q 811 -6 811 -33 q 810 49 810 53 q 785 324 804 194 q 731 626 765 453 l 718 694 q 526 335 644 572 q 381 19 408 97 q 376 6 379 14 q 370 -5 374 -3 q 363 -7 367 -7 q 297 -17 321 -11 q 242 -40 274 -24 q 231 -35 233 -40 q 231 -21 229 -31 q 249 324 249 117 q 240 641 249 488 q 219 846 232 794 q 206 870 215 863 q 178 878 197 878 q 114 865 154 878 q 86 860 89 860 q 67 875 74 860 q 61 906 61 890 q 71 924 61 922 q 188 950 131 936 q 374 990 369 990 q 386 983 383 990 q 386 967 389 975 q 378 948 385 961 q 365 903 371 935 q 357 817 360 871 q 347 530 353 742 q 340 138 342 318 q 668 813 446 351 q 685 848 676 832 q 699 876 693 864 q 743 895 706 885 q 806 906 781 906 q 838 611 819 756 q 861 433 857 467 q 897 147 886 258 q 1164 810 1036 551 q 1401 1069 1292 1069 z "},"X":{"ha":1114,"x_min":54,"x_max":1094,"o":"m 953 1047 q 997 1025 961 1047 q 1063 978 1032 1003 q 1094 944 1094 954 q 1085 929 1094 936 q 657 532 850 717 l 707 396 l 764 242 q 832 120 799 153 q 918 88 865 88 q 1068 161 1004 88 q 1075 144 1072 157 q 1078 121 1078 131 q 1049 60 1078 93 q 972 4 1021 26 q 864 -18 924 -18 q 748 23 796 -18 q 664 169 700 64 q 568 444 606 344 q 357 222 468 344 q 235 67 279 136 q 192 -75 192 -3 q 197 -125 192 -97 q 149 -108 174 -115 q 75 -74 96 -89 q 54 -26 54 -60 q 86 67 54 15 q 158 164 118 118 q 275 293 197 210 l 525 560 l 506 610 q 450 754 482 676 q 278 885 399 885 q 217 876 243 885 q 150 849 190 867 l 118 833 q 103 865 103 849 q 137 917 103 892 q 225 960 171 943 q 332 978 279 978 q 547 824 486 978 q 613 651 582 736 l 938 990 q 947 1011 947 1000 q 935 1042 947 1026 q 953 1047 936 1047 z "},"Y":{"ha":972,"x_min":-4,"x_max":1264,"o":"m 1161 1047 q 1264 972 1264 1047 q 1258 938 1264 954 q 1246 914 1253 922 q 1169 924 1221 924 q 884 822 1019 924 q 653 553 749 719 q 525 204 558 388 q 507 68 518 163 l 501 25 q 492 5 499 10 q 475 0 486 0 q 390 -3 428 0 q 326 -18 351 -7 q 319 -3 319 -8 q 405 238 375 89 q 435 514 435 386 q 383 765 435 672 q 222 857 332 857 q 115 823 156 857 q 28 719 74 789 q 4 740 13 725 q -4 772 -4 754 q 27 860 -4 810 q 116 948 58 911 q 250 985 174 985 q 454 867 383 985 q 525 549 525 750 q 522 474 525 524 q 694 753 586 621 q 926 967 801 886 q 1161 1047 1050 1047 z "},"Ý":{"ha":972,"x_min":-4,"x_max":1264,"o":"m 1161 1047 q 1264 972 1264 1047 q 1258 938 1264 954 q 1246 914 1253 922 q 1169 924 1221 924 q 884 822 1019 924 q 653 553 749 719 q 525 204 558 388 q 507 68 518 163 l 501 25 q 492 5 499 10 q 475 0 486 0 q 390 -3 428 0 q 326 -18 351 -7 q 319 -3 319 -8 q 405 238 375 89 q 435 514 435 386 q 383 765 435 672 q 222 857 332 857 q 115 823 156 857 q 28 719 74 789 q 4 740 13 725 q -4 772 -4 754 q 27 860 -4 810 q 116 948 58 911 q 250 985 174 985 q 454 867 383 985 q 525 549 525 750 q 522 474 525 524 q 694 753 586 621 q 926 967 801 886 q 1161 1047 1050 1047 z "},"Ŷ":{"ha":972,"x_min":-4,"x_max":1264,"o":"m 1161 1047 q 1264 972 1264 1047 q 1258 938 1264 954 q 1246 914 1253 922 q 1169 924 1221 924 q 884 822 1019 924 q 653 553 749 719 q 525 204 558 388 q 507 68 518 163 l 501 25 q 492 5 499 10 q 475 0 486 0 q 390 -3 428 0 q 326 -18 351 -7 q 319 -3 319 -8 q 405 238 375 89 q 435 514 435 386 q 383 765 435 672 q 222 857 332 857 q 115 823 156 857 q 28 719 74 789 q 4 740 13 725 q -4 772 -4 754 q 27 860 -4 810 q 116 948 58 911 q 250 985 174 985 q 454 867 383 985 q 525 549 525 750 q 522 474 525 524 q 694 753 586 621 q 926 967 801 886 q 1161 1047 1050 1047 z "},"Ÿ":{"ha":972,"x_min":-4,"x_max":1264,"o":"m 1161 1047 q 1264 972 1264 1047 q 1258 938 1264 954 q 1246 914 1253 922 q 1169 924 1221 924 q 884 822 1019 924 q 653 553 749 719 q 525 204 558 388 q 507 68 518 163 l 501 25 q 492 5 499 10 q 475 0 486 0 q 390 -3 428 0 q 326 -18 351 -7 q 319 -3 319 -8 q 405 238 375 89 q 435 514 435 386 q 383 765 435 672 q 222 857 332 857 q 115 823 156 857 q 28 719 74 789 q 4 740 13 725 q -4 772 -4 754 q 27 860 -4 810 q 116 948 58 911 q 250 985 174 985 q 454 867 383 985 q 525 549 525 750 q 522 474 525 524 q 694 753 586 621 q 926 967 801 886 q 1161 1047 1050 1047 z "},"Ẏ":{"ha":972,"x_min":-4,"x_max":1264,"o":"m 1161 1047 q 1264 972 1264 1047 q 1258 938 1264 954 q 1246 914 1253 922 q 1169 924 1221 924 q 884 822 1019 924 q 653 553 749 719 q 525 204 558 388 q 507 68 518 163 l 501 25 q 492 5 499 10 q 475 0 486 0 q 390 -3 428 0 q 326 -18 351 -7 q 319 -3 319 -8 q 405 238 375 89 q 435 514 435 386 q 383 765 435 672 q 222 857 332 857 q 115 823 156 857 q 28 719 74 789 q 4 740 13 725 q -4 772 -4 754 q 27 860 -4 810 q 116 948 58 911 q 250 985 174 985 q 454 867 383 985 q 525 549 525 750 q 522 474 525 524 q 694 753 586 621 q 926 967 801 886 q 1161 1047 1050 1047 z "},"Ỵ":{"ha":972,"x_min":-4,"x_max":1264,"o":"m 1161 1047 q 1264 972 1264 1047 q 1258 938 1264 954 q 1246 914 1253 922 q 1169 924 1221 924 q 884 822 1019 924 q 653 553 749 719 q 525 204 558 388 q 507 68 518 163 l 501 25 q 492 5 499 10 q 475 0 486 0 q 390 -3 428 0 q 326 -18 351 -7 q 319 -3 319 -8 q 405 238 375 89 q 435 514 435 386 q 383 765 435 672 q 222 857 332 857 q 115 823 156 857 q 28 719 74 789 q 4 740 13 725 q -4 772 -4 754 q 27 860 -4 810 q 116 948 58 911 q 250 985 174 985 q 454 867 383 985 q 525 549 525 750 q 522 474 525 524 q 694 753 586 621 q 926 967 801 886 q 1161 1047 1050 1047 z "},"Ỳ":{"ha":972,"x_min":-4,"x_max":1264,"o":"m 1161 1047 q 1264 972 1264 1047 q 1258 938 1264 954 q 1246 914 1253 922 q 1169 924 1221 924 q 884 822 1019 924 q 653 553 749 719 q 525 204 558 388 q 507 68 518 163 l 501 25 q 492 5 499 10 q 475 0 486 0 q 390 -3 428 0 q 326 -18 351 -7 q 319 -3 319 -8 q 405 238 375 89 q 435 514 435 386 q 383 765 435 672 q 222 857 332 857 q 115 823 156 857 q 28 719 74 789 q 4 740 13 725 q -4 772 -4 754 q 27 860 -4 810 q 116 948 58 911 q 250 985 174 985 q 454 867 383 985 q 525 549 525 750 q 522 474 525 524 q 694 753 586 621 q 926 967 801 886 q 1161 1047 1050 1047 z "},"Ỷ":{"ha":972,"x_min":-4,"x_max":1264,"o":"m 1161 1047 q 1264 972 1264 1047 q 1258 938 1264 954 q 1246 914 1253 922 q 1169 924 1221 924 q 884 822 1019 924 q 653 553 749 719 q 525 204 558 388 q 507 68 518 163 l 501 25 q 492 5 499 10 q 475 0 486 0 q 390 -3 428 0 q 326 -18 351 -7 q 319 -3 319 -8 q 405 238 375 89 q 435 514 435 386 q 383 765 435 672 q 222 857 332 857 q 115 823 156 857 q 28 719 74 789 q 4 740 13 725 q -4 772 -4 754 q 27 860 -4 810 q 116 948 58 911 q 250 985 174 985 q 454 867 383 985 q 525 549 525 750 q 522 474 525 524 q 694 753 586 621 q 926 967 801 886 q 1161 1047 1050 1047 m 586 1000 q 561 1022 557 1000 q 632 1092 601 1049 q 663 1168 663 1135 q 617 1204 663 1204 q 564 1199 592 1204 q 590 1246 569 1229 q 675 1271 621 1271 q 749 1249 724 1271 q 775 1189 775 1228 q 744 1101 775 1144 q 668 1028 713 1057 q 586 1000 624 1000 z "},"Ỹ":{"ha":972,"x_min":-4,"x_max":1264,"o":"m 1161 1047 q 1264 972 1264 1047 q 1258 938 1264 954 q 1246 914 1253 922 q 1169 924 1221 924 q 884 822 1019 924 q 653 553 749 719 q 525 204 558 388 q 507 68 518 163 l 501 25 q 492 5 499 10 q 475 0 486 0 q 390 -3 428 0 q 326 -18 351 -7 q 319 -3 319 -8 q 405 238 375 89 q 435 514 435 386 q 383 765 435 672 q 222 857 332 857 q 115 823 156 857 q 28 719 74 789 q 4 740 13 725 q -4 772 -4 754 q 27 860 -4 810 q 116 948 58 911 q 250 985 174 985 q 454 867 383 985 q 525 549 525 750 q 522 474 525 524 q 694 753 586 621 q 926 967 801 886 q 1161 1047 1050 1047 z "},"Z":{"ha":1017,"x_min":10,"x_max":1375,"o":"m 1347 -51 q 1367 -78 1360 -58 q 1375 -122 1375 -97 q 1356 -203 1375 -162 q 1294 -269 1336 -243 q 1188 -296 1251 -296 q 997 -265 1097 -296 q 738 -171 896 -235 l 600 -118 q 308 -29 446 -61 q 26 3 169 3 q 15 26 21 3 q 10 64 10 49 q 14 88 10 78 q 24 97 18 97 q 83 108 53 97 q 132 135 114 119 q 324 323 186 176 q 678 706 463 469 q 759 794 715 746 q 851 894 803 843 q 765 896 822 896 q 438 876 564 896 q 286 814 311 857 q 268 775 276 797 q 257 746 260 753 q 236 752 249 746 q 219 763 224 758 q 221 793 219 782 l 224 915 q 233 947 224 935 q 260 961 243 960 q 628 971 418 971 l 875 969 q 1004 968 926 968 q 1028 942 1024 968 q 1031 888 1032 917 q 971 853 999 882 q 725 599 846 721 q 311 167 471 339 q 253 113 281 133 q 194 81 226 93 q 353 42 272 65 q 568 -21 435 19 q 672 -53 638 -43 q 924 -117 814 -94 q 1124 -140 1033 -140 q 1277 -119 1222 -140 q 1347 -51 1332 -99 z "},"Ź":{"ha":1017,"x_min":10,"x_max":1375,"o":"m 1347 -51 q 1367 -78 1360 -58 q 1375 -122 1375 -97 q 1356 -203 1375 -162 q 1294 -269 1336 -243 q 1188 -296 1251 -296 q 997 -265 1097 -296 q 738 -171 896 -235 l 600 -118 q 308 -29 446 -61 q 26 3 169 3 q 15 26 21 3 q 10 64 10 49 q 14 88 10 78 q 24 97 18 97 q 83 108 53 97 q 132 135 114 119 q 324 323 186 176 q 678 706 463 469 q 759 794 715 746 q 851 894 803 843 q 765 896 822 896 q 438 876 564 896 q 286 814 311 857 q 268 775 276 797 q 257 746 260 753 q 236 752 249 746 q 219 763 224 758 q 221 793 219 782 l 224 915 q 233 947 224 935 q 260 961 243 960 q 628 971 418 971 l 875 969 q 1004 968 926 968 q 1028 942 1024 968 q 1031 888 1032 917 q 971 853 999 882 q 725 599 846 721 q 311 167 471 339 q 253 113 281 133 q 194 81 226 93 q 353 42 272 65 q 568 -21 435 19 q 672 -53 638 -43 q 924 -117 814 -94 q 1124 -140 1033 -140 q 1277 -119 1222 -140 q 1347 -51 1332 -99 z "},"Ž":{"ha":1017,"x_min":10,"x_max":1375,"o":"m 1347 -51 q 1367 -78 1360 -58 q 1375 -122 1375 -97 q 1356 -203 1375 -162 q 1294 -269 1336 -243 q 1188 -296 1251 -296 q 997 -265 1097 -296 q 738 -171 896 -235 l 600 -118 q 308 -29 446 -61 q 26 3 169 3 q 15 26 21 3 q 10 64 10 49 q 14 88 10 78 q 24 97 18 97 q 83 108 53 97 q 132 135 114 119 q 324 323 186 176 q 678 706 463 469 q 759 794 715 746 q 851 894 803 843 q 765 896 822 896 q 438 876 564 896 q 286 814 311 857 q 268 775 276 797 q 257 746 260 753 q 236 752 249 746 q 219 763 224 758 q 221 793 219 782 l 224 915 q 233 947 224 935 q 260 961 243 960 q 628 971 418 971 l 875 969 q 1004 968 926 968 q 1028 942 1024 968 q 1031 888 1032 917 q 971 853 999 882 q 725 599 846 721 q 311 167 471 339 q 253 113 281 133 q 194 81 226 93 q 353 42 272 65 q 568 -21 435 19 q 672 -53 638 -43 q 924 -117 814 -94 q 1124 -140 1033 -140 q 1277 -119 1222 -140 q 1347 -51 1332 -99 z "},"Ż":{"ha":1017,"x_min":10,"x_max":1375,"o":"m 1347 -51 q 1367 -78 1360 -58 q 1375 -122 1375 -97 q 1356 -203 1375 -162 q 1294 -269 1336 -243 q 1188 -296 1251 -296 q 997 -265 1097 -296 q 738 -171 896 -235 l 600 -118 q 308 -29 446 -61 q 26 3 169 3 q 15 26 21 3 q 10 64 10 49 q 14 88 10 78 q 24 97 18 97 q 83 108 53 97 q 132 135 114 119 q 324 323 186 176 q 678 706 463 469 q 759 794 715 746 q 851 894 803 843 q 765 896 822 896 q 438 876 564 896 q 286 814 311 857 q 268 775 276 797 q 257 746 260 753 q 236 752 249 746 q 219 763 224 758 q 221 793 219 782 l 224 915 q 233 947 224 935 q 260 961 243 960 q 628 971 418 971 l 875 969 q 1004 968 926 968 q 1028 942 1024 968 q 1031 888 1032 917 q 971 853 999 882 q 725 599 846 721 q 311 167 471 339 q 253 113 281 133 q 194 81 226 93 q 353 42 272 65 q 568 -21 435 19 q 672 -53 638 -43 q 924 -117 814 -94 q 1124 -140 1033 -140 q 1277 -119 1222 -140 q 1347 -51 1332 -99 z "},"Ẓ":{"ha":1017,"x_min":10,"x_max":1375,"o":"m 1347 -51 q 1367 -78 1360 -58 q 1375 -122 1375 -97 q 1356 -203 1375 -162 q 1294 -269 1336 -243 q 1188 -296 1251 -296 q 997 -265 1097 -296 q 738 -171 896 -235 l 600 -118 q 308 -29 446 -61 q 26 3 169 3 q 15 26 21 3 q 10 64 10 49 q 14 88 10 78 q 24 97 18 97 q 83 108 53 97 q 132 135 114 119 q 324 323 186 176 q 678 706 463 469 q 759 794 715 746 q 851 894 803 843 q 765 896 822 896 q 438 876 564 896 q 286 814 311 857 q 268 775 276 797 q 257 746 260 753 q 236 752 249 746 q 219 763 224 758 q 221 793 219 782 l 224 915 q 233 947 224 935 q 260 961 243 960 q 628 971 418 971 l 875 969 q 1004 968 926 968 q 1028 942 1024 968 q 1031 888 1032 917 q 971 853 999 882 q 725 599 846 721 q 311 167 471 339 q 253 113 281 133 q 194 81 226 93 q 353 42 272 65 q 568 -21 435 19 q 672 -53 638 -43 q 924 -117 814 -94 q 1124 -140 1033 -140 q 1277 -119 1222 -140 q 1347 -51 1332 -99 z "},"a":{"ha":722,"x_min":76,"x_max":901,"o":"m 876 335 q 901 293 901 335 q 848 153 901 226 q 715 32 794 81 q 569 -17 636 -17 q 477 14 517 -17 q 421 93 438 44 q 331 17 383 46 q 236 -11 278 -11 q 164 10 200 -11 q 103 65 128 32 q 76 132 78 99 q 133 407 108 274 q 181 477 139 435 q 281 550 222 519 q 392 581 339 581 q 490 551 440 581 q 506 581 500 575 q 522 589 511 588 l 643 596 l 647 593 q 622 563 631 579 q 607 524 614 546 q 556 319 582 439 q 529 153 529 199 q 548 82 529 114 q 607 50 567 50 q 703 86 649 50 q 806 188 758 122 q 876 335 854 253 m 281 72 q 328 92 300 72 q 380 144 356 111 q 414 218 404 178 l 436 322 q 471 490 461 450 q 394 507 435 507 q 297 466 329 507 q 253 374 264 425 l 210 164 q 235 101 213 129 q 281 72 257 72 z "},"á":{"ha":722,"x_min":76,"x_max":901,"o":"m 876 335 q 901 293 901 335 q 848 153 901 226 q 715 32 794 81 q 569 -17 636 -17 q 477 14 517 -17 q 421 93 438 44 q 331 17 383 46 q 236 -11 278 -11 q 164 10 200 -11 q 103 65 128 32 q 76 132 78 99 q 133 407 108 274 q 181 477 139 435 q 281 550 222 519 q 392 581 339 581 q 490 551 440 581 q 506 581 500 575 q 522 589 511 588 l 643 596 l 647 593 q 622 563 631 579 q 607 524 614 546 q 556 319 582 439 q 529 153 529 199 q 548 82 529 114 q 607 50 567 50 q 703 86 649 50 q 806 188 758 122 q 876 335 854 253 m 281 72 q 328 92 300 72 q 380 144 356 111 q 414 218 404 178 l 436 322 q 471 490 461 450 q 394 507 435 507 q 297 466 329 507 q 253 374 264 425 l 210 164 q 235 101 213 129 q 281 72 257 72 z "},"ă":{"ha":722,"x_min":76,"x_max":901,"o":"m 876 335 q 901 293 901 335 q 848 153 901 226 q 715 32 794 81 q 569 -17 636 -17 q 477 14 517 -17 q 421 93 438 44 q 331 17 383 46 q 236 -11 278 -11 q 164 10 200 -11 q 103 65 128 32 q 76 132 78 99 q 133 407 108 274 q 181 477 139 435 q 281 550 222 519 q 392 581 339 581 q 490 551 440 581 q 506 581 500 575 q 522 589 511 588 l 643 596 l 647 593 q 622 563 631 579 q 607 524 614 546 q 556 319 582 439 q 529 153 529 199 q 548 82 529 114 q 607 50 567 50 q 703 86 649 50 q 806 188 758 122 q 876 335 854 253 m 281 72 q 328 92 300 72 q 380 144 356 111 q 414 218 404 178 l 436 322 q 471 490 461 450 q 394 507 435 507 q 297 466 329 507 q 253 374 264 425 l 210 164 q 235 101 213 129 q 281 72 257 72 z "},"ắ":{"ha":722,"x_min":76,"x_max":901,"o":"m 876 335 q 901 293 901 335 q 848 153 901 226 q 715 32 794 81 q 569 -17 636 -17 q 477 14 517 -17 q 421 93 438 44 q 331 17 383 46 q 236 -11 278 -11 q 164 10 200 -11 q 103 65 128 32 q 76 132 78 99 q 133 407 108 274 q 181 477 139 435 q 281 550 222 519 q 392 581 339 581 q 490 551 440 581 q 506 581 500 575 q 522 589 511 588 l 643 596 l 647 593 q 622 563 631 579 q 607 524 614 546 q 556 319 582 439 q 529 153 529 199 q 548 82 529 114 q 607 50 567 50 q 703 86 649 50 q 806 188 758 122 q 876 335 854 253 m 281 72 q 328 92 300 72 q 380 144 356 111 q 414 218 404 178 l 436 322 q 471 490 461 450 q 394 507 435 507 q 297 466 329 507 q 253 374 264 425 l 210 164 q 235 101 213 129 q 281 72 257 72 z "},"ặ":{"ha":722,"x_min":76,"x_max":901,"o":"m 876 335 q 901 293 901 335 q 848 153 901 226 q 715 32 794 81 q 569 -17 636 -17 q 477 14 517 -17 q 421 93 438 44 q 331 17 383 46 q 236 -11 278 -11 q 164 10 200 -11 q 103 65 128 32 q 76 132 78 99 q 133 407 108 274 q 181 477 139 435 q 281 550 222 519 q 392 581 339 581 q 490 551 440 581 q 506 581 500 575 q 522 589 511 588 l 643 596 l 647 593 q 622 563 631 579 q 607 524 614 546 q 556 319 582 439 q 529 153 529 199 q 548 82 529 114 q 607 50 567 50 q 703 86 649 50 q 806 188 758 122 q 876 335 854 253 m 281 72 q 328 92 300 72 q 380 144 356 111 q 414 218 404 178 l 436 322 q 471 490 461 450 q 394 507 435 507 q 297 466 329 507 q 253 374 264 425 l 210 164 q 235 101 213 129 q 281 72 257 72 z "},"ằ":{"ha":722,"x_min":76,"x_max":901,"o":"m 876 335 q 901 293 901 335 q 848 153 901 226 q 715 32 794 81 q 569 -17 636 -17 q 477 14 517 -17 q 421 93 438 44 q 331 17 383 46 q 236 -11 278 -11 q 164 10 200 -11 q 103 65 128 32 q 76 132 78 99 q 133 407 108 274 q 181 477 139 435 q 281 550 222 519 q 392 581 339 581 q 490 551 440 581 q 506 581 500 575 q 522 589 511 588 l 643 596 l 647 593 q 622 563 631 579 q 607 524 614 546 q 556 319 582 439 q 529 153 529 199 q 548 82 529 114 q 607 50 567 50 q 703 86 649 50 q 806 188 758 122 q 876 335 854 253 m 281 72 q 328 92 300 72 q 380 144 356 111 q 414 218 404 178 l 436 322 q 471 490 461 450 q 394 507 435 507 q 297 466 329 507 q 253 374 264 425 l 210 164 q 235 101 213 129 q 281 72 257 72 z "},"ẳ":{"ha":722,"x_min":76,"x_max":901,"o":"m 876 335 q 901 293 901 335 q 848 153 901 226 q 715 32 794 81 q 569 -17 636 -17 q 477 14 517 -17 q 421 93 438 44 q 331 17 383 46 q 236 -11 278 -11 q 164 10 200 -11 q 103 65 128 32 q 76 132 78 99 q 133 407 108 274 q 181 477 139 435 q 281 550 222 519 q 392 581 339 581 q 490 551 440 581 q 506 581 500 575 q 522 589 511 588 l 643 596 l 647 593 q 622 563 631 579 q 607 524 614 546 q 556 319 582 439 q 529 153 529 199 q 548 82 529 114 q 607 50 567 50 q 703 86 649 50 q 806 188 758 122 q 876 335 854 253 m 281 72 q 328 92 300 72 q 380 144 356 111 q 414 218 404 178 l 436 322 q 471 490 461 450 q 394 507 435 507 q 297 466 329 507 q 253 374 264 425 l 210 164 q 235 101 213 129 q 281 72 257 72 z "},"ẵ":{"ha":722,"x_min":76,"x_max":901,"o":"m 876 335 q 901 293 901 335 q 848 153 901 226 q 715 32 794 81 q 569 -17 636 -17 q 477 14 517 -17 q 421 93 438 44 q 331 17 383 46 q 236 -11 278 -11 q 164 10 200 -11 q 103 65 128 32 q 76 132 78 99 q 133 407 108 274 q 181 477 139 435 q 281 550 222 519 q 392 581 339 581 q 490 551 440 581 q 506 581 500 575 q 522 589 511 588 l 643 596 l 647 593 q 622 563 631 579 q 607 524 614 546 q 556 319 582 439 q 529 153 529 199 q 548 82 529 114 q 607 50 567 50 q 703 86 649 50 q 806 188 758 122 q 876 335 854 253 m 281 72 q 328 92 300 72 q 380 144 356 111 q 414 218 404 178 l 436 322 q 471 490 461 450 q 394 507 435 507 q 297 466 329 507 q 253 374 264 425 l 210 164 q 235 101 213 129 q 281 72 257 72 z "},"ǎ":{"ha":722,"x_min":76,"x_max":901,"o":"m 876 335 q 901 293 901 335 q 848 153 901 226 q 715 32 794 81 q 569 -17 636 -17 q 477 14 517 -17 q 421 93 438 44 q 331 17 383 46 q 236 -11 278 -11 q 164 10 200 -11 q 103 65 128 32 q 76 132 78 99 q 133 407 108 274 q 181 477 139 435 q 281 550 222 519 q 392 581 339 581 q 490 551 440 581 q 506 581 500 575 q 522 589 511 588 l 643 596 l 647 593 q 622 563 631 579 q 607 524 614 546 q 556 319 582 439 q 529 153 529 199 q 548 82 529 114 q 607 50 567 50 q 703 86 649 50 q 806 188 758 122 q 876 335 854 253 m 281 72 q 328 92 300 72 q 380 144 356 111 q 414 218 404 178 l 436 322 q 471 490 461 450 q 394 507 435 507 q 297 466 329 507 q 253 374 264 425 l 210 164 q 235 101 213 129 q 281 72 257 72 z "},"â":{"ha":722,"x_min":76,"x_max":901,"o":"m 876 335 q 901 293 901 335 q 848 153 901 226 q 715 32 794 81 q 569 -17 636 -17 q 477 14 517 -17 q 421 93 438 44 q 331 17 383 46 q 236 -11 278 -11 q 164 10 200 -11 q 103 65 128 32 q 76 132 78 99 q 133 407 108 274 q 181 477 139 435 q 281 550 222 519 q 392 581 339 581 q 490 551 440 581 q 506 581 500 575 q 522 589 511 588 l 643 596 l 647 593 q 622 563 631 579 q 607 524 614 546 q 556 319 582 439 q 529 153 529 199 q 548 82 529 114 q 607 50 567 50 q 703 86 649 50 q 806 188 758 122 q 876 335 854 253 m 281 72 q 328 92 300 72 q 380 144 356 111 q 414 218 404 178 l 436 322 q 471 490 461 450 q 394 507 435 507 q 297 466 329 507 q 253 374 264 425 l 210 164 q 235 101 213 129 q 281 72 257 72 z "},"ấ":{"ha":722,"x_min":76,"x_max":903,"o":"m 876 335 q 901 293 901 335 q 848 153 901 226 q 715 32 794 81 q 569 -17 636 -17 q 477 14 517 -17 q 421 93 438 44 q 331 17 383 46 q 236 -11 278 -11 q 164 10 200 -11 q 103 65 128 32 q 76 132 78 99 q 133 407 108 274 q 181 477 139 435 q 281 550 222 519 q 392 581 339 581 q 490 551 440 581 q 506 581 500 575 q 522 589 511 588 l 643 596 l 647 593 q 622 563 631 579 q 607 524 614 546 q 556 319 582 439 q 529 153 529 199 q 548 82 529 114 q 607 50 567 50 q 703 86 649 50 q 806 188 758 122 q 876 335 854 253 m 281 72 q 328 92 300 72 q 380 144 356 111 q 414 218 404 178 l 436 322 q 471 490 461 450 q 394 507 435 507 q 297 466 329 507 q 253 374 264 425 l 210 164 q 235 101 213 129 q 281 72 257 72 m 825 1157 q 872 1142 840 1157 q 903 1117 903 1128 q 886 1096 903 1111 l 701 949 q 674 926 681 933 q 654 919 665 919 q 629 933 643 919 q 727 1044 694 1004 q 807 1146 760 1083 q 825 1157 815 1157 m 501 1015 q 543 994 531 1015 q 600 865 563 964 q 638 743 638 767 q 610 710 638 726 q 558 694 582 694 q 486 910 519 832 q 344 722 400 807 q 301 740 319 725 q 285 772 283 754 q 297 801 286 785 q 451 988 349 885 q 478 1010 469 1006 q 501 1015 486 1015 z "},"ậ":{"ha":722,"x_min":76,"x_max":901,"o":"m 876 335 q 901 293 901 335 q 848 153 901 226 q 715 32 794 81 q 569 -17 636 -17 q 477 14 517 -17 q 421 93 438 44 q 331 17 383 46 q 236 -11 278 -11 q 164 10 200 -11 q 103 65 128 32 q 76 132 78 99 q 133 407 108 274 q 181 477 139 435 q 281 550 222 519 q 392 581 339 581 q 490 551 440 581 q 506 581 500 575 q 522 589 511 588 l 643 596 l 647 593 q 622 563 631 579 q 607 524 614 546 q 556 319 582 439 q 529 153 529 199 q 548 82 529 114 q 607 50 567 50 q 703 86 649 50 q 806 188 758 122 q 876 335 854 253 m 281 72 q 328 92 300 72 q 380 144 356 111 q 414 218 404 178 l 436 322 q 471 490 461 450 q 394 507 435 507 q 297 466 329 507 q 253 374 264 425 l 210 164 q 235 101 213 129 q 281 72 257 72 z "},"ầ":{"ha":722,"x_min":76,"x_max":901,"o":"m 876 335 q 901 293 901 335 q 848 153 901 226 q 715 32 794 81 q 569 -17 636 -17 q 477 14 517 -17 q 421 93 438 44 q 331 17 383 46 q 236 -11 278 -11 q 164 10 200 -11 q 103 65 128 32 q 76 132 78 99 q 133 407 108 274 q 181 477 139 435 q 281 550 222 519 q 392 581 339 581 q 490 551 440 581 q 506 581 500 575 q 522 589 511 588 l 643 596 l 647 593 q 622 563 631 579 q 607 524 614 546 q 556 319 582 439 q 529 153 529 199 q 548 82 529 114 q 607 50 567 50 q 703 86 649 50 q 806 188 758 122 q 876 335 854 253 m 281 72 q 328 92 300 72 q 380 144 356 111 q 414 218 404 178 l 436 322 q 471 490 461 450 q 394 507 435 507 q 297 466 329 507 q 253 374 264 425 l 210 164 q 235 101 213 129 q 281 72 257 72 m 608 1203 q 672 1075 647 1124 q 736 963 697 1026 q 707 947 725 947 q 683 958 694 947 q 607 1044 660 978 q 532 1147 554 1110 q 563 1190 542 1169 q 599 1211 583 1211 q 608 1203 606 1211 m 501 1015 q 543 994 531 1015 q 600 865 563 964 q 638 743 638 767 q 610 710 638 726 q 558 694 582 694 q 486 910 519 832 q 344 722 400 807 q 301 740 319 725 q 285 772 283 754 q 297 801 286 785 q 451 988 349 885 q 478 1010 469 1006 q 501 1015 486 1015 z "},"ẩ":{"ha":722,"x_min":76,"x_max":901,"o":"m 876 335 q 901 293 901 335 q 848 153 901 226 q 715 32 794 81 q 569 -17 636 -17 q 477 14 517 -17 q 421 93 438 44 q 331 17 383 46 q 236 -11 278 -11 q 164 10 200 -11 q 103 65 128 32 q 76 132 78 99 q 133 407 108 274 q 181 477 139 435 q 281 550 222 519 q 392 581 339 581 q 490 551 440 581 q 506 581 500 575 q 522 589 511 588 l 643 596 l 647 593 q 622 563 631 579 q 607 524 614 546 q 556 319 582 439 q 529 153 529 199 q 548 82 529 114 q 607 50 567 50 q 703 86 649 50 q 806 188 758 122 q 876 335 854 253 m 281 72 q 328 92 300 72 q 380 144 356 111 q 414 218 404 178 l 436 322 q 471 490 461 450 q 394 507 435 507 q 297 466 329 507 q 253 374 264 425 l 210 164 q 235 101 213 129 q 281 72 257 72 z "},"ẫ":{"ha":722,"x_min":76,"x_max":901,"o":"m 876 335 q 901 293 901 335 q 848 153 901 226 q 715 32 794 81 q 569 -17 636 -17 q 477 14 517 -17 q 421 93 438 44 q 331 17 383 46 q 236 -11 278 -11 q 164 10 200 -11 q 103 65 128 32 q 76 132 78 99 q 133 407 108 274 q 181 477 139 435 q 281 550 222 519 q 392 581 339 581 q 490 551 440 581 q 506 581 500 575 q 522 589 511 588 l 643 596 l 647 593 q 622 563 631 579 q 607 524 614 546 q 556 319 582 439 q 529 153 529 199 q 548 82 529 114 q 607 50 567 50 q 703 86 649 50 q 806 188 758 122 q 876 335 854 253 m 281 72 q 328 92 300 72 q 380 144 356 111 q 414 218 404 178 l 436 322 q 471 490 461 450 q 394 507 435 507 q 297 466 329 507 q 253 374 264 425 l 210 164 q 235 101 213 129 q 281 72 257 72 z "},"ä":{"ha":722,"x_min":76,"x_max":901,"o":"m 876 335 q 901 293 901 335 q 848 153 901 226 q 715 32 794 81 q 569 -17 636 -17 q 477 14 517 -17 q 421 93 438 44 q 331 17 383 46 q 236 -11 278 -11 q 164 10 200 -11 q 103 65 128 32 q 76 132 78 99 q 133 407 108 274 q 181 477 139 435 q 281 550 222 519 q 392 581 339 581 q 490 551 440 581 q 506 581 500 575 q 522 589 511 588 l 643 596 l 647 593 q 622 563 631 579 q 607 524 614 546 q 556 319 582 439 q 529 153 529 199 q 548 82 529 114 q 607 50 567 50 q 703 86 649 50 q 806 188 758 122 q 876 335 854 253 m 281 72 q 328 92 300 72 q 380 144 356 111 q 414 218 404 178 l 436 322 q 471 490 461 450 q 394 507 435 507 q 297 466 329 507 q 253 374 264 425 l 210 164 q 235 101 213 129 q 281 72 257 72 z "},"ạ":{"ha":722,"x_min":76,"x_max":901,"o":"m 876 335 q 901 293 901 335 q 848 153 901 226 q 715 32 794 81 q 569 -17 636 -17 q 477 14 517 -17 q 421 93 438 44 q 331 17 383 46 q 236 -11 278 -11 q 164 10 200 -11 q 103 65 128 32 q 76 132 78 99 q 133 407 108 274 q 181 477 139 435 q 281 550 222 519 q 392 581 339 581 q 490 551 440 581 q 506 581 500 575 q 522 589 511 588 l 643 596 l 647 593 q 622 563 631 579 q 607 524 614 546 q 556 319 582 439 q 529 153 529 199 q 548 82 529 114 q 607 50 567 50 q 703 86 649 50 q 806 188 758 122 q 876 335 854 253 m 281 72 q 328 92 300 72 q 380 144 356 111 q 414 218 404 178 l 436 322 q 471 490 461 450 q 394 507 435 507 q 297 466 329 507 q 253 374 264 425 l 210 164 q 235 101 213 129 q 281 72 257 72 z "},"à":{"ha":722,"x_min":76,"x_max":901,"o":"m 876 335 q 901 293 901 335 q 848 153 901 226 q 715 32 794 81 q 569 -17 636 -17 q 477 14 517 -17 q 421 93 438 44 q 331 17 383 46 q 236 -11 278 -11 q 164 10 200 -11 q 103 65 128 32 q 76 132 78 99 q 133 407 108 274 q 181 477 139 435 q 281 550 222 519 q 392 581 339 581 q 490 551 440 581 q 506 581 500 575 q 522 589 511 588 l 643 596 l 647 593 q 622 563 631 579 q 607 524 614 546 q 556 319 582 439 q 529 153 529 199 q 548 82 529 114 q 607 50 567 50 q 703 86 649 50 q 806 188 758 122 q 876 335 854 253 m 281 72 q 328 92 300 72 q 380 144 356 111 q 414 218 404 178 l 436 322 q 471 490 461 450 q 394 507 435 507 q 297 466 329 507 q 253 374 264 425 l 210 164 q 235 101 213 129 q 281 72 257 72 z "},"ả":{"ha":722,"x_min":76,"x_max":901,"o":"m 876 335 q 901 293 901 335 q 848 153 901 226 q 715 32 794 81 q 569 -17 636 -17 q 477 14 517 -17 q 421 93 438 44 q 331 17 383 46 q 236 -11 278 -11 q 164 10 200 -11 q 103 65 128 32 q 76 132 78 99 q 133 407 108 274 q 181 477 139 435 q 281 550 222 519 q 392 581 339 581 q 490 551 440 581 q 506 581 500 575 q 522 589 511 588 l 643 596 l 647 593 q 622 563 631 579 q 607 524 614 546 q 556 319 582 439 q 529 153 529 199 q 548 82 529 114 q 607 50 567 50 q 703 86 649 50 q 806 188 758 122 q 876 335 854 253 m 281 72 q 328 92 300 72 q 380 144 356 111 q 414 218 404 178 l 436 322 q 471 490 461 450 q 394 507 435 507 q 297 466 329 507 q 253 374 264 425 l 210 164 q 235 101 213 129 q 281 72 257 72 m 397 681 q 372 703 368 681 q 443 772 413 729 q 474 849 474 815 q 428 885 474 885 q 375 879 403 885 q 401 926 381 910 q 486 951 432 951 q 560 930 535 951 q 586 869 586 908 q 555 781 586 825 q 479 709 524 738 q 397 681 435 681 z "},"ɑ":{"ha":722,"x_min":81,"x_max":650,"o":"m 538 196 q 644 68 538 86 q 615 10 642 36 q 561 -17 588 -17 q 488 19 524 -17 q 447 107 453 54 q 365 22 414 54 q 265 -11 317 -11 q 183 13 225 -11 q 111 72 140 36 q 81 140 82 107 l 100 222 q 143 421 129 347 q 190 487 149 449 q 290 553 231 525 q 406 581 349 581 q 490 554 450 581 q 505 581 499 575 q 522 589 511 588 l 646 596 l 650 593 q 610 524 622 571 q 560 329 582 425 q 538 196 538 233 m 432 322 l 472 500 q 407 514 440 514 q 315 474 360 514 q 263 392 271 435 q 229 229 249 329 l 213 144 q 235 89 215 110 q 279 68 256 68 q 352 99 319 68 q 401 190 385 129 l 432 322 z "},"ā":{"ha":722,"x_min":76,"x_max":901,"o":"m 876 335 q 901 293 901 335 q 848 153 901 226 q 715 32 794 81 q 569 -17 636 -17 q 477 14 517 -17 q 421 93 438 44 q 331 17 383 46 q 236 -11 278 -11 q 164 10 200 -11 q 103 65 128 32 q 76 132 78 99 q 133 407 108 274 q 181 477 139 435 q 281 550 222 519 q 392 581 339 581 q 490 551 440 581 q 506 581 500 575 q 522 589 511 588 l 643 596 l 647 593 q 622 563 631 579 q 607 524 614 546 q 556 319 582 439 q 529 153 529 199 q 548 82 529 114 q 607 50 567 50 q 703 86 649 50 q 806 188 758 122 q 876 335 854 253 m 281 72 q 328 92 300 72 q 380 144 356 111 q 414 218 404 178 l 436 322 q 471 490 461 450 q 394 507 435 507 q 297 466 329 507 q 253 374 264 425 l 210 164 q 235 101 213 129 q 281 72 257 72 z "},"ą":{"ha":722,"x_min":76,"x_max":901,"o":"m 594 -15 q 537 -69 556 -40 q 518 -133 518 -97 q 528 -172 518 -158 q 565 -185 539 -185 q 617 -179 589 -185 q 619 -194 619 -187 q 592 -235 619 -219 q 519 -251 564 -251 q 438 -228 468 -251 q 407 -160 407 -204 q 435 -74 407 -115 q 507 -4 463 -33 q 421 93 446 24 q 331 17 383 46 q 236 -11 278 -11 q 164 10 200 -11 q 103 65 128 32 q 76 132 78 99 q 133 407 108 274 q 181 477 139 435 q 281 550 222 519 q 392 581 339 581 q 490 551 440 581 q 506 581 500 575 q 522 589 511 588 l 643 596 l 647 593 q 622 563 631 579 q 607 524 614 546 q 556 319 582 439 q 529 153 529 199 q 548 82 529 114 q 607 50 567 50 q 703 86 649 50 q 806 188 758 122 q 876 335 854 253 q 901 293 901 335 q 853 162 901 231 q 733 43 806 93 q 594 -15 661 -7 m 281 72 q 328 92 300 72 q 380 144 356 111 q 414 218 404 178 l 436 322 q 471 490 461 450 q 394 507 435 507 q 297 466 329 507 q 253 374 264 425 l 210 164 q 235 101 213 129 q 281 72 257 72 z "},"å":{"ha":722,"x_min":76,"x_max":901,"o":"m 876 335 q 901 293 901 335 q 848 153 901 226 q 715 32 794 81 q 569 -17 636 -17 q 477 14 517 -17 q 421 93 438 44 q 331 17 383 46 q 236 -11 278 -11 q 164 10 200 -11 q 103 65 128 32 q 76 132 78 99 q 133 407 108 274 q 181 477 139 435 q 281 550 222 519 q 392 581 339 581 q 490 551 440 581 q 506 581 500 575 q 522 589 511 588 l 643 596 l 647 593 q 622 563 631 579 q 607 524 614 546 q 556 319 582 439 q 529 153 529 199 q 548 82 529 114 q 607 50 567 50 q 703 86 649 50 q 806 188 758 122 q 876 335 854 253 m 281 72 q 328 92 300 72 q 380 144 356 111 q 414 218 404 178 l 436 322 q 471 490 461 450 q 394 507 435 507 q 297 466 329 507 q 253 374 264 425 l 210 164 q 235 101 213 129 q 281 72 257 72 z "},"ǻ":{"ha":722,"x_min":76,"x_max":901,"o":"m 876 335 q 901 293 901 335 q 848 153 901 226 q 715 32 794 81 q 569 -17 636 -17 q 477 14 517 -17 q 421 93 438 44 q 331 17 383 46 q 236 -11 278 -11 q 164 10 200 -11 q 103 65 128 32 q 76 132 78 99 q 133 407 108 274 q 181 477 139 435 q 281 550 222 519 q 392 581 339 581 q 490 551 440 581 q 506 581 500 575 q 522 589 511 588 l 643 596 l 647 593 q 622 563 631 579 q 607 524 614 546 q 556 319 582 439 q 529 153 529 199 q 548 82 529 114 q 607 50 567 50 q 703 86 649 50 q 806 188 758 122 q 876 335 854 253 m 281 72 q 328 92 300 72 q 380 144 356 111 q 414 218 404 178 l 436 322 q 471 490 461 450 q 394 507 435 507 q 297 466 329 507 q 253 374 264 425 l 210 164 q 235 101 213 129 q 281 72 257 72 z "},"ã":{"ha":722,"x_min":76,"x_max":901,"o":"m 876 335 q 901 293 901 335 q 848 153 901 226 q 715 32 794 81 q 569 -17 636 -17 q 477 14 517 -17 q 421 93 438 44 q 331 17 383 46 q 236 -11 278 -11 q 164 10 200 -11 q 103 65 128 32 q 76 132 78 99 q 133 407 108 274 q 181 477 139 435 q 281 550 222 519 q 392 581 339 581 q 490 551 440 581 q 506 581 500 575 q 522 589 511 588 l 643 596 l 647 593 q 622 563 631 579 q 607 524 614 546 q 556 319 582 439 q 529 153 529 199 q 548 82 529 114 q 607 50 567 50 q 703 86 649 50 q 806 188 758 122 q 876 335 854 253 m 281 72 q 328 92 300 72 q 380 144 356 111 q 414 218 404 178 l 436 322 q 471 490 461 450 q 394 507 435 507 q 297 466 329 507 q 253 374 264 425 l 210 164 q 235 101 213 129 q 281 72 257 72 z "},"æ":{"ha":910,"x_min":76,"x_max":1089,"o":"m 1064 318 q 1083 308 1078 315 q 1089 289 1089 301 q 1083 258 1089 274 q 985 135 1064 200 q 805 27 906 71 q 624 -17 704 -17 q 504 17 557 -17 q 429 104 451 50 q 336 22 392 54 q 236 -11 281 -11 q 164 10 200 -11 q 103 65 128 32 q 76 132 78 99 q 108 301 92 199 l 126 407 q 174 477 132 435 q 274 550 215 519 q 385 581 332 581 q 483 551 433 581 q 499 581 493 575 q 515 589 504 588 l 629 596 l 633 593 q 597 525 615 578 q 666 568 631 553 q 729 583 701 583 q 794 568 758 583 q 855 523 829 553 q 881 451 881 493 q 830 348 881 394 q 699 276 779 301 q 540 250 619 250 q 529 178 531 197 q 567 99 533 135 q 675 63 600 63 q 821 97 744 63 q 962 190 897 131 q 1064 318 1026 249 m 699 518 q 648 501 676 518 q 597 461 619 485 q 571 418 575 438 l 551 313 q 702 349 644 315 q 760 444 760 383 q 741 499 760 481 q 699 518 722 518 m 281 72 q 328 92 300 72 q 380 144 356 111 q 414 218 404 178 l 435 331 q 464 490 454 442 q 388 507 431 507 q 246 374 278 507 q 225 260 240 354 q 210 164 219 218 q 235 101 213 129 q 281 72 257 72 z "},"ǽ":{"ha":910,"x_min":76,"x_max":1089,"o":"m 1064 318 q 1083 308 1078 315 q 1089 289 1089 301 q 1083 258 1089 274 q 985 135 1064 200 q 805 27 906 71 q 624 -17 704 -17 q 504 17 557 -17 q 429 104 451 50 q 336 22 392 54 q 236 -11 281 -11 q 164 10 200 -11 q 103 65 128 32 q 76 132 78 99 q 108 301 92 199 l 126 407 q 174 477 132 435 q 274 550 215 519 q 385 581 332 581 q 483 551 433 581 q 499 581 493 575 q 515 589 504 588 l 629 596 l 633 593 q 597 525 615 578 q 666 568 631 553 q 729 583 701 583 q 794 568 758 583 q 855 523 829 553 q 881 451 881 493 q 830 348 881 394 q 699 276 779 301 q 540 250 619 250 q 529 178 531 197 q 567 99 533 135 q 675 63 600 63 q 821 97 744 63 q 962 190 897 131 q 1064 318 1026 249 m 699 518 q 648 501 676 518 q 597 461 619 485 q 571 418 575 438 l 551 313 q 702 349 644 315 q 760 444 760 383 q 741 499 760 481 q 699 518 722 518 m 281 72 q 328 92 300 72 q 380 144 356 111 q 414 218 404 178 l 435 331 q 464 490 454 442 q 388 507 431 507 q 246 374 278 507 q 225 260 240 354 q 210 164 219 218 q 235 101 213 129 q 281 72 257 72 z "},"b":{"ha":688,"x_min":75,"x_max":979,"o":"m 811 1367 q 603 1323 688 1367 q 455 1159 519 1279 q 339 813 390 1039 q 274 501 317 714 q 210 158 232 288 q 226 90 210 117 q 279 64 243 64 q 376 140 342 64 q 410 306 410 217 q 397 408 410 358 q 361 494 383 458 q 390 544 360 508 q 435 582 421 579 q 498 496 468 529 q 578 441 528 463 q 708 419 629 419 q 892 483 829 419 q 899 467 899 476 q 866 412 899 439 q 779 367 833 385 q 665 350 725 350 q 514 381 581 350 q 526 290 526 338 q 490 138 526 208 q 394 25 454 67 q 267 -17 335 -17 q 172 5 217 -17 q 101 60 128 26 q 75 129 75 94 q 135 440 94 242 q 204 758 176 638 q 442 1304 290 1125 q 783 1483 593 1483 q 915 1448 871 1483 q 979 1347 958 1413 l 978 1335 q 896 1360 933 1353 q 811 1367 858 1367 z "},"c":{"ha":544,"x_min":86,"x_max":724,"o":"m 318 -7 q 203 23 257 -7 q 118 92 150 53 q 86 156 86 132 q 127 320 114 260 q 154 454 140 381 q 197 513 158 481 q 290 567 236 544 q 388 590 343 590 q 493 563 442 590 q 544 486 544 536 q 464 397 544 426 l 458 399 q 430 490 456 449 q 372 531 404 531 q 308 497 342 531 q 268 433 274 464 q 215 168 246 314 q 251 96 222 122 q 351 69 279 69 q 540 122 442 69 q 696 322 638 174 q 724 283 724 322 q 655 149 724 217 q 489 38 586 82 q 318 -7 392 -7 z "}}}
